<?xml version="1.0" encoding="utf-8"?>
<!-- Generator: Adobe Illustrator 19.1.0, SVG Export Plug-In . SVG Version: 6.00 Build 0)  -->
<svg version="1.1" id="Layer_1" xmlns="http://www.w3.org/2000/svg" xmlns:xlink="http://www.w3.org/1999/xlink" x="0px" y="0px"
	 viewBox="0 0 80 80" style="enable-background:new 0 0 80 80;" xml:space="preserve">
<style type="text/css">
	.st0{fill:#F4A51D;}
	.st1{fill:#8AC3E4;}
	.st2{fill:#2E85B8;}
	.st3{fill:#1E5779;}
	.st4{clip-path:url(#SVGID_2_);fill:#F6A61C;}
	.st5{clip-path:url(#SVGID_2_);fill:#2B84B7;}
	.st6{clip-path:url(#SVGID_2_);fill:#1C5678;}
</style>
<path class="st1" d="M63.8,18.3l0.1-0.1L61,13.8h-6.6V11c0-3.4-2.5-6.2-5.5-6.2H31.2c-3,0-5.5,2.8-5.5,6.2v2.7H19l-2.9,4.4l0.1,0.1
	C9.9,18.9,5,24.2,5,30.6v36.9c0,3.4,2.8,6.2,6.2,6.2h57.7c3.4,0,6.2-2.8,6.2-6.2V30.6C75,24.2,70.1,18.9,63.8,18.3z M29.2,11
	c0-1.4,0.9-2.7,2-2.7h17.7c1.1,0,2,1.2,2,2.7v2.7H40H29.2V11z"/>
</svg>
