<?xml version="1.0" encoding="utf-8"?>
<!-- Generator: Adobe Illustrator 19.1.0, SVG Export Plug-In . SVG Version: 6.00 Build 0)  -->
<svg version="1.1" id="Layer_1" xmlns="http://www.w3.org/2000/svg" xmlns:xlink="http://www.w3.org/1999/xlink" x="0px" y="0px"
	 viewBox="0 0 80 80" style="enable-background:new 0 0 80 80;" xml:space="preserve">
<style type="text/css">
	.st0{fill:#F4A51D;}
	.st1{fill:#8AC3E4;}
	.st2{fill:#2E85B8;}
	.st3{fill:#1E5779;}
	.st4{clip-path:url(#SVGID_2_);fill:#F6A61C;}
	.st5{clip-path:url(#SVGID_2_);fill:#2B84B7;}
	.st6{clip-path:url(#SVGID_2_);fill:#1C5678;}
</style>
<path class="st3" d="M69.8,34.3h-0.5l0,0.4v-4.4c0-2.9-2.3-5.2-5.2-5.2H53.5v-8.1c0-2.9-2.3-5.2-5.2-5.2H48c0-1.1-0.9-2.1-2.1-2.1
	H33.6c-1.1,0-2.1,0.9-2.1,2.1v0c-2.8,0-5.1,2.4-5.1,5.2v8.1H15.9c-2.9,0-5.2,2.3-5.2,5.2v4h-0.5c-2.9,0-5.2,2.3-5.2,5.2v24.2
	c0,2.9,2.3,5.2,5.2,5.2h0.5h58.6h0.1h0v0c0,0,0,0,0,0v0c2.7-0.3,5.7-2.5,5.7-5.2V39.5C75,36.6,72.7,34.3,69.8,34.3z M29.5,16.9
	c0-1.1,0.9-2.1,2.1-2.1h0c0.2,0.9,1,1.6,2,1.6h12.4c1,0,1.7-0.7,2-1.6h0.4c1.1,0,2.1,0.9,2.1,2.1v8.1H29.5V16.9z"/>
</svg>
