<?xml version="1.0" encoding="utf-8"?>
<!-- Generator: Adobe Illustrator 19.1.0, SVG Export Plug-In . SVG Version: 6.00 Build 0)  -->
<svg version="1.1" id="Layer_1" xmlns="http://www.w3.org/2000/svg" xmlns:xlink="http://www.w3.org/1999/xlink" x="0px" y="0px"
	 viewBox="0 0 80 80" style="enable-background:new 0 0 80 80;" xml:space="preserve">
<style type="text/css">
	.st0{fill:#F4A51D;}
	.st1{fill:#8AC3E4;}
	.st2{fill:#2E85B8;}
	.st3{fill:#1E5779;}
	.st4{clip-path:url(#SVGID_2_);fill:#F6A61C;}
	.st5{clip-path:url(#SVGID_2_);fill:#2B84B7;}
	.st6{clip-path:url(#SVGID_2_);fill:#1C5678;}
</style>
<path class="st3" d="M70.6,43.7c0-4.3-2-8-4.1-9.6v-1.3h-1.8V21.6c0-2.8-2.3-5.1-5.1-5.1h-17V8.1h7V4.7H32.6v3.4h7v8.4h-17
	c-2.8,0-5.1,2.3-5.1,5.1v14.6v3v27.7c0,2.8,2.3,5.1,5.1,5.1h1.6v2.7h5.2V72h23v2.7h5.2V72h1.8c2.8,0,5.1-2.3,5.1-5.1V54.5h1.8v-1.2
	C68.6,51.8,70.6,48,70.6,43.7z M64.7,48.7v-9.5v-0.6h1.8v-2.2c1.3,1.5,2.4,4.1,2.4,7.3s-1.2,5.8-2.4,7.3v-2.3H64.7z"/>
</svg>
