<?xml version="1.0" encoding="utf-8"?>
<!-- Generator: Adobe Illustrator 19.1.0, SVG Export Plug-In . SVG Version: 6.00 Build 0)  -->
<svg version="1.1" id="Layer_1" xmlns="http://www.w3.org/2000/svg" xmlns:xlink="http://www.w3.org/1999/xlink" x="0px" y="0px"
	 viewBox="0 0 80 80" style="enable-background:new 0 0 80 80;" xml:space="preserve">
<style type="text/css">
	.st0{fill:#F4A51D;}
	.st1{fill:#8AC3E4;}
	.st2{fill:#2E85B8;}
	.st3{fill:#1E5779;}
	.st4{clip-path:url(#SVGID_2_);fill:#F6A61C;}
	.st5{clip-path:url(#SVGID_2_);fill:#2B84B7;}
	.st6{clip-path:url(#SVGID_2_);fill:#1C5678;}
</style>
<path class="st0" d="M80,63.8l-9.6-37.5c-0.7-2.6-3-4.3-5.6-4.3h-2.1v-3.6h-3.3c0-6.3-3.7-13.7-14.2-13.7
	c-10.5,0-14.2,7.4-14.2,13.7h-3.3v3.6h-2.1c-2.6,0-4.9,1.8-5.6,4.3l-9.6,37.5c-0.6,2.4-0.1,5,1.4,7c1.5,2,3.9,3.1,6.4,3.1h26.9h26.9
	c2.5,0,4.9-1.2,6.4-3.1C80.1,68.8,80.7,66.2,80,63.8z M45.3,21.9h-7.5v-3.6h-3.3c0-2.4,0.8-10.2,10.8-10.2c10,0,10.8,7.8,10.8,10.2
	h-3.3v3.6H45.3z"/>
</svg>
