<?xml version="1.0" encoding="utf-8"?>
<!-- Generator: Adobe Illustrator 19.1.0, SVG Export Plug-In . SVG Version: 6.00 Build 0)  -->
<svg version="1.1" id="Layer_1" xmlns="http://www.w3.org/2000/svg" xmlns:xlink="http://www.w3.org/1999/xlink" x="0px" y="0px"
	 viewBox="0 0 80 80" style="enable-background:new 0 0 80 80;" xml:space="preserve">
<style type="text/css">
	.st0{fill:#F4A51D;}
	.st1{fill:#8AC3E4;}
	.st2{fill:#2E85B8;}
	.st3{fill:#1E5779;}
	.st4{clip-path:url(#SVGID_2_);fill:#F6A61C;}
	.st5{clip-path:url(#SVGID_2_);fill:#2B84B7;}
	.st6{clip-path:url(#SVGID_2_);fill:#1C5678;}
</style>
<path class="st2" d="M57.4,29.7c-0.3-3.5-3.2-6.3-6.7-6.3h-0.9V9.5h0.9V5.7H29.4v3.9h0.9v13.9h-0.9c-3.5,0-6.5,2.7-6.7,6.3L20,65
	c-0.1,1.3,0.4,2.7,1.3,3.6c0.9,1,2.2,1.5,3.5,1.5v2.7h6.3v-2.7H40h8.9v2.7h6.3v-2.7c1.3,0,2.6-0.6,3.5-1.5c0.9-1,1.4-2.3,1.3-3.6
	L57.4,29.7z M47.8,9.5v12c-1.2-1.8-3.7-3.3-7.8-3.3c-4.1,0-6.6,1.5-7.8,3.3v-12H47.8z M33.9,23.4c0.5-1.3,2.2-2.8,6.1-2.8
	c3.9,0,5.6,1.5,6.1,2.8H40H33.9z"/>
</svg>
