<?xml version="1.0" encoding="utf-8"?>
<!-- Generator: Adobe Illustrator 19.1.0, SVG Export Plug-In . SVG Version: 6.00 Build 0)  -->
<svg version="1.1" id="Layer_1" xmlns="http://www.w3.org/2000/svg" xmlns:xlink="http://www.w3.org/1999/xlink" x="0px" y="0px"
	 viewBox="0 0 80 80" style="enable-background:new 0 0 80 80;" xml:space="preserve">
<style type="text/css">
	.st0{fill:#F4A51D;}
	.st1{fill:#8AC3E4;}
	.st2{fill:#2E85B8;}
	.st3{fill:#1E5779;}
	.st4{clip-path:url(#SVGID_2_);fill:#F6A61C;}
	.st5{clip-path:url(#SVGID_2_);fill:#2B84B7;}
	.st6{clip-path:url(#SVGID_2_);fill:#1C5678;}
</style>
<path class="st0" d="M70.7,33.5c0-0.6,0-1.2-0.1-1.8c-0.1-1.1-0.3-2.2-0.6-3.3l-2.1-7.9h0c0-2-6.6-3.7-16-4.5l-0.3-4.1h0l-0.3-4.9
	H30.2l-0.3,4.9h0L29.6,16c-9.4,0.8-16,2.5-16,4.5c0,0,0,0,0,0l-2.1,7.9c-0.3,1.1-0.5,2.2-0.6,3.3c-0.1,0.6-0.1,1.2-0.1,1.8
	c0,0.2,0,0.3,0,0.5v29.3c0,3.1,6,5.8,15,7.2c4.4,0.7,9.5,1.1,15,1.1c5.5,0,10.6-0.4,15-1.1c9-1.4,15-4.1,15-7.2V34
	C70.7,33.9,70.7,33.7,70.7,33.5z M32.1,11.9h17.3l0.3,4c-2.8-0.2-5.8-0.3-9-0.3s-6.2,0.1-9,0.3L32.1,11.9z"/>
</svg>
