<?xml version="1.0" encoding="utf-8"?>
<!-- Generator: Adobe Illustrator 19.1.0, SVG Export Plug-In . SVG Version: 6.00 Build 0)  -->
<svg version="1.1" id="Layer_1" xmlns="http://www.w3.org/2000/svg" xmlns:xlink="http://www.w3.org/1999/xlink" x="0px" y="0px"
	 viewBox="0 0 80 80" style="enable-background:new 0 0 80 80;" xml:space="preserve">
<style type="text/css">
	.st0{fill:#F4A51D;}
	.st1{fill:#8AC3E4;}
	.st2{fill:#2E85B8;}
	.st3{fill:#1E5779;}
	.st4{clip-path:url(#SVGID_2_);fill:#F6A61C;}
	.st5{clip-path:url(#SVGID_2_);fill:#2B84B7;}
	.st6{clip-path:url(#SVGID_2_);fill:#1C5678;}
</style>
<path class="st1" d="M69.7,24h-4.2H53.8c-1.4-8.2-5.6-11.4-13.9-11.4c-8.3,0-12.5,3.2-13.8,11.4H14.4h-4.2C7.4,24,5,26.3,5,29.3v4.2
	v23v4.2c0,2.9,2.4,5.3,5.3,5.3h4.1h51.1h4.2c2.9,0,5.3-2.4,5.3-5.3v-4.2V33.5v-4.2C75,26.3,72.6,24,69.7,24z M40,15.6
	c5.8,0,9.4,1.5,10.8,8.4H29.2C30.5,17.1,34.1,15.6,40,15.6z"/>
</svg>
