<?xml version="1.0" encoding="utf-8"?>
<!-- Generator: Adobe Illustrator 19.1.0, SVG Export Plug-In . SVG Version: 6.00 Build 0)  -->
<svg version="1.1" id="Layer_1" xmlns="http://www.w3.org/2000/svg" xmlns:xlink="http://www.w3.org/1999/xlink" x="0px" y="0px"
	 viewBox="0 0 80 80" style="enable-background:new 0 0 80 80;" xml:space="preserve">
<style type="text/css">
	.st0{fill:#F4A51D;}
	.st1{fill:#8AC3E4;}
	.st2{fill:#2E85B8;}
	.st3{fill:#1E5779;}
	.st4{clip-path:url(#SVGID_2_);fill:#F6A61C;}
	.st5{clip-path:url(#SVGID_2_);fill:#2B84B7;}
	.st6{clip-path:url(#SVGID_2_);fill:#1C5678;}
</style>
<path class="st2" d="M58.9,37.9h-0.4l-0.9-17.6c-0.2-3.7-2.5-6.7-5.6-8.1l0,0l1.1-7.5h-7.6l-1.9,6.7h-3.6h-3.6l-1.9-6.7h-7.6
	l1.1,7.5l0,0c-3.2,1.4-5.4,4.5-5.6,8.1l-0.9,17.6h-0.4c-3.2,0-5.9,2.6-5.9,5.9v12.8c0,2.6,2.1,4.7,4.7,4.7h0.5
	c-2,0.5-3.6,2.3-3.6,4.5v0.8V70c0,2.6,2.1,4.7,4.7,4.7h36.7c2.6,0,4.7-2.1,4.7-4.7v-3.5v-0.8c0-2.2-1.5-4-3.6-4.5h0.5
	c2.6,0,4.7-2.1,4.7-4.7V43.7C64.7,40.5,62.1,37.9,58.9,37.9z"/>
</svg>
