<?xml version="1.0" encoding="utf-8"?>
<!-- Generator: Adobe Illustrator 19.1.0, SVG Export Plug-In . SVG Version: 6.00 Build 0)  -->
<svg version="1.1" id="Layer_1" xmlns="http://www.w3.org/2000/svg" xmlns:xlink="http://www.w3.org/1999/xlink" x="0px" y="0px"
	 viewBox="0 0 80 80" style="enable-background:new 0 0 80 80;" xml:space="preserve">
<style type="text/css">
	.st0{fill:#F4A51D;}
	.st1{fill:#8AC3E4;}
	.st2{fill:#2E85B8;}
	.st3{fill:#1E5779;}
	.st4{clip-path:url(#SVGID_2_);fill:#F6A61C;}
	.st5{clip-path:url(#SVGID_2_);fill:#2B84B7;}
	.st6{clip-path:url(#SVGID_2_);fill:#1C5678;}
</style>
<path class="st0" d="M54.2,17.2l-0.3-4c-0.4-4.4-4.1-7.9-8.6-7.9h-9c-4.4,0-8.2,3.5-8.6,7.9l-0.3,4c-27.3,10-29,49.9-3.5,54.7v2.2h7
	v-1.7c9.9,0,9.9,0,9.9,0s0,0,9.9,0v1.7h7v-2.2C83.2,67,81.4,27.2,54.2,17.2z M50.6,13.4l0.2,2.7c0,0,0,0,0,0L50.6,13.4
	c0-0.4-0.1-0.9-0.3-1.3C50.5,12.6,50.6,13,50.6,13.4z M36.3,11.7h9c1.1,0,2.1,0.9,2.1,2l0.1,1.8c-2.1-0.4-4.4-0.6-6.8-0.6
	c-2.4,0-4.6,0.2-6.8,0.6l0.1-1.8C34.2,12.6,35.2,11.7,36.3,11.7z M30.7,15.3l-0.1,0.8c0,0,0,0,0,0L30.7,15.3z"/>
</svg>
