<?xml version="1.0" encoding="utf-8"?>
<!-- Generator: Adobe Illustrator 19.1.0, SVG Export Plug-In . SVG Version: 6.00 Build 0)  -->
<svg version="1.1" id="Layer_1" xmlns="http://www.w3.org/2000/svg" xmlns:xlink="http://www.w3.org/1999/xlink" x="0px" y="0px"
	 viewBox="0 0 80 80" style="enable-background:new 0 0 80 80;" xml:space="preserve">
<style type="text/css">
	.st0{fill:#F4A51D;}
	.st1{fill:#8AC3E4;}
	.st2{fill:#2E85B8;}
	.st3{fill:#1E5779;}
	.st4{clip-path:url(#SVGID_2_);fill:#F6A61C;}
	.st5{clip-path:url(#SVGID_2_);fill:#2B84B7;}
	.st6{clip-path:url(#SVGID_2_);fill:#1C5678;}
</style>
<path class="st1" d="M69.1,44.2v-6.1c0-1.1-0.3-2.3-0.8-3.3L56.7,12.3c-0.1-0.1-0.1-0.2-0.2-0.3c-0.1-0.2-0.3-0.5-0.5-0.7
	c-0.2-0.2-0.3-0.4-0.5-0.6c-0.1-0.1-0.3-0.3-0.4-0.4c-0.2-0.1-0.3-0.3-0.5-0.4c-0.1-0.1-0.3-0.2-0.4-0.3c-0.3-0.2-0.6-0.4-1-0.5
	C53.1,9.1,53,9,52.9,9c-0.3-0.1-0.6-0.2-0.9-0.3c-0.1,0-0.2-0.1-0.4-0.1c-0.4-0.1-0.8-0.1-1.3-0.1h0h-1.8C48.4,5.4,46.4,3,43.8,3
	h-8.3C33,3,31,5.4,30.7,8.5H30h-0.7c-2.6,0-5,1.5-6.3,3.8L11.5,34.8c-0.5,1-0.8,2.1-0.8,3.3v6.2l0-0.1c-3.2,0-5.8,2.6-5.8,5.8v20.6
	c0,3,2.8,5.5,5.8,5.8v0h29h0.4h29c3.2,0,5.8-2.6,5.8-5.8V50C74.9,46.8,72.3,44.2,69.1,44.2z M35.6,6.1h8.3c0.8,0,1.6,1,1.8,2.4h-5.5
	h-0.4h-5.9C34,7.1,34.8,6.1,35.6,6.1z"/>
</svg>
