<?xml version="1.0" encoding="UTF-8" standalone="no"?>
<svg width="42px" height="52px" viewBox="0 0 42 52" version="1.1" xmlns="http://www.w3.org/2000/svg" xmlns:xlink="http://www.w3.org/1999/xlink" xmlns:sketch="http://www.bohemiancoding.com/sketch/ns">
    <!-- Generator: Sketch 3.4 (15588) - http://www.bohemiancoding.com/sketch -->
    <title>Slice 1</title>
    <desc>Created with Sketch.</desc>
    <defs></defs>
    <g id="Page-1" stroke="none" stroke-width="1" fill="none" fill-rule="evenodd" sketch:type="MSPage">
        <g id="ball_indicator" sketch:type="MSLayerGroup" transform="translate(0.000000, -367.000000)">
            <path d="M20.9,0.4 L20.9,367.8" id="Shape" stroke="#333333" sketch:type="MSShapeGroup"></path>
            <circle id="Oval" stroke="#333333" sketch:type="MSShapeGroup" cx="20.9" cy="370.8" r="3"></circle>
            <circle id="Oval" fill="#CE2428" sketch:type="MSShapeGroup" cx="20.9" cy="397.3" r="20.5"></circle>
            <path d="M25.6,377.8 L16.1,377.8 C15.7,377.8 15.4,377.5 15.4,377.1 L15.4,373 C15.4,372.6 15.7,372.3 16.1,372.3 L25.6,372.3 C26,372.3 26.3,372.6 26.3,373 L26.3,377.1 C26.4,377.5 26,377.8 25.6,377.8 L25.6,377.8 Z" id="Shape" fill="#CE2428" sketch:type="MSShapeGroup"></path>
            <path d="M14.1,380.4 C12.3,381 10.7,381.9 9.2,383.1 C8.8,383.4 8.7,384 9,384.4 C9.2,384.6 9.5,384.8 9.8,384.8 C10,384.8 10.2,384.7 10.4,384.6 C11.7,383.6 13.2,382.8 14.7,382.2 C15.2,382 15.5,381.5 15.3,381 C15.1,380.5 14.6,380.3 14.1,380.4 L14.1,380.4 Z" id="Shape" fill="#FFFFFF" sketch:type="MSShapeGroup"></path>
            <path d="M7.7,385.8 C7.3,385.5 6.7,385.5 6.4,386 C4,389 2.8,392.6 2.8,396.5 C2.8,397 3.2,397.5 3.8,397.5 C4.4,397.5 4.8,397.1 4.8,396.5 C4.8,393.1 5.9,389.9 8,387.2 C8.2,386.7 8.1,386.1 7.7,385.8 L7.7,385.8 Z" id="Shape" fill="#FFFFFF" sketch:type="MSShapeGroup"></path>
        </g>
    </g>
</svg>