<?xml version="1.0" encoding="utf-8"?>
<!-- Generator: Adobe Illustrator 19.1.0, SVG Export Plug-In . SVG Version: 6.00 Build 0)  -->
<svg version="1.1" id="Layer_1" xmlns="http://www.w3.org/2000/svg" xmlns:xlink="http://www.w3.org/1999/xlink" x="0px" y="0px"
	 viewBox="0 0 39.2 40.4" style="enable-background:new 0 0 39.2 40.4;" xml:space="preserve">
<style type="text/css">
	.st0{fill:#BDE4E6;}
	.st1{fill:none;stroke:#EAEAEA;stroke-miterlimit:10;}
	.st2{fill:#F3F3F3;}
	.st3{opacity:0.5;fill:url(#SVGID_1_);}
	.st4{fill:#FFFFFF;}
	.st5{fill:#010101;}
	.st6{fill:#CE2428;}
	.st7{fill:#F9F9F8;}
	.st8{fill:#F5DEC5;}
	.st9{fill:#F59099;}
	.st10{fill:#1D1D1B;}
	.st11{fill:none;stroke:#FFFFFF;stroke-miterlimit:10;}
	.st12{fill:#8BC4E4;}
	.st13{fill:#FFE4B3;}
	.st14{fill:#51C4C9;}
	.st15{fill:#FEFDF1;}
	.st16{fill:#F68C43;}
	.st17{fill:#CE5E27;}
	.st18{fill:#28BCB5;}
	.st19{fill:#EADC15;}
	.st20{fill:#DB1F26;}
	.st21{fill:#EF3A38;}
	.st22{fill:#FCB97E;}
	.st23{fill:#FFEEB7;}
	.st24{fill:#FAF9D5;}
	.st25{fill:#9FDBED;}
	.st26{fill:#83431D;}
	.st27{fill:#492B12;}
	.st28{fill:#FEE000;}
	.st29{fill:#F26A6B;}
	.st30{fill:#EE312F;}
	.st31{fill:#973820;}
	.st32{fill:#7366AD;}
	.st33{fill:#DB7229;}
	.st34{fill:#7ACED2;}
	.st35{opacity:0.54;}
	.st36{fill:#3BA3A3;}
	.st37{fill:#EE1D43;}
</style>
<g class="st35">
	<path class="st36" d="M23.6,4.1C8.5-2.2-3.1,19.5,4.6,32.6c2.6,4.5,11.2,9,21.1,5.6c11.4-3.9,17-20.9,7.5-29.2
		C30.2,6.4,28.4,6.1,23.6,4.1z"/>
</g>
<g>
	<path class="st37" d="M18.6,1c9.6,0,17.3,7.7,17.3,17.3c0,9.1-7.7,17.3-17.3,17.3C9.1,35.6,1,27.9,1.3,18.3C1.6,8.8,9.1,1,18.6,1z"
		/>
	<path class="st4" d="M1.6,15.2c3.4,7.9,11.6,9.4,11.6,9.4c-2.9-3.4-2.4-15.5-1.9-22C6.3,5,2.6,9.6,1.6,15.2z"/>
	<path class="st4" d="M13.8,24.8c9.6-2.3,16.5-0.1,19.9,1.8c1.5-2.7,2.3-5.3,2.3-8.3c0-5-2.1-9.9-5.8-12.9
		C18.1,11.1,13.8,24.8,13.8,24.8z"/>
	<path class="st4" d="M13.8,25.1c0.4,5.3-0.6,7-2,9.2c2.1,0.9,4.4,1.4,6.8,1.4c1.7,0,3.4-0.3,4.9-0.7C21.3,27.9,13.8,25.1,13.8,25.1
		z"/>
	<circle class="st37" cx="13.6" cy="24.9" r="0.9"/>
</g>
</svg>
