<?xml version="1.0" encoding="UTF-8" standalone="no"?>
<svg width="30px" height="13px" viewBox="0 0 30 13" version="1.1" xmlns="http://www.w3.org/2000/svg" xmlns:xlink="http://www.w3.org/1999/xlink" xmlns:sketch="http://www.bohemiancoding.com/sketch/ns">
    <!-- Generator: Sketch 3.4 (15588) - http://www.bohemiancoding.com/sketch -->
    <title>Group</title>
    <desc>Created with Sketch.</desc>
    <defs></defs>
    <g id="Page-1" stroke="none" stroke-width="1" fill="none" fill-rule="evenodd" sketch:type="MSPage">
        <g id="Group" sketch:type="MSLayerGroup">
            <g id="holiday-08" transform="translate(12.695925, 1.222571)" sketch:type="MSShapeGroup">
                <path d="M0.0735736747,0.476557392 L3.69317712,0.391162413 L3.92318905,10.1405878 L0.303585606,10.2259828 L0.0735736747,0.476557392 L0.0735736747,0.476557392 Z" id="Rectangle-path" fill="#2B84B7"></path>
                <g id="Group" transform="translate(0.376176, 0.000000)">
                    <path id="Shape" fill="#2B84B7" d="M1.62695925,9.06238245 L1.72695925,9.06238245 C1.70695925,9.03381102 1.66695925,8.99095387 1.64695925,8.96238245 C1.64695925,8.99095387 1.62695925,9.03381102 1.62695925,9.06238245 L1.62695925,9.06238245 Z"></path>
                    <path d="M3.59247649,6.8369906 L3.55485893,6.95924765 C3.55485893,6.95924765 3.0846395,6.61128527 2.87774295,6.77115987 C2.79310345,6.57366771 2.40752351,6.4984326 2.1630094,6.56426332 L2.21943574,6.44200627 L2.21003135,6.44200627 L2.47335423,5.85893417 L2.44514107,5.84952978 L2.13479624,6.59247649 L2.7460815,6.67711599 L2.80250784,6.78056426 L2.97178683,6.81818182 L3.03761755,6.77115987 L3.37617555,6.92163009 L3.57366771,7.00626959 L3.84639498,6.26332288 L3.78996865,6.24451411 L3.59247649,6.8369906 C3.60188088,6.84639498 3.60188088,6.8369906 3.59247649,6.8369906 L3.59247649,6.8369906 Z" id="Shape" fill="#EF3A38"></path>
                    <path d="M2.22884013,6.44200627 L2.17241379,6.56426332 C2.4169279,6.48902821 2.80250784,6.57366771 2.88714734,6.77115987 C3.09404389,6.61128527 3.56426332,6.95924765 3.56426332,6.95924765 L3.60188088,6.8369906 C3.55485893,6.79937304 3.13166144,6.4984326 2.93416928,6.64890282 C2.84952978,6.45141066 2.47335423,6.37617555 2.22884013,6.44200627 L2.22884013,6.44200627 Z" id="Shape" fill="#FCB97E"></path>
                    <path d="M2.22884013,6.44200627 C2.47335423,6.37617555 2.84952978,6.45141066 2.93416928,6.64890282 L3.20689655,5.84012539 C3.02821317,5.54858934 2.56739812,5.68025078 2.56739812,5.68025078 L2.48275862,5.85893417 L2.21943574,6.44200627 C2.21943574,6.44200627 2.21943574,6.44200627 2.22884013,6.44200627 L2.22884013,6.44200627 Z" id="Shape" fill="#FFEEB7"></path>
                    <path d="M3.19749216,5.84012539 L2.92476489,6.64890282 C3.12225705,6.4984326 3.54545455,6.79937304 3.59247649,6.8369906 L3.59247649,6.8369906 L3.77115987,6.2539185 L3.81818182,6.09404389 C3.64890282,5.84952978 3.46081505,5.80250784 3.33855799,5.81191223 C3.28213166,5.81191223 3.22570533,5.830721 3.19749216,5.84012539 L3.19749216,5.84012539 Z" id="Shape" fill="#FAF9D5"></path>
                    <path d="M0.00940438871,2.10658307 C0.0376175549,2.67084639 0.686520376,3.12225705 0.686520376,3.12225705 C0.686520376,3.12225705 0.968652038,3.10344828 1.10031348,3.31034483 C1.31661442,3.14106583 1.84326019,3.21630094 1.84326019,3.21630094 C1.92789969,3.24451411 2.0031348,3.28213166 2.07836991,3.33855799 C2.37931034,3.57366771 2.52978056,3.87460815 2.56739812,4.24137931 C2.5862069,4.46708464 2.56739812,4.86206897 2.23824451,5.37931034 C2.22884013,5.39811912 2.18181818,5.46394984 2.18181818,5.47335423 C2.22884013,5.51097179 2.30407524,5.37931034 2.3322884,5.36050157 C2.37931034,5.45454545 2.25705329,5.5862069 2.21943574,5.67084639 C2.18181818,5.80250784 2.31347962,5.65203762 2.36990596,5.60501567 C2.35109718,5.66144201 2.25705329,5.76489028 2.31347962,5.77429467 C2.36990596,5.78369906 2.55799373,5.52978056 2.61442006,5.37931034 C2.99059561,4.52351097 2.98119122,3.77115987 2.43573668,3.10344828 C2.29467085,2.93416928 2.09717868,2.830721 1.89968652,2.77429467 C1.78683386,2.72727273 1.65517241,2.68965517 1.51410658,2.66144201 C1.49529781,2.64263323 1.48589342,2.52978056 1.48589342,2.40752351 L1.48589342,2.14420063 C1.67398119,2.02194357 1.70219436,1.77742947 1.60815047,1.81504702 L1.56112853,1.85266458 L1.15673981,1.72100313 C1.14733542,1.79623824 1.10971787,1.92789969 1.02507837,1.90909091 C0.940438871,1.89968652 0.94984326,1.75862069 0.968652038,1.68338558 L0.912225705,1.6645768 C0.893416928,1.73981191 0.846394984,1.79623824 0.771159875,1.8338558 C0.761755486,1.8338558 0.761755486,1.84326019 0.752351097,1.84326019 C0.752351097,1.89028213 0.884012539,1.97492163 0.884012539,1.97492163 C0.818181818,2.26645768 1.02507837,2.3322884 1.17554859,2.30407524 C1.17554859,2.3322884 1.11912226,2.67084639 1.11912226,2.67084639 C0.780564263,2.63322884 0.517241379,2.40752351 0.44200627,2.11598746 C0.338557994,1.7492163 0.385579937,1.4200627 0.5830721,1.10031348 C0.620689655,1.03448276 0.677115987,0.94984326 0.761755486,0.865203762 C0.912225705,0.705329154 1.14733542,0.526645768 1.52351097,0.376175549 C1.54231975,0.36677116 1.61755486,0.338557994 1.62695925,0.329153605 C1.60815047,0.272727273 1.47648903,0.338557994 1.43887147,0.329153605 C1.45768025,0.225705329 1.63636364,0.188087774 1.71159875,0.150470219 C1.81504702,0.065830721 1.62695925,0.103448276 1.55172414,0.112852665 C1.59874608,0.0846394984 1.73981191,0.0564263323 1.70219436,0.0188087774 C1.6645768,-0.0188087774 1.36363636,0.0752351097 1.22257053,0.159874608 C0.865203762,0.36677116 0.573667712,0.601880878 0.376175549,0.87460815 C0.112852665,1.22257053 -0.00940438871,1.61755486 0.00940438871,2.10658307 L0.00940438871,2.10658307 Z" id="Shape" fill="#F79451"></path>
                    <path id="Shape" fill="#F79451" d="M0.664263323,5.1630094 C0.639263323,5.11598746 0.614263323,5.05015674 0.564263323,4.98432602 C0.589263323,5.04075235 0.639263323,5.09717868 0.664263323,5.1630094 L0.664263323,5.1630094 Z"></path>
                    <path d="M1.07210031,3.4984326 C0.752351097,3.69592476 0.545454545,3.69592476 0.545454545,3.6677116 C0.479623824,4.03448276 0.470219436,4.38244514 0.536050157,4.80564263 C0.545454545,4.75862069 1.15673981,4.5799373 1.80564263,4.68338558 L1.80564263,4.68338558 C1.73981191,4.43887147 1.69278997,4.14733542 1.69278997,3.98746082 C1.69278997,3.94984326 1.70219436,3.88401254 1.72100313,3.80877743 C1.68338558,3.79937304 1.30721003,3.7523511 1.07210031,3.4984326 L1.07210031,3.4984326 Z" id="Shape" fill="#F79451"></path>
                    <path d="M1.6645768,8.46394984 C1.6645768,8.42633229 1.67398119,8.38871473 1.67398119,8.35109718 C1.68338558,8.20062696 1.69278997,8.08777429 1.69278997,8.06896552 C1.72100313,7.75862069 2.08777429,5.49216301 1.90909091,5.04075235 C1.89968652,5.02194357 1.89028213,4.99373041 1.88087774,4.96551724 L1.88087774,4.96551724 C1.81504702,4.9184953 1.21316614,5.28526646 1.18495298,5.54858934 C1.26959248,6.01880878 1.28840125,6.8369906 1.29780564,7.63636364 C1.23197492,7.48589342 1.17554859,7.34482759 1.15673981,7.24137931 C1.11912226,7.00626959 1.11912226,5.82131661 1.18495298,5.55799373 C1.18495298,5.55799373 0.705329154,5.38871473 0.601880878,5.1630094 C0.545454545,5.70846395 0.460815047,6.60188088 0.677115987,7.35423197 C0.761755486,7.64576803 1.05329154,8.11598746 1.30721003,8.47335423 C1.30721003,8.75548589 1.31661442,8.89655172 1.32601881,9.03761755 C1.32601881,9.09404389 1.3354232,9.15047022 1.34482759,9.21630094 C1.36363636,9.39498433 1.29780564,9.95924765 1.32601881,10.137931 C1.4200627,10.1755486 1.62695925,9.97805643 1.63636364,9.91222571 C1.6645768,9.82758621 1.61755486,9.42319749 1.61755486,9.31034483 C1.61755486,9.28213166 1.62695925,9.17868339 1.63636364,9.04702194 L1.63636364,8.98119122 C1.64576803,9 1.6645768,9.02821317 1.67398119,9.04702194 C1.81504702,9.28213166 2.01253918,9.53605016 2.11598746,9.68652038 C2.11598746,9.68652038 2.31347962,9.69592476 2.15360502,9.40438871 C2.05956113,9.23510972 2.02194357,9.12225705 2.01253918,9.03761755 C1.99373041,8.93416928 2.01253918,8.86833856 1.99373041,8.79310345 C1.95611285,8.63322884 1.79623824,8.68025078 1.6645768,8.46394984 L1.6645768,8.46394984 Z" id="Shape" fill="#F79451"></path>
                    <path d="M0.987460815,1.62695925 L1.17554859,1.65517241 L1.59874608,1.80564263 C1.6645768,1.62695925 1.64576803,1.39184953 1.32601881,1.26959248 C1.0815047,1.18495298 0.959247649,1.37304075 0.940438871,1.59874608 L0.940438871,1.61755486 C0.940438871,1.61755486 0.940438871,1.61755486 0.940438871,1.62695925 L0.987460815,1.62695925 L0.987460815,1.62695925 Z" id="Shape" fill="#F79451"></path>
                    <path d="M1.10031348,3.30094044 C0.968652038,3.10344828 0.686520376,3.11285266 0.686520376,3.11285266 C0.686520376,3.11285266 0.686520376,3.11285266 0.686520376,3.12225705 C0.677115987,3.15047022 0.648902821,3.23510972 0.620689655,3.33855799 C0.5830721,3.47021944 0.545454545,3.62068966 0.545454545,3.65830721 L0.545454545,3.65830721 C0.545454545,3.68652038 0.752351097,3.69592476 1.07210031,3.48902821 C1.30721003,3.74294671 1.68338558,3.78056426 1.72100313,3.78996865 L1.72100313,3.78996865 L1.84326019,3.20689655 C1.85266458,3.21630094 1.31661442,3.13166144 1.10031348,3.30094044 L1.10031348,3.30094044 Z" id="Shape" fill="#1C5678"></path>
                    <path d="M0.536050157,4.80564263 L0.536050157,4.80564263 C0.545454545,4.86206897 0.554858934,4.92789969 0.564263323,4.98432602 C0.573667712,5.05015674 0.592476489,5.10658307 0.601880878,5.1630094 C0.714733542,5.38871473 1.18495298,5.55799373 1.18495298,5.55799373 C1.22257053,5.29467085 1.81504702,4.92789969 1.88087774,4.97492163 L1.88087774,4.97492163 C1.88087774,4.93730408 1.80564263,4.69278997 1.79623824,4.68338558 L1.79623824,4.68338558 C1.15673981,4.5799373 0.536050157,4.75862069 0.536050157,4.80564263 L0.536050157,4.80564263 Z" id="Shape" fill="#1C5678"></path>
                    <path id="Shape" fill="#333333" d="M0.780564263,1.84326019 C0.855799373,1.79623824 0.902821317,1.73981191 0.921630094,1.67398119 L0.978056426,1.69278997 C0.968652038,1.76802508 0.94984326,1.89968652 1.03448276,1.9184953 C1.11912226,1.92789969 1.14733542,1.80564263 1.1661442,1.73040752 L1.57053292,1.86206897 L1.61755486,1.82445141 L1.61755486,1.82445141 L1.59874608,1.80564263 L1.17554859,1.65517241 L0.987460815,1.62695925 L0.921630094,1.61755486 C0.921630094,1.61755486 0.921630094,1.61755486 0.921630094,1.60815047 L0.827586207,1.59874608 L0.771159875,1.59874608 C0.771159875,1.59874608 0.724137931,1.76802508 0.780564263,1.84326019 L0.780564263,1.84326019 Z"></path>
                    <path d="M2.94357367,1.58934169 C3.00940439,1.52351097 3.0846395,1.42946708 3.06583072,1.3354232 C2.93416928,1.44827586 2.7460815,1.38244514 2.7460815,1.38244514 C2.82131661,1.37304075 2.89655172,1.26018809 2.89655172,1.26018809 C2.7460815,1.26018809 2.39811912,1.32601881 2.11598746,0.987460815 C2.06896552,0.940438871 1.99373041,0.87460815 1.89028213,0.836990596 C1.72100313,0.771159875 1.50470219,0.742946708 1.28840125,0.855799373 C1.1661442,0.912225705 1.04388715,1.01567398 0.931034483,1.18495298 C0.846394984,1.31661442 0.808777429,1.46708464 0.827586207,1.60815047 L0.921630094,1.61755486 L0.921630094,1.59874608 C0.940438871,1.37304075 1.07210031,1.23197492 1.30721003,1.3354232 C1.63636364,1.47648903 1.59874608,1.59874608 1.5799373,1.80564263 L1.60815047,1.81504702 L1.60815047,1.81504702 C1.69278997,1.76802508 1.67398119,2.02194357 1.48589342,2.14420063 L1.48589342,2.40752351 C1.7492163,2.53918495 2.05015674,2.59561129 2.36050157,2.55799373 C3.09404389,2.45454545 3.27272727,2.12539185 3.36677116,1.75862069 L3.36677116,1.7492163 C3.29153605,1.84326019 3.19749216,1.89028213 3.0846395,1.9184953 C3.0846395,1.9184953 3.37617555,1.73981191 3.42319749,1.51410658 L3.39498433,1.40125392 C3.22570533,1.54231975 2.94357367,1.58934169 2.94357367,1.58934169 L2.94357367,1.58934169 Z" id="Shape" fill="#F1658A"></path>
                </g>
            </g>
            <g id="holiday-07" transform="translate(18.526646, 2.445141)" sketch:type="MSShapeGroup">
                <path d="M4.89968652,9.52664577 L0.235109718,8.95297806 L0.0188087774,0.0564263323 L5.18181818,0.338557994 L4.89968652,9.52664577 Z" id="Shape" fill="#2B84B7"></path>
                <g id="Group" transform="translate(0.470219, 0.282132)">
                    <path d="M1.53291536,6.73354232 C1.54231975,6.40438871 2.31347962,5.20062696 2.31347962,5.20062696 C1.97492163,5.21003135 2.03134796,4.5799373 1.47648903,4.50470219 C1.36363636,4.79623824 0.836990596,6.15987461 0.836990596,6.53605016 C0.836990596,6.86520376 1.28840125,7.98432602 1.4200627,8.47335423 C1.43887147,8.52978056 1.44827586,8.5862069 1.44827586,8.62382445 C1.48589342,8.97178683 1.40125392,9.17868339 1.41065831,9.47962382 C1.41065831,9.56426332 1.73040752,9.67711599 1.82445141,9.61128527 C1.89968652,9.11285266 1.85266458,8.65203762 1.85266458,8.65203762 C1.84326019,8.5862069 1.8338558,8.52037618 1.82445141,8.45454545 C1.72100313,7.85266458 1.52351097,7.02507837 1.53291536,6.73354232 L1.53291536,6.73354232 Z" id="Shape" fill="#F79451"></path>
                    <path d="M3.09404389,4.48589342 C2.49216301,4.56112853 2.65203762,5.19122257 2.31347962,5.20062696 C2.59561129,6.03761755 2.75548589,6.23510972 2.87774295,6.82758621 C2.92476489,7.06269592 2.89655172,7.89028213 2.87774295,8.38871473 C2.87774295,8.52037618 2.86833856,8.63322884 2.86833856,8.69905956 C2.86833856,8.69905956 2.76489028,9.63009404 2.830721,9.69592476 C2.88714734,9.77115987 3.20689655,9.60188088 3.23510972,9.51724138 C3.26332288,9.40438871 3.27272727,8.830721 3.24451411,8.75548589 C3.24451411,8.75548589 3.27272727,8.59561129 3.31974922,8.36990596 C3.40438871,7.89968652 3.52664577,7.12852665 3.50783699,6.64890282 C3.4984326,6.36677116 3.169279,4.97492163 3.09404389,4.48589342 L3.09404389,4.48589342 Z" id="Shape" fill="#F79451"></path>
                    <path d="M4.03448276,0.545454545 C3.72413793,0.460815047 3.02821317,0.564263323 2.68025078,0.639498433 C2.68025078,0.73354232 2.66144201,0.827586207 2.64263323,0.912225705 C2.84952978,0.902821317 3.39498433,0.846394984 3.45141066,0.959247649 C3.51724138,1.0815047 2.90595611,1.64576803 2.62382445,1.76802508 L2.40752351,1.78683386 C2.4169279,1.71159875 2.40752351,1.62695925 2.38871473,1.54231975 C2.5015674,1.44827586 2.55799373,1.26959248 2.56739812,1.07210031 C2.57680251,0.987460815 2.57680251,0.893416928 2.56739812,0.808777429 C2.5862069,0.799373041 2.60501567,0.771159875 2.61442006,0.742946708 C2.65203762,0.648902821 2.62382445,0.517241379 2.56739812,0.526645768 C2.55799373,0.592476489 2.52978056,0.724137931 2.49216301,0.714733542 C2.43573668,0.705329154 2.52037618,0.545454545 2.45454545,0.404388715 C2.38871473,0.263322884 2.26645768,0.385579937 2.14420063,0.385579937 C2.02194357,0.385579937 1.89968652,0.253918495 1.8338558,0.376175549 C1.76802508,0.498432602 1.81504702,0.761755486 1.75862069,0.742946708 C1.72100313,0.73354232 1.72100313,0.667711599 1.72100313,0.601880878 C1.61755486,0.498432602 1.59874608,0.695924765 1.6645768,0.799373041 C1.67398119,0.818181818 1.69278997,0.836990596 1.71159875,0.846394984 C1.71159875,0.940438871 1.71159875,1.03448276 1.73040752,1.11912226 C1.75862069,1.30721003 1.8338558,1.46708464 1.95611285,1.55172414 C1.94670846,1.62695925 1.94670846,1.71159875 1.95611285,1.78683386 L1.70219436,1.78683386 C1.41065831,1.69278997 0.742946708,1.26959248 0.761755486,1.0815047 C0.780564263,0.921630094 1.36363636,0.921630094 1.62695925,0.940438871 C1.59874608,0.855799373 1.5799373,0.761755486 1.5799373,0.677115987 C1.28840125,0.630094044 0.827586207,0.592476489 0.498432602,0.648902821 C0.310344828,0.677115987 0.159874608,0.742946708 0.103448276,0.846394984 C2.08166817e-16,1.02507837 0.225705329,1.35423197 0.470219436,1.6645768 C0.686520376,1.92789969 0.931034483,2.17241379 0.996865204,2.26645768 C1.09090909,2.4169279 1.35423197,3.35736677 1.44827586,3.98746082 C1.49529781,3.9968652 1.80564263,4.09090909 2.25705329,4.06269592 C2.75548589,4.02507837 3.06583072,3.91222571 3.06583072,3.91222571 L3.06583072,3.91222571 C3.07523511,3.26332288 3.169279,2.36990596 3.32915361,2.14420063 C3.47021944,1.94670846 3.82758621,1.48589342 4.03448276,1.10971787 C4.13793103,0.921630094 4.20376176,0.761755486 4.17554859,0.65830721 C4.17554859,0.601880878 4.11912226,0.573667712 4.03448276,0.545454545 L4.03448276,0.545454545 Z M2.40752351,1.09090909 C2.26645768,1.09090909 2.21003135,0.931034483 2.20062696,0.846394984 L2.11598746,0.846394984 C2.10658307,0.931034483 2.06896552,1.11912226 1.92789969,1.11912226 C1.73040752,1.11912226 1.7492163,0.808777429 1.7492163,0.808777429 L2.04075235,0.799373041 L2.06896552,0.799373041 L2.12539185,0.799373041 L2.19122257,0.799373041 L2.19122257,0.799373041 L2.55799373,0.789968652 C2.55799373,0.789968652 2.59561129,1.09090909 2.40752351,1.09090909 L2.40752351,1.09090909 Z M1.64576803,2.65203762 C1.59874608,2.65203762 1.56112853,2.61442006 1.55172414,2.56739812 C1.55172414,2.52037618 1.58934169,2.48275862 1.63636364,2.47335423 C1.68338558,2.47335423 1.72100313,2.51097179 1.73040752,2.55799373 C1.73040752,2.60501567 1.69278997,2.64263323 1.64576803,2.65203762 L1.64576803,2.65203762 Z M2.73667712,2.51097179 C2.73667712,2.55799373 2.69905956,2.59561129 2.65203762,2.60501567 C2.60501567,2.60501567 2.56739812,2.56739812 2.55799373,2.52037618 C2.55799373,2.47335423 2.59561129,2.43573668 2.64263323,2.42633229 C2.69905956,2.42633229 2.73667712,2.46394984 2.73667712,2.51097179 L2.73667712,2.51097179 Z" id="Shape" fill="#F79451"></path>
                    <path d="M2.21003135,0.065830721 C1.77742947,0.0376175549 1.58934169,0.347962382 1.58934169,0.677115987 C1.58934169,0.771159875 1.60815047,0.855799373 1.63636364,0.940438871 C1.6645768,1.00626959 1.69278997,1.07210031 1.73981191,1.13793103 C1.72100313,1.05329154 1.72100313,0.959247649 1.72100313,0.865203762 C1.70219436,0.855799373 1.68338558,0.836990596 1.67398119,0.818181818 C1.60815047,0.714733542 1.62695925,0.526645768 1.73040752,0.620689655 C1.73040752,0.686520376 1.73040752,0.752351097 1.76802508,0.761755486 C1.82445141,0.780564263 1.78683386,0.517241379 1.84326019,0.394984326 C1.90909091,0.272727273 2.03134796,0.404388715 2.15360502,0.404388715 C2.27586207,0.404388715 2.39811912,0.272727273 2.46394984,0.423197492 C2.52978056,0.564263323 2.45454545,0.724137931 2.5015674,0.73354232 C2.53918495,0.742946708 2.56739812,0.611285266 2.57680251,0.545454545 C2.63322884,0.536050157 2.66144201,0.677115987 2.62382445,0.761755486 C2.61442006,0.789968652 2.59561129,0.808777429 2.57680251,0.827586207 C2.5862069,0.912225705 2.5862069,1.00626959 2.57680251,1.09090909 C2.60501567,1.03448276 2.62382445,0.978056426 2.64263323,0.921630094 C2.67084639,0.836990596 2.68025078,0.742946708 2.68025078,0.648902821 C2.68025078,0.347962382 2.55799373,0.0846394984 2.21003135,0.065830721 L2.21003135,0.065830721 Z" id="Shape" fill="#83C882"></path>
                    <path d="M1.47648903,4.50470219 C2.03134796,4.5799373 1.97492163,5.21003135 2.31347962,5.20062696 C2.65203762,5.19122257 2.49216301,4.56112853 3.09404389,4.48589342 C3.0846395,4.40125392 3.07523511,3.92163009 3.07523511,3.90282132 L3.07523511,3.90282132 C3.07523511,3.90282132 2.76489028,4.02507837 2.26645768,4.05329154 C1.80564263,4.0815047 1.49529781,3.9968652 1.45768025,3.97805643 L1.44827586,3.97805643 C1.47648903,4.17554859 1.47648903,4.42946708 1.47648903,4.50470219 L1.47648903,4.50470219 Z" id="Shape" fill="#1C5678"></path>
                    <circle id="Oval" fill="#DB7229" cx="1.63636364" cy="2.55799373" r="0.0846394984"></circle>
                    <circle id="Oval" fill="#DB7229" cx="2.65203762" cy="2.51097179" r="0.0846394984"></circle>
                    <path id="Shape" fill="#333333" d="M2.55799373,0.789968652 L2.19122257,0.799373041 L2.19122257,0.799373041 L2.12539185,0.799373041 L2.06896552,0.799373041 L2.04075235,0.799373041 L1.7492163,0.808777429 C1.7492163,0.808777429 1.73040752,1.11912226 1.92789969,1.11912226 C2.07836991,1.11912226 2.10658307,0.940438871 2.11598746,0.846394984 L2.20062696,0.846394984 C2.21943574,0.931034483 2.26645768,1.09090909 2.40752351,1.09090909 C2.59561129,1.09090909 2.55799373,0.789968652 2.55799373,0.789968652 L2.55799373,0.789968652 Z"></path>
                </g>
            </g>
            <g id="holiday-06" transform="translate(25.203762, 0.000000)" sketch:type="MSShapeGroup">
                <path d="M4.75862069,10.2319749 L0.0846394984,10.5141066 L0.0846394984,0.44200627 L4.75862069,0.44200627 L4.75862069,10.2319749 Z" id="Shape" fill="#2B84B7"></path>
                <g id="Group" transform="translate(0.564263, 0.000000)">
                    <path d="M2.18181818,2.98119122 C2.21003135,3.01880878 2.22884013,3.09404389 2.23824451,3.15987461 C2.62382445,3.169279 2.96238245,3.0846395 3.10344828,3.03761755 C3.00940439,3 3,2.98119122 2.99059561,2.95297806 C3.0846395,2.94357367 3.14106583,2.92476489 3.17868339,2.87774295 C3.09404389,2.85893417 2.98119122,2.84012539 2.96238245,2.75548589 C3.05642633,2.72727273 3.35736677,2.68025078 3.44200627,2.65203762 C3.32915361,2.60501567 3.22570533,2.55799373 3.13166144,2.5015674 C2.88714734,2.67084639 2.52037618,2.830721 2.18181818,2.96238245 C2.17241379,2.97178683 2.18181818,2.98119122 2.18181818,2.98119122 L2.18181818,2.98119122 Z" id="Shape" fill="#8BC4E4"></path>
                    <path d="M1.75862069,1.73040752 C1.73981191,1.87147335 1.69278997,1.99373041 1.62695925,2.07836991 C1.63636364,2.21943574 1.65517241,2.36050157 1.68338558,2.36990596 C2.07836991,2.49216301 2.54858934,2.38871473 2.82131661,2.27586207 C2.52978056,2.0031348 2.37931034,1.68338558 2.26645768,1.40125392 C2.13479624,1.48589342 1.96551724,1.58934169 1.75862069,1.73040752 L1.75862069,1.73040752 Z" id="Shape" fill="#8BC4E4"></path>
                    <path id="Shape" fill="#8BC4E4" d="M1.26959248,2.12539185 C1.2507837,2.11598746 1.23197492,2.09717868 1.21316614,2.07836991 C1.13793103,2.10658307 1.07210031,2.12539185 1.00626959,2.13479624 C0.902821317,2.15360502 0.808777429,2.14420063 0.714733542,2.12539185 C0.724137931,2.1630094 0.73354232,2.19122257 0.752351097,2.21943574 C0.799373041,2.3322884 0.855799373,2.43573668 0.912225705,2.52978056 C1.0815047,2.43573668 1.26018809,2.38871473 1.26018809,2.38871473 L1.26959248,2.12539185 L1.26959248,2.12539185 Z"></path>
                    <path d="M2.57680251,9.85579937 C2.61442006,9.78996865 2.52037618,9.29153605 2.48275862,9.21630094 C2.46394984,9.15987461 2.3322884,8.01253918 2.22884013,7.39184953 C2.12539185,6.77115987 2.56739812,6.14106583 2.49216301,5.10658307 C2.36050157,4.94670846 1.8338558,5.22884013 1.70219436,5.73667712 L1.70219436,5.73667712 C1.72100313,6.23510972 1.64576803,7.0815047 1.75862069,7.54231975 C1.80564263,7.73981191 2.1630094,8.73667712 2.2476489,9.30094044 C2.25705329,9.62068966 2.23824451,9.80877743 2.25705329,9.98746082 C2.25705329,10.015674 2.25705329,10.0438871 2.26645768,10.0721003 C2.3322884,10.1285266 2.43573668,10.0532915 2.51097179,9.95924765 C2.53918495,9.92163009 2.56739812,9.88401254 2.57680251,9.85579937 L2.57680251,9.85579937 Z" id="Shape" fill="#F79451"></path>
                    <path id="Shape" fill="#F79451" d="M0.94984326,5.15292412 L0.94984326,5.2400209 L0.94984326,5.15292412 C0.94984326,5.12389187 0.94984326,5.15292412 0.94984326,5.15292412 L0.94984326,5.15292412 Z"></path>
                    <path d="M1.54231975,3.31974922 C1.26018809,3.7523511 0.94984326,3.46081505 0.921630094,3.43260188 L0.921630094,3.43260188 C0.940438871,3.89341693 0.959247649,4.67398119 0.94984326,5.01253918 C1.32601881,5.19122257 2.31347962,5.07836991 2.47335423,4.90909091 C2.45454545,4.4200627 2.31347962,3.8369906 2.22884013,3.36677116 L2.22884013,3.36677116 C2.21003135,3.39498433 1.81504702,3.6677116 1.54231975,3.31974922 L1.54231975,3.31974922 Z" id="Shape" fill="#F79451"></path>
                    <path d="M1.48589342,9.79937304 C1.48589342,9.70532915 1.43887147,7.67398119 1.43887147,7.62695925 C1.50470219,6.95924765 1.64576803,6.2539185 1.69278997,5.72727273 C1.58934169,5.38871473 1.26959248,5.02194357 0.94984326,5.19122257 C0.921630094,6.31034483 0.940438871,7.13793103 0.94984326,7.54231975 C0.959247649,7.95611285 1.20376176,9.27272727 1.23197492,9.77115987 C1.24137931,9.90282132 1.24137931,9.9968652 1.24137931,10.0815047 C1.24137931,10.2037618 1.23197492,10.2884013 1.26959248,10.4200627 C1.30721003,10.5517241 1.55172414,10.645768 1.60815047,10.6175549 C1.64576803,10.5987461 1.5799373,10.2884013 1.53291536,10.0532915 C1.50470219,9.93103448 1.48589342,9.8369906 1.48589342,9.79937304 L1.48589342,9.79937304 Z" id="Shape" fill="#F79451"></path>
                    <path d="M1.62695925,2.07836991 C1.69278997,1.99373041 1.7492163,1.88087774 1.75862069,1.73040752 C1.68338558,1.78683386 1.59874608,1.84326019 1.50470219,1.90909091 C1.40125392,1.98432602 1.30721003,2.03134796 1.21316614,2.06896552 C1.23197492,2.08777429 1.2507837,2.10658307 1.26959248,2.11598746 L1.26018809,2.37931034 L1.15673981,2.95297806 C1.26018809,2.95297806 1.38244514,2.99059561 1.54231975,3.14106583 C1.61755486,2.95297806 1.76802508,2.90595611 1.90909091,2.90595611 L1.68338558,2.35109718 C1.65517241,2.36050157 1.63636364,2.21943574 1.62695925,2.07836991 L1.62695925,2.07836991 Z" id="Shape" fill="#F79451"></path>
                    <path d="M0.912225705,2.52978056 C0.799373041,2.59561129 0.686520376,2.68025078 0.630094044,2.78369906 C0.394984326,3.09404389 0.0376175549,3.77115987 0.0282131661,4.26018809 C0.0188087774,4.82445141 0.319749216,5.56739812 0.44200627,5.90595611 C0.498432602,6.06583072 0.601880878,6.26332288 0.695924765,6.2539185 C0.705329154,6.23510972 0.630094044,6.15047022 0.592476489,6.03761755 C0.648902821,6.15047022 0.667711599,6.15987461 0.73354232,6.18808777 C0.724137931,6.12225705 0.601880878,5.89655172 0.677115987,5.84012539 C0.695924765,5.85893417 0.742946708,6.01880878 0.771159875,6.00940439 C0.799373041,6 0.761755486,5.77429467 0.648902821,5.56739812 C0.451410658,5.21943574 0.357366771,4.60815047 0.36677116,4.24137931 C0.376175549,3.87460815 0.846394984,3.09404389 0.912225705,3.10344828 L1.26959248,2.37931034 C1.26018809,2.38871473 1.0815047,2.43573668 0.912225705,2.52978056 L0.912225705,2.52978056 Z" id="Shape" fill="#F79451"></path>
                    <path d="M1.50470219,1.90909091 C1.59874608,1.84326019 1.67398119,1.78683386 1.75862069,1.73040752 C1.96551724,1.58934169 2.13479624,1.48589342 2.25705329,1.39184953 C2.34169279,1.3354232 2.40752351,1.28840125 2.46394984,1.24137931 L2.45454545,1.24137931 C2.1630094,1.31661442 1.84326019,1.38244514 1.5799373,1.56112853 C1.35423197,1.69278997 1.22257053,1.94670846 1.00626959,2.13479624 C1.07210031,2.12539185 1.13793103,2.10658307 1.21316614,2.07836991 C1.30721003,2.04075235 1.41065831,1.98432602 1.50470219,1.90909091 L1.50470219,1.90909091 Z" id="Shape" fill="#247899"></path>
                    <path d="M0.714733542,2.11598746 C0.799373041,2.13479624 0.902821317,2.14420063 1.00626959,2.12539185 C1.22257053,1.94670846 1.35423197,1.68338558 1.5799373,1.55172414 C1.85266458,1.36363636 2.1630094,1.30721003 2.45454545,1.23197492 C2.39811912,1.20376176 2.3322884,1.17554859 2.26645768,1.13793103 C2.2476489,1.12852665 2.17241379,1.10031348 2.1630094,1.0815047 C2.18181818,1.02507837 2.32288401,1.10031348 2.36050157,1.09090909 C2.34169279,0.978056426 2.17241379,0.931034483 2.08777429,0.884012539 C1.98432602,0.789968652 2.18181818,0.846394984 2.25705329,0.865203762 C2.21003135,0.827586207 2.06896552,0.789968652 2.11598746,0.752351097 C2.15360502,0.714733542 2.46394984,0.836990596 2.60501567,0.940438871 C2.61442006,0.940438871 2.61442006,0.94984326 2.62382445,0.94984326 C2.62382445,0.902821317 2.62382445,0.846394984 2.60501567,0.780564263 C2.59561129,0.742946708 2.5862069,0.705329154 2.57680251,0.667711599 C2.45454545,0.244514107 2.12539185,-0.103448276 1.24137931,0.0940438871 C0.536050157,0.244514107 0.244514107,0.573667712 0.150470219,0.921630094 C0.112852665,1.07210031 0.103448276,1.22257053 0.112852665,1.36363636 C0.131661442,1.6645768 0.357366771,2.03134796 0.714733542,2.11598746 L0.714733542,2.11598746 Z M1.22257053,0.564263323 C1.46708464,0.489028213 1.72100313,0.611285266 1.78683386,0.836990596 C1.85266458,1.06269592 0.978056426,1.3354232 0.902821317,1.10971787 C0.846394984,0.884012539 0.987460815,0.639498433 1.22257053,0.564263323 L1.22257053,0.564263323 Z" id="Shape" fill="#1C5678"></path>
                    <path d="M1.79623824,0.836990596 C1.73040752,0.611285266 1.47648903,0.489028213 1.23197492,0.564263323 C0.987460815,0.639498433 0.846394984,0.884012539 0.912225705,1.10971787 C0.978056426,1.3354232 1.86206897,1.06269592 1.79623824,0.836990596 L1.79623824,0.836990596 Z" id="Shape" fill="#247899"></path>
                    <path d="M2.11598746,0.761755486 C2.07836991,0.799373041 2.21943574,0.836990596 2.25705329,0.87460815 C2.18181818,0.855799373 1.98432602,0.799373041 2.08777429,0.893416928 C2.17241379,0.940438871 2.34169279,0.996865204 2.36050157,1.10031348 C2.32288401,1.10971787 2.19122257,1.03448276 2.1630094,1.09090909 C2.17241379,1.10971787 2.2476489,1.13793103 2.26645768,1.14733542 C2.3322884,1.17554859 2.39811912,1.21316614 2.45454545,1.24137931 L2.46394984,1.24137931 C2.52978056,1.26959248 2.5862069,1.30721003 2.63322884,1.34482759 C2.78369906,1.52351097 3.10344828,2.02194357 3.04702194,2.12539185 C3.02821317,2.1630094 2.94357367,2.21943574 2.82131661,2.26645768 C2.54858934,2.37931034 2.06896552,2.49216301 1.68338558,2.36050157 L2.18181818,2.97178683 L2.18181818,2.97178683 L2.18181818,2.95297806 C2.52037618,2.82131661 2.88714734,2.66144201 3.13166144,2.49216301 C3.23510972,2.4169279 3.31974922,2.3322884 3.36677116,2.2476489 C3.47021944,2.04075235 3.13166144,1.47648903 2.87774295,1.21316614 C2.81191223,1.11912226 2.69905956,0.996865204 2.62382445,0.940438871 C2.61442006,0.940438871 2.61442006,0.931034483 2.60501567,0.931034483 C2.46394984,0.836990596 2.1630094,0.714733542 2.11598746,0.761755486 L2.11598746,0.761755486 Z" id="Shape" fill="#F79451"></path>
                    <path d="M2.18181818,2.98119122 L1.68338558,2.36990596 L1.90909091,2.92476489 C1.76802508,2.92476489 1.60815047,2.97178683 1.54231975,3.15987461 C1.38244514,3.00940439 1.26018809,2.96238245 1.15673981,2.97178683 L1.26018809,2.39811912 L0.902821317,3.12225705 C0.902821317,3.12225705 0.836990596,3.31034483 0.921630094,3.43260188 L0.921630094,3.43260188 C0.94984326,3.46081505 1.26018809,3.7523511 1.54231975,3.31974922 C1.81504702,3.6677116 2.21003135,3.39498433 2.21943574,3.35736677 L2.21943574,3.35736677 C2.23824451,3.31034483 2.23824451,3.23510972 2.22884013,3.15987461 C2.22884013,3.09404389 2.21003135,3.02821317 2.18181818,2.98119122 L2.18181818,2.98119122 L2.18181818,2.98119122 Z" id="Shape" fill="#1C5678"></path>
                    <path d="M0.94984326,5.0031348 L0.94984326,5.13479624 L0.94984326,5.1630094 L0.94984326,5.18181818 L0.94984326,5.18181818 C1.27899687,5.01253918 1.58934169,5.37931034 1.69278997,5.71786834 L1.69278997,5.72727273 L1.69278997,5.72727273 C1.82445141,5.21943574 2.36050157,4.93730408 2.48275862,5.09717868 L2.48275862,5.09717868 C2.48275862,5.04075235 2.47335423,4.97492163 2.46394984,4.89028213 C2.31347962,5.06896552 1.32601881,5.18181818 0.94984326,5.0031348 L0.94984326,5.0031348 Z" id="Shape" fill="#1C5678"></path>
                </g>
            </g>
            <g id="holiday-05" transform="translate(2.351097, 7.617555) scale(-1, 1) translate(-2.351097, -7.617555) translate(0.000000, 2.445141)" sketch:type="MSShapeGroup">
                <path d="M4.32601881,9.5830721 L0.0188087774,9.70532915 L0.376175549,0.0376175549 L4.68338558,0 L4.32601881,9.5830721 Z" id="Shape" fill="#2B84B7"></path>
                <g id="Group" transform="translate(0.564263, 0.376176)">
                    <path id="Shape" fill="#F79451" d="M2.56739812,1.01567398 C2.5862069,1.00626959 2.60501567,1.00626959 2.60501567,0.987460815 C2.61442006,0.968652038 2.59561129,0.931034483 2.57680251,0.902821317 C2.57680251,0.865203762 2.57680251,0.818181818 2.56739812,0.771159875 C2.51097179,0.818181818 2.45454545,0.836990596 2.45454545,0.836990596 C2.36050157,0.667711599 2.30407524,0.789968652 2.3322884,0.912225705 C2.35109718,0.987460815 2.43573668,1.00626959 2.45454545,1.04388715 C2.46394984,1.07210031 2.40752351,1.22257053 2.3322884,1.31661442 C2.43573668,1.30721003 2.5015674,1.22257053 2.56739812,1.01567398 L2.56739812,1.01567398 Z"></path>
                    <path id="Shape" fill="#F79451" d="M2.30407524,1.65517241 L2.30407524,1.65517241 C2.29467085,1.58934169 2.29467085,1.48589342 2.28526646,1.39184953 C2.26645768,1.40125392 2.25705329,1.41065831 2.23824451,1.41065831 C2.15360502,1.42946708 2.07836991,1.42946708 2.01253918,1.4200627 L1.98432602,1.70219436 L1.99373041,1.62695925 L2.30407524,1.65517241 L2.30407524,1.65517241 Z"></path>
                    <path id="Shape" fill="#F79451" d="M1.4200627,2.68025078 L1.4200627,2.55799373 L1.4200627,2.68025078 L1.4200627,2.68025078 Z"></path>
                    <path d="M2.65203762,2.65203762 L2.65203762,2.65203762 C2.68025078,2.52978056 2.70846395,2.44514107 2.71786834,2.44514107 C2.77429467,2.43573668 3.18808777,3.19749216 3.17868339,3.53605016 C3.17868339,3.77115987 3.11285266,4.12852665 3.00940439,4.42946708 C2.96238245,4.56112853 2.9153605,4.67398119 2.84952978,4.77742947 C2.72727273,4.96551724 2.68025078,5.17241379 2.70846395,5.19122257 C2.73667712,5.20062696 2.78369906,5.05956113 2.80250784,5.04075235 C2.86833856,5.08777429 2.7460815,5.30407524 2.72727273,5.36050157 C2.78369906,5.34169279 2.80250784,5.32288401 2.85893417,5.21943574 C2.82131661,5.32288401 2.7460815,5.39811912 2.75548589,5.4169279 C2.84012539,5.43573668 2.95297806,5.2476489 3.00940439,5.09717868 C3.06583072,4.96551724 3.15047022,4.76802508 3.24451411,4.53291536 C3.35736677,4.22257053 3.47021944,3.86520376 3.47962382,3.55485893 C3.4984326,3.01880878 3.07523511,2.21943574 2.88714734,2.02194357 C2.69905956,1.81504702 2.35109718,1.75862069 2.31347962,1.73040752 L2.1630094,1.72100313 C2.21943574,1.79623824 2.31347962,1.96551724 2.26645768,2.05015674 C2.21943574,2.13479624 2.15360502,1.82445141 2.13479624,1.72100313 L2.11598746,1.72100313 C2.05956113,1.82445141 1.89968652,2.09717868 1.89028213,1.99373041 C1.89028213,1.89028213 2.01253918,1.77742947 2.07836991,1.72100313 L1.97492163,1.71159875 C1.97492163,1.71159875 1.49529781,1.7492163 1.32601881,1.97492163 C1.22257053,2.10658307 0.724137931,2.76489028 0.44200627,3.33855799 C0.432601881,3.36677116 0.413793103,3.39498433 0.404388715,3.42319749 C0.235109718,3.78996865 0.0376175549,4.8338558 0.065830721,5.17241379 C0.0752351097,5.31347962 0.131661442,5.38871473 0.178683386,5.39811912 C0.178683386,5.32288401 0.141065831,5.18181818 0.169278997,5.05956113 C0.197492163,5.36990596 0.235109718,5.39811912 0.244514107,5.36990596 C0.263322884,5.31347962 0.235109718,5.04075235 0.319749216,5.02194357 C0.329153605,5.05015674 0.347962382,5.1630094 0.404388715,5.18181818 C0.432601881,5.19122257 0.394984326,4.98432602 0.385579937,4.75862069 C0.357366771,4.38244514 0.536050157,3.82758621 0.73354232,3.47021944 C0.73354232,3.47021944 0.73354232,3.47021944 0.73354232,3.46081505 C0.931034483,3.10344828 1.30721003,2.63322884 1.40125392,2.55799373 C1.4200627,2.54858934 2.40752351,2.4169279 2.65203762,2.65203762 L2.65203762,2.65203762 Z" id="Shape" fill="#F79451"></path>
                    <path id="Shape" fill="#1C5678" d="M1.77742947,2.80250784 C1.76802508,2.92476489 1.8338558,2.90595611 1.8338558,2.90595611 L1.96551724,2.60501567 L1.99373041,2.60501567 C2.03134796,2.67084639 2.11598746,2.81191223 2.15360502,2.73667712 C2.18181818,2.68025078 2.13479624,2.64263323 2.08777429,2.61442006 C2.30407524,2.62382445 2.51097179,2.67084639 2.62382445,2.75548589 L2.62382445,2.75548589 L2.62382445,2.75548589 C2.62382445,2.7460815 2.63322884,2.69905956 2.64263323,2.66144201 L2.64263323,2.66144201 C2.39811912,2.42633229 1.41065831,2.56739812 1.41065831,2.56739812 L1.41065831,2.68965517 L1.41065831,2.68965517 C1.53291536,2.64263323 1.72100313,2.61442006 1.9184953,2.60501567 C1.86206897,2.63322884 1.78683386,2.70846395 1.77742947,2.80250784 L1.77742947,2.80250784 Z"></path>
                    <path id="Shape" fill="#1C5678" d="M1.89968652,1.97492163 C1.89968652,2.08777429 2.05956113,1.80564263 2.12539185,1.70219436 L2.14420063,1.70219436 C2.1630094,1.80564263 2.22884013,2.10658307 2.27586207,2.03134796 C2.32288401,1.94670846 2.22884013,1.78683386 2.17241379,1.70219436 L2.32288401,1.71159875 L2.30407524,1.63636364 L2.30407524,1.63636364 L2.0031348,1.59874608 L1.99373041,1.67398119 L2.09717868,1.68338558 C2.02194357,1.76802508 1.89968652,1.88087774 1.89968652,1.97492163 L1.89968652,1.97492163 Z"></path>
                    <path d="M1.64576803,0.752351097 C1.60815047,1.10031348 1.7492163,1.37304075 2.02194357,1.4200627 C2.08777429,1.42946708 2.1630094,1.42946708 2.2476489,1.41065831 C2.26645768,1.41065831 2.27586207,1.40125392 2.29467085,1.39184953 C2.31347962,1.38244514 2.3322884,1.36363636 2.34169279,1.34482759 C2.4169279,1.2507837 2.46394984,1.10031348 2.46394984,1.07210031 C2.45454545,1.03448276 2.36050157,1.01567398 2.34169279,0.940438871 C2.31347962,0.808777429 2.36050157,0.695924765 2.46394984,0.865203762 C2.46394984,0.865203762 2.52037618,0.846394984 2.57680251,0.799373041 C2.67084639,0.73354232 2.76489028,0.611285266 2.68965517,0.451410658 C2.65203762,0.36677116 2.57680251,0.272727273 2.42633229,0.159874608 C2.23824451,0.0188087774 2.03134796,0.0564263323 1.87147335,0.225705329 C1.81504702,0.159874608 1.73981191,0.122257053 1.67398119,0.112852665 C1.53291536,0.103448276 1.38244514,0.300940439 1.35423197,0.460815047 C1.35423197,0.479623824 1.34482759,0.498432602 1.34482759,0.517241379 C1.3354232,0.648902821 1.49529781,0.73354232 1.64576803,0.752351097 L1.64576803,0.752351097 Z" id="Shape" fill="#F1658A"></path>
                    <path d="M1.82445141,5.07836991 C1.58934169,5.34169279 1.10971787,5.21003135 1.11912226,4.8338558 C0.931034483,5.59561129 0.799373041,6.35736677 0.73354232,6.9968652 C0.667711599,7.60815047 0.667711599,8.20062696 0.592476489,8.62382445 C0.573667712,8.72727273 0.554858934,8.82131661 0.526645768,8.90595611 C0.432601881,8.96238245 0.423197492,9.12225705 0.44200627,9.15987461 C0.526645768,9.28213166 0.404388715,9.4984326 0.376175549,9.69592476 C0.357366771,9.81818182 0.479623824,9.87460815 0.536050157,9.85579937 C0.592476489,9.8369906 0.827586207,9.12225705 0.827586207,9.06583072 C0.827586207,9.04702194 0.865203762,8.87774295 0.912225705,8.64263323 C1.01567398,8.12539185 1.19435737,7.31661442 1.21316614,7.18495298 C1.29780564,6.60188088 1.67398119,5.49216301 1.82445141,5.07836991 L1.82445141,5.07836991 Z" id="Shape" fill="#F79451"></path>
                    <path d="M2.52037618,4.69278997 C2.52978056,4.95611285 2.52978056,5.07836991 2.53918495,5.13479624 C2.52978056,4.80564263 2.52037618,4.48589342 2.49216301,4.21316614 C2.48275862,4.11912226 2.47335423,4.03448276 2.46394984,3.95924765 C2.44514107,3.81818182 2.54858934,3.15047022 2.63322884,2.75548589 C2.51097179,2.67084639 2.31347962,2.62382445 2.09717868,2.61442006 C2.14420063,2.64263323 2.18181818,2.68025078 2.1630094,2.73667712 C2.12539185,2.81191223 2.04075235,2.67084639 2.0031348,2.60501567 L1.97492163,2.60501567 L1.84326019,2.90595611 C1.84326019,2.90595611 1.76802508,2.92476489 1.78683386,2.80250784 C1.79623824,2.70846395 1.87147335,2.63322884 1.92789969,2.60501567 C1.73040752,2.60501567 1.55172414,2.63322884 1.4200627,2.68965517 C1.4200627,2.99059561 1.44827586,3.50783699 1.42946708,3.7523511 C1.42946708,3.79937304 1.4200627,3.8369906 1.41065831,3.86520376 C1.3354232,4.0815047 1.26959248,4.31661442 1.20376176,4.54231975 C1.2507837,4.41065831 2.21943574,4.35423197 2.52037618,4.69278997 L2.52037618,4.69278997 Z" id="Shape" fill="#F79451"></path>
                    <path d="M1.98432602,9.26332288 C2.09717868,9.37617555 2.0031348,9.60188088 2.0031348,9.79937304 C2.0031348,9.92163009 2.13479624,9.95924765 2.18181818,9.92163009 C2.22884013,9.89341693 2.34169279,9.15047022 2.3322884,9.09404389 C2.3322884,9.07523511 2.34169279,8.87774295 2.36990596,8.62382445 C2.40752351,8.18181818 2.47335423,7.55172414 2.47335423,7.36363636 C2.48275862,7.15673981 2.53918495,6.11285266 2.52037618,5.14420063 C2.46394984,5.26645768 2.02194357,5.47335423 1.81504702,5.07836991 C1.9184953,5.48275862 2.0031348,7.14733542 2.01253918,7.32601881 C2.01253918,7.47648903 2.08777429,8.12539185 2.05956113,8.63322884 C2.05015674,8.77429467 2.04075235,8.89655172 2.01253918,9 C1.93730408,9.07523511 1.95611285,9.23510972 1.98432602,9.26332288 L1.98432602,9.26332288 Z" id="Shape" fill="#F79451"></path>
                    <path d="M2.53918495,5.12539185 C2.53918495,5.06896552 2.52978056,4.94670846 2.52037618,4.68338558 C2.21943574,4.34482759 1.2507837,4.40125392 1.20376176,4.53291536 L1.20376176,4.53291536 C1.19435737,4.57053292 1.17554859,4.63636364 1.13793103,4.75862069 C1.12852665,4.77742947 1.12852665,4.79623824 1.11912226,4.81504702 L1.11912226,4.81504702 C1.10971787,5.20062696 1.5799373,5.32288401 1.82445141,5.05956113 C2.03134796,5.46394984 2.48275862,5.2476489 2.52978056,5.12539185 L2.52978056,5.12539185 C2.53918495,5.14420063 2.53918495,5.13479624 2.53918495,5.12539185 L2.53918495,5.12539185 Z" id="Shape" fill="#1C5678"></path>
                </g>
            </g>
            <g id="holiday-04" transform="translate(6.394984, 0.000000)" sketch:type="MSShapeGroup">
                <path d="M4.62695925,10.3824451 L0.0188087774,10.3824451 L0.0188087774,0.329153605 L4.62695925,0.517241379 L4.62695925,10.3824451 Z" id="Shape" fill="#2B84B7"></path>
                <g id="Group" transform="translate(0.658307, 0.000000)">
                    <path d="M2.64263323,9.50783699 C2.64263323,9.50783699 3,8.25705329 2.97178683,7.55172414 C2.96238245,7.42946708 2.90595611,7.10031348 2.830721,6.73354232 C2.69905956,6.87460815 2.38871473,7.02507837 2.13479624,7.03448276 C2.21943574,7.2507837 2.28526646,7.44827586 2.34169279,7.73981191 C2.39811912,8.03134796 2.3322884,9.28213166 2.32288401,9.5830721 C2.32288401,9.5830721 2.28526646,9.92163009 2.2476489,10.184953 C2.23824451,10.2789969 2.21943574,10.3636364 2.21003135,10.4200627 C2.21943574,10.5987461 2.5862069,10.4200627 2.59561129,10.3354232 C2.5862069,10.2695925 2.5862069,10.2131661 2.59561129,10.1661442 C2.64263323,9.88401254 2.830721,9.78056426 2.64263323,9.50783699 L2.64263323,9.50783699 Z" id="Shape" fill="#F79451"></path>
                    <path id="Shape" fill="#F79451" d="M1.00626959,5.62037618 C1.05626959,5.59037618 1.05626959,5.56037618 1.10626959,5.52037618 C1.10626959,5.54037618 1.05626959,5.58037618 1.00626959,5.62037618 L1.00626959,5.62037618 Z"></path>
                    <path d="M1.36363636,7.68338558 C1.36363636,7.56112853 1.42946708,7.31661442 1.50470219,7.05329154 C1.26018809,7.04388715 0.968652038,6.96865204 0.808777429,6.81818182 C0.761755486,7.14733542 0.73354232,7.43887147 0.724137931,7.58934169 C0.724137931,7.95611285 1.00626959,9.169279 1.03448276,9.51724138 C0.846394984,9.87460815 0.978056426,9.80877743 1.10031348,10.2413793 C1.11912226,10.2978056 1.12852665,10.3636364 1.14733542,10.4388715 C1.19435737,10.5141066 1.40125392,10.5987461 1.51410658,10.4952978 C1.49529781,10.4106583 1.46708464,10.30721 1.44827586,10.2131661 C1.37304075,9.85579937 1.31661442,9.50783699 1.31661442,9.50783699 C1.2507837,8.93416928 1.35423197,8.01253918 1.36363636,7.68338558 L1.36363636,7.68338558 Z" id="Shape" fill="#F79451"></path>
                    <path id="Shape" fill="#F79451" d="M1.38244514,2.27586207 C1.42946708,2.28526646 1.48589342,2.23824451 1.51410658,2.1630094 C1.54231975,2.07836991 1.52351097,2.0031348 1.46708464,1.98432602 C1.41065831,1.96551724 1.38244514,2.04075235 1.35423197,2.12539185 C1.35423197,2.13479624 1.35423197,2.14420063 1.34482759,2.14420063 C1.32601881,2.03134796 1.30721003,1.90909091 1.30721003,1.78683386 C1.29780564,1.84326019 1.28840125,1.89968652 1.27899687,1.97492163 C1.24137931,2.26645768 1.30721003,2.51097179 1.52351097,2.57680251 C1.46708464,2.5015674 1.41065831,2.39811912 1.38244514,2.27586207 L1.38244514,2.27586207 Z"></path>
                    <path d="M2.17241379,1.5799373 C2.15360502,1.3354232 1.35423197,1.32601881 1.31661442,1.56112853 C1.30721003,1.63636364 1.30721003,1.71159875 1.30721003,1.78683386 C1.30721003,1.90909091 1.31661442,2.03134796 1.34482759,2.14420063 C1.34482759,2.13479624 1.34482759,2.13479624 1.35423197,2.12539185 C1.38244514,2.05015674 1.41065831,1.97492163 1.46708464,1.98432602 C1.52351097,2.0031348 1.54231975,2.07836991 1.51410658,2.1630094 C1.48589342,2.23824451 1.42946708,2.28526646 1.38244514,2.27586207 C1.4200627,2.39811912 1.46708464,2.5015674 1.52351097,2.56739812 C1.52351097,2.57680251 1.53291536,2.57680251 1.53291536,2.5862069 C1.5799373,2.64263323 1.63636364,2.67084639 1.69278997,2.66144201 C1.73981191,2.66144201 1.78683386,2.63322884 1.8338558,2.5862069 C2.03134796,2.39811912 2.19122257,1.85266458 2.17241379,1.5799373 L2.17241379,1.5799373 Z" id="Shape" fill="#8BC4E4"></path>
                    <path d="M1.50470219,7.05329154 L1.62695925,7.05329154 C1.7492163,6.86520376 1.80564263,6.61128527 1.86206897,6.52664577 C1.89968652,6.65830721 1.97492163,6.88401254 2.04075235,7.03448276 L2.13479624,7.03448276 C2.37931034,7.02507837 2.69905956,6.87460815 2.830721,6.73354232 C2.85893417,6.70532915 2.87774295,6.67711599 2.88714734,6.64890282 C2.87774295,6.56426332 2.59561129,5.42633229 2.59561129,5.42633229 C2.59561129,5.42633229 2.5862069,5.42633229 2.57680251,5.4169279 C2.51097179,5.37931034 2.2476489,5.26645768 1.82445141,5.29467085 C1.3354232,5.32288401 1.02507837,5.52037618 1.02507837,5.52037618 C1.01567398,5.55799373 1.01567398,5.5862069 1.00626959,5.61442006 C0.987460815,5.68965517 0.978056426,5.76489028 0.94984326,5.86833856 C0.87460815,6.15987461 0.752351097,6.4984326 0.714733542,6.62068966 C0.724137931,6.70532915 0.761755486,6.77115987 0.818181818,6.82758621 C0.968652038,6.97805643 1.26018809,7.04388715 1.50470219,7.05329154 L1.50470219,7.05329154 Z" id="Shape" fill="#1C5678"></path>
                    <path d="M0.780564263,3.19749216 C0.912225705,3.40438871 1.09090909,5.21003135 1.02507837,5.51097179 C1.02507837,5.51097179 1.32601881,5.32288401 1.82445141,5.28526646 C2.2476489,5.25705329 2.51097179,5.37931034 2.57680251,5.40752351 C2.51097179,4.93730408 2.35109718,3.48902821 2.52978056,3.17868339 C2.75548589,2.78369906 3.2539185,1.62695925 3.18808777,1.3354232 C3.13166144,1.07210031 2.35109718,0.705329154 2.03134796,0.705329154 L2.03134796,0.705329154 C1.92789969,0.686520376 1.70219436,0.677115987 1.61755486,0.695924765 C1.45768025,0.724137931 1.17554859,0.855799373 1.17554859,0.912225705 C1.17554859,0.968652038 1.29780564,0.893416928 1.34482759,0.884012539 C1.27899687,0.931034483 1.11912226,1.02507837 1.2507837,1.01567398 C1.3354232,0.987460815 1.48589342,0.902821317 1.57053292,0.968652038 C1.55172414,0.996865204 1.41065831,1.04388715 1.43887147,1.10031348 C1.44827586,1.10971787 1.52351097,1.07210031 1.54231975,1.06269592 C1.69278997,1.00626959 1.82445141,0.959247649 1.95611285,0.931034483 C2.1630094,0.94984326 2.77429467,1.14733542 2.79310345,1.51410658 C2.80250784,1.64576803 2.39811912,2.60501567 2.12539185,2.72727273 L1.85266458,2.76489028 C1.86206897,2.70846395 1.85266458,2.65203762 1.8338558,2.5862069 C1.78683386,2.63322884 1.73981191,2.65203762 1.69278997,2.66144201 C1.63636364,2.66144201 1.5799373,2.63322884 1.53291536,2.5862069 C1.52351097,2.66144201 1.51410658,2.72727273 1.51410658,2.78369906 L1.22257053,2.7460815 C0.931034483,2.64263323 0.479623824,1.85266458 0.507836991,1.67398119 C0.545454545,1.38244514 1.0815047,0.865203762 1.29780564,0.639498433 L1.29780564,0.639498433 C1.34482759,0.601880878 1.39184953,0.573667712 1.43887147,0.536050157 C1.51410658,0.489028213 1.58934169,0.44200627 1.67398119,0.394984326 C1.69278997,0.385579937 1.75862069,0.347962382 1.76802508,0.338557994 C1.73981191,0.29153605 1.61755486,0.36677116 1.5799373,0.357366771 C1.58934169,0.253918495 1.7492163,0.188087774 1.82445141,0.141065831 C1.9184953,0.0470219436 1.73040752,0.112852665 1.6645768,0.131661442 C1.70219436,0.0940438871 1.8338558,0.0470219436 1.78683386,0.00940438871 C1.7492163,-0.0282131661 1.46708464,0.103448276 1.3354232,0.21630094 C1.26959248,0.272727273 1.21316614,0.329153605 1.14733542,0.385579937 C1.06269592,0.44200627 0.978056426,0.507836991 0.893416928,0.592476489 C0.5830721,0.87460815 0.253918495,1.27899687 0.103448276,1.54231975 C-0.0846394984,1.88087774 0.648902821,3 0.780564263,3.19749216 L0.780564263,3.19749216 Z" id="Shape" fill="#F79451"></path>
                </g>
            </g>
        </g>
    </g>
</svg>