<?xml version="1.0" encoding="utf-8"?>
<!-- Generator: Adobe Illustrator 16.0.0, SVG Export Plug-In . SVG Version: 6.00 Build 0)  -->
<!DOCTYPE svg PUBLIC "-//W3C//DTD SVG 1.1//EN" "http://www.w3.org/Graphics/SVG/1.1/DTD/svg11.dtd">
<svg version="1.1" id="Layer_1" xmlns="http://www.w3.org/2000/svg" xmlns:xlink="http://www.w3.org/1999/xlink" x="0px" y="0px"
	 width="181.69px" height="193.006px" viewBox="0 0 181.69 193.006" enable-background="new 0 0 181.69 193.006"
	 xml:space="preserve">
<g>
	<defs>
		<path id="SVGID_1_" d="M88.558,117.141c4.5-3,7.801-7.699,3.2-20c-3.6-9.5-7.2-24.8-4.8-34.6s8.6-16.7,9.5-26.8
			c1.1-12.4-2.1-25-9-35.7c0,0-6.2-1-2.6,6.9c3.6,7.899,8.5,12.699-1.2,26.199c-9.8,13.5-18.6,24-14.7,37.301
			c3.9,13.199,11.4,15.8,16.7,25.199c4.3,7.7,6.7,15.5-5.2,20.601C59.658,125.341,84.058,120.141,88.558,117.141z"/>
	</defs>
	<clipPath id="SVGID_2_">
		<use xlink:href="#SVGID_1_"  overflow="visible"/>
	</clipPath>
	<rect x="63.012" y="-5" clip-path="url(#SVGID_2_)" fill="#EDE2BD" width="38.659" height="131.362"/>
</g>
</svg>
