<?xml version="1.0" encoding="utf-8"?>
<!-- Generator: Adobe Illustrator 16.0.0, SVG Export Plug-In . SVG Version: 6.00 Build 0)  -->
<!DOCTYPE svg PUBLIC "-//W3C//DTD SVG 1.1//EN" "http://www.w3.org/Graphics/SVG/1.1/DTD/svg11.dtd">
<svg version="1.1" id="Layer_1" xmlns="http://www.w3.org/2000/svg" xmlns:xlink="http://www.w3.org/1999/xlink" x="0px" y="0px"
	 width="181.69px" height="193.006px" viewBox="0 0 181.69 193.006" enable-background="new 0 0 181.69 193.006"
	 xml:space="preserve">
<path fill-rule="evenodd" clip-rule="evenodd" fill="#EDE2BD" d="M152.458,167.541c4.5-3-16.25-32.5-33-39.75
	c-9.323-4.035-27.9-23.427-25.5-33.227s-5.638-30.203-3.113-40.023c4.113-16,7.459-23.856-9.541-33.356
	c0,0-8.614-1.423-13.346,5.856c-6.5,10-1.3,8.5-11,22c-9.8,13.5-18.397,11.404-20.897,29.404
	c-1.894,13.633,0.629,33.658-4.603,43.096c-10,18.038-0.6,24.097-12.5,29.197C-1.842,159.838,147.958,170.541,152.458,167.541z"/>
</svg>
