<?xml version="1.0" encoding="UTF-8" standalone="no"?>
<svg width="30px" height="20px" viewBox="0 0 30 20" version="1.1" xmlns="http://www.w3.org/2000/svg" xmlns:xlink="http://www.w3.org/1999/xlink" xmlns:sketch="http://www.bohemiancoding.com/sketch/ns">
    <!-- Generator: Sketch 3.4 (15588) - http://www.bohemiancoding.com/sketch -->
    <title>wine_nederlands copy 2</title>
    <desc>Created with Sketch.</desc>
    <defs></defs>
    <g id="Page-1" stroke="none" stroke-width="1" fill="none" fill-rule="evenodd" sketch:type="MSPage">
        <g id="wine_nederlands-copy-2" sketch:type="MSLayerGroup">
            <g id="Group" sketch:type="MSShapeGroup">
                <path d="M21.463514,15.8262412 C22.8363685,16.6158208 25.2217034,17.959786 26.4229511,18.6485682 L26.4229511,18.6653678 C26.3543084,18.7829648 26.3886298,18.9341609 26.5087545,19.0013591 L27.5555562,19.6061435 C27.6413596,19.6565422 27.727163,19.6397426 27.7958057,19.6061435 L28.3277869,19.9085357 C28.6538398,20.0933309 29.0828569,19.9925335 29.2716244,19.6565422 L29.9065696,18.5981695 C30.0953371,18.2789778 29.992373,17.8589886 29.6491594,17.6741934 L29.1171782,17.3718012 C29.1171782,17.2878034 29.0656962,17.2038056 28.9970535,17.1702064 L27.9502518,16.5654221 C27.8301271,16.4982238 27.6756809,16.5318229 27.6070382,16.6494199 L27.6070382,16.6662195 C26.4057904,15.9774372 24.0204556,14.633472 22.647601,13.8438924 C17.9798955,11.1895609 20.6054798,7.67845164 13.6725642,4.40253627 C9.96585686,2.62178227 6.89409474,1.19381916 4.64604536,0.0850478029 C4.3199924,-0.0661482912 3.95961807,-0.0157495931 3.82233261,0.236243897 L0.0641432035,6.58647985 C-0.0903029366,6.83847334 0.0469825213,7.17446466 0.338714119,7.35925989 C2.43231735,8.72002473 5.31531197,10.6351753 8.62732364,12.8863171 C14.9424547,17.2206051 16.7958084,13.1719097 21.463514,15.8262412 L21.463514,15.8262412 Z" id="Shape" fill="#3D6F35"></path>
                <path d="M3.63662191,2.49733081 C5.78103257,3.68953918 8.69609081,5.2905047 12.2310177,7.23210117 C18.8150286,10.8598209 17.6087976,12.0520293 22.1656702,14.7259823 C23.1206031,15.2880234 23.3383948,14.8962978 22.3834619,14.3512883 C17.8098361,11.6773352 19.8369743,9.05447682 13.1524442,5.61410411 C9.56725763,3.77469692 6.60193977,2.25888914 4.4240227,1.11777542 C4.12246495,0.947459942 3.78740079,0.96449149 3.68688154,1.15183852 L3,2.36107843 C3.05025962,2.25888914 3.33506417,2.32701533 3.63662191,2.49733081 L3.63662191,2.49733081 Z" id="Shape" opacity="0.15" fill="#F1F1F2"></path>
                <path d="M27.572043,19.7073171 L28.1053763,20 L28.3290323,18.8292683 L29,18.5691057 C29,18.5691057 28.4494624,17.8699187 28.1225806,17.6910569 L28.8967742,17.5447154 C28.8967742,17.4634146 28.8451613,17.3821138 28.7763441,17.3495935 L27.7268817,16.7642276 C27.6064516,16.699187 27.4516129,16.7317073 27.3827957,16.8455285 L27.3827957,16.8617886 C26.1784946,16.195122 23.7870968,14.8943089 22.4107527,14.1300813 C22.3247312,14.0813008 22.255914,14.0487805 22.1870968,14 L21,15.9512195 C21.0688172,15.9837398 21.1548387,16.0325203 21.2236559,16.0813008 C22.6,16.8455285 24.9913978,18.1463415 26.1956989,18.8130081 L26.1956989,18.8292683 C26.1268817,18.9430894 26.1612903,19.0894309 26.2817204,19.1544715 L27.3311828,19.7398374 C27.4,19.7560976 27.5032258,19.7398374 27.572043,19.7073171 L27.572043,19.7073171 Z" id="Shape" fill="#F1B11F"></path>
                <path d="M10.5960366,4.07926658 C8.86890244,3.14055369 7.02439024,2.82234593 5.56554878,3.09282252 L3,7.26134418 C3.48628049,8.61372716 4.69359756,9.96611014 6.40396341,10.9207334 C8.13109756,11.8594463 9.97560976,12.1776541 11.4344512,11.9071775 L14,7.72274543 C13.5137195,6.38627284 12.3064024,5.01797947 10.5960366,4.07926658 L10.5960366,4.07926658 Z" id="Shape" fill="#E5DFDA"></path>
                <g transform="translate(5.000000, 5.000000)" fill="#5B4A42">
                    <path d="M7,3.22920002 L5.39578331,6 L5,5.77079998 L6.60421669,3 L7,3.22920002 L7,3.22920002 Z" id="Rectangle-path"></path>
                    <path d="M5,0.188906405 L2.38638764,4 L2,3.81109359 L4.61361236,0 L5,0.188906405 L5,0.188906405 Z" id="Rectangle-path"></path>
                    <path d="M7,1.37431737 L3.77770433,6 L3,5.62568263 L6.22229567,1 L7,1.37431737 L7,1.37431737 Z" id="Rectangle-path"></path>
                    <circle id="Oval" cx="1" cy="1" r="1"></circle>
                </g>
                <circle id="Oval" fill="#332D2F" cx="13.5" cy="9.5" r="1.5"></circle>
                <circle id="Oval" fill="#7C2A42" cx="13" cy="10" r="1"></circle>
            </g>
        </g>
    </g>
</svg>