<?xml version="1.0" encoding="utf-8"?>
<!-- Generator: Adobe Illustrator 19.1.0, SVG Export Plug-In . SVG Version: 6.00 Build 0)  -->
<svg version="1.1" id="Layer_1" xmlns="http://www.w3.org/2000/svg" xmlns:xlink="http://www.w3.org/1999/xlink" x="0px" y="0px"
	 viewBox="0 0 18 18" style="enable-background:new 0 0 18 18;" xml:space="preserve">
<style type="text/css">
	.st0{fill-rule:evenodd;clip-rule:evenodd;fill:#8BC4E4;}
	.st1{fill-rule:evenodd;clip-rule:evenodd;fill:#F6A61C;}
	.st2{fill-rule:evenodd;clip-rule:evenodd;fill:#F1658A;}
	.st3{fill-rule:evenodd;clip-rule:evenodd;fill:#83C882;}
</style>
<g>
	<path class="st3" d="M16,3.2l-0.7,0c-0.1-0.6-0.5-1.1-1.4-1.4c-1-0.3-2.4-0.5-4.8-0.5c-2.4,0-3.8,0.2-5,0.5C3.2,2,2.8,2.6,2.7,3.2
		L2,3.2c-0.2,0-0.4,0.2-0.4,0.4l0,3.7c0,0.2,0.2,0.4,0.4,0.4l0.5,0c0,3.2,0.2,6.6,0.2,6.6c0,0.1,0.1,0.3,0.1,0.4l0.2,0.4
		C3,15.3,3,15.5,3,15.6v0.9c0,0.1,0.1,0.2,0.2,0.2h1.8c0.1,0,0.2-0.1,0.2-0.2v-0.9c0-0.1,0.1-0.2,0.2-0.2c0,0,2.4,0.1,3.5,0.1
		c1.1,0,3.6-0.1,3.6-0.1c0.1,0,0.2,0.1,0.2,0.2v0.9c0,0.1,0.1,0.2,0.2,0.2h1.8c0.1,0,0.2-0.1,0.2-0.2v-0.9c0-0.1,0-0.3,0-0.4
		l0.1-0.5c0-0.1,0.1-0.3,0.1-0.4c0,0,0.2-3.4,0.2-6.5l0.5,0c0.2,0,0.4-0.2,0.4-0.4l0-3.7C16.4,3.4,16.3,3.2,16,3.2z M4.8,14.3
		c-0.5,0-1-0.4-1-1c0-0.5,0.4-1,1-1c0.5,0,1,0.4,1,1C5.7,13.8,5.3,14.3,4.8,14.3z M4,10.8c-0.1,0-0.2-0.1-0.2-0.3l0.1-7.3
		C3.8,3.1,3.9,3,4.1,3c0,0,2.3-0.4,4.9-0.4c2.8,0,4.9,0.4,4.9,0.4c0.1,0,0.2,0.1,0.2,0.3l0.1,7.3c0,0.1-0.1,0.2-0.2,0.3
		c0,0-1.5,0.3-5,0.3C5.8,11.1,4,10.8,4,10.8z M13.3,14.3c-0.5,0-1-0.4-1-1c0-0.5,0.4-1,1-1c0.5,0,1,0.4,1,1
		C14.2,13.8,13.8,14.3,13.3,14.3z"/>
</g>
</svg>
