<?xml version="1.0" encoding="utf-8"?>
<!-- Generator: Adobe Illustrator 19.1.0, SVG Export Plug-In . SVG Version: 6.00 Build 0)  -->
<svg version="1.1" id="Layer_1" xmlns="http://www.w3.org/2000/svg" xmlns:xlink="http://www.w3.org/1999/xlink" x="0px" y="0px"
	 viewBox="0 0 18 18" style="enable-background:new 0 0 18 18;" xml:space="preserve">
<style type="text/css">
	.st0{fill-rule:evenodd;clip-rule:evenodd;fill:#8BC4E4;}
	.st1{fill-rule:evenodd;clip-rule:evenodd;fill:#F6A61C;}
	.st2{fill-rule:evenodd;clip-rule:evenodd;fill:#F1658A;}
	.st3{fill-rule:evenodd;clip-rule:evenodd;fill:#83C882;}
</style>
<g>
	<path class="st0" d="M16,9.2c-0.3-1.2-1.7-3.6-1.8-3.8c-0.5-0.8-1.2-1.2-2.1-1.4c-1.9-0.3-4.8-0.2-5.9,0C5.2,4.2,4.4,4.6,3.9,5.4
		C3.7,5.7,2.9,7,2.4,8c-0.6,1.3-0.8,2.7-0.5,4.1C2,12.5,2.1,13,2.2,13.4c0,0.3,0,0.6,0,0.9c0,0.3,0.1,0.3,0.4,0.3c0.4,0,0.8,0,1.2,0
		c0.2,0,0.3-0.1,0.3-0.2c0-0.1,0-0.3,0-0.4c0-0.3,0-0.6,0-0.9c3.5,0.1,6.5,0.1,9.9,0c0,0.3,0,0.6,0,0.8c0,0.2,0,0.3,0,0.5
		c0,0.2,0.1,0.3,0.3,0.2c0.4,0,0.8,0,1.2,0c0.2,0,0.3-0.1,0.3-0.2c0-0.4,0-0.8,0-1.3c0-0.1,0-0.3,0-0.4C16.2,11.6,16.3,10.4,16,9.2z
		 M4,11.4c-0.6,0-1.1-0.4-1.1-1c0-0.6,0.5-1.1,1.1-1.1c0.6,0,1.1,0.5,1.1,1.1C5.1,10.9,4.6,11.4,4,11.4z M9.2,8.2
		c-1.8,0-5-0.1-5.2-0.3C3.8,7.8,4.3,6.1,5.1,5.4C5.4,5.2,5.9,5.1,6.3,5c1.6-0.3,2.9-0.3,4.5-0.1c0.5,0.1,0.8,0.1,1.3,0.2
		c0.4,0.1,0.8,0.3,1.1,0.7c0.6,0.7,1.3,2.2,1.1,2.3C13.9,8.2,10.9,8.2,9.2,8.2z M14,11.4c-0.6,0-1.1-0.5-1.1-1
		c0-0.6,0.5-1.1,1.1-1.1c0.6,0,1.1,0.5,1.1,1.1C15.1,10.9,14.6,11.4,14,11.4z"/>
</g>
</svg>
