<?xml version="1.0" encoding="utf-8"?>
<!-- Generator: Adobe Illustrator 19.1.0, SVG Export Plug-In . SVG Version: 6.00 Build 0)  -->
<svg version="1.1" id="Layer_1" xmlns="http://www.w3.org/2000/svg" xmlns:xlink="http://www.w3.org/1999/xlink" x="0px" y="0px"
	 viewBox="0 0 51.5 52.8" style="enable-background:new 0 0 51.5 52.8;" xml:space="preserve">
<style type="text/css">
	.st0{fill:none;stroke:#EAEAEA;stroke-miterlimit:10;}
	.st1{opacity:0.8;fill:#F3F3F3;}
	.st2{fill:#FFFFFF;}
	.st3{fill:#010101;}
	.st4{fill:#CE2428;}
	.st5{fill:#F9F9F8;}
	.st6{fill:#F5DEC5;}
	.st7{fill:#F59099;}
	.st8{fill:#1D1D1B;}
	.st9{fill:none;stroke:#FFFFFF;stroke-miterlimit:10;}
	.st10{fill:#8BC4E4;}
	.st11{fill:#FEFDF1;}
	.st12{fill:#F68C43;}
	.st13{fill:#CE5E27;}
	.st14{fill:#28BCB5;}
	.st15{fill:#EADC15;}
	.st16{fill:#DB1F26;}
	.st17{fill:#EF3A38;}
	.st18{fill:#FCB97E;}
	.st19{fill:#FFEEB7;}
	.st20{fill:#FAF9D5;}
	.st21{fill:#9FDBED;}
	.st22{fill:#83431D;}
	.st23{fill:#492B12;}
	.st24{fill:#FEE000;}
	.st25{fill:#F26A6B;}
	.st26{fill:#EE312F;}
	.st27{fill:#973820;}
	.st28{fill:#7366AD;}
	.st29{fill:#DB7229;}
	.st30{fill:#51C4C9;}
	.st31{opacity:0.54;}
	.st32{fill:#3BA3A3;}
	.st33{fill:#EE1D43;}
	.st34{fill-rule:evenodd;clip-rule:evenodd;fill:#2B84B7;}
	.st35{fill:none;stroke:#333333;stroke-miterlimit:10;}
	.st36{fill:#BDE4E6;}
	.st37{fill:#364A5E;}
	.st38{fill:#233240;}
	.st39{fill:#B41F34;}
	.st40{fill:#B41E40;}
	.st41{fill:#E7354C;}
	.st42{fill:#C82E47;}
	.st43{fill:#069B4F;}
	.st44{fill:#48423B;}
	.st45{fill:#31B66A;}
	.st46{fill:#20824D;}
	.st47{fill:#D28228;}
	.st48{fill:#EAB046;}
	.st49{fill:#EBAA46;}
	.st50{fill:#FFD25B;}
	.st51{fill:#DB8C31;}
	.st52{fill:#972821;}
	.st53{fill:#DA5927;}
	.st54{fill:#721912;}
	.st55{fill:#AB3424;}
	.st56{fill:#EC742E;}
	.st57{fill:#1B6F65;}
	.st58{fill:#24A58C;}
	.st59{fill:#18786F;}
	.st60{fill:#FEE5D2;}
	.st61{fill:#27A75A;}
	.st62{fill:#F6A61C;}
	.st63{fill:#189178;}
	.st64{fill:#91201D;}
	.st65{fill:#D92327;}
	.st66{fill:#A01D21;}
	.st67{fill:#EE372A;}
	.st68{opacity:0.51;fill-rule:evenodd;clip-rule:evenodd;fill:#2B84B7;}
	.st69{fill:#BB5D27;}
	.st70{fill:#793A19;}
	.st71{fill:#E48925;}
	.st72{fill:#E6ECEF;}
	.st73{fill:#F3C26D;}
	.st74{fill:#3C2415;}
	.st75{fill:#FAA21B;}
	.st76{fill:#BEB631;}
	.st77{fill:#F2E9D6;}
	.st78{fill:none;stroke:#DCD0BF;stroke-linecap:round;stroke-miterlimit:10;}
	.st79{fill:#879A3A;}
	.st80{fill:#731012;}
	.st81{fill:#D8A356;}
	.st82{fill:#986B4D;}
	.st83{fill:#BF8D62;}
	.st84{fill:#FFEFDC;}
	.st85{fill:#DEC37F;}
	.st86{fill:#E63B35;}
	.st87{fill:#694D32;}
	.st88{fill:#603A17;}
	.st89{fill:#482D14;}
	.st90{fill:#F89521;}
</style>
<circle class="st80" cx="25.6" cy="27.1" r="20.2"/>
<g>
	<g>
		<path class="st81" d="M39.3,8.4c-1.4-1.7-2.9-2.1-4.8-3.2c-2.9-1.6-6.5-2.6-9.7-1.7c-3.2,0.9-6.3,2.4-9.6,2.9c0,0-4.3,1.7-5.8,3.2
			c-1.6,1.5-2.8,3.4-4,5.3c-1.4,2.1-2.7,4.3-3.3,6.7c-0.4,1.8-0.4,3.8-0.3,5.7c0.1,1.6,0.1,3.3,0.5,4.9c0.7,2.7,2.4,5,4.1,7.2
			c3.8,4.6,8.6,8.9,14.5,9.9c2.5,0.4,5.1,0.2,7.7-0.1c4.5-0.6,9.3-1.8,12.4-5.1c0.8-0.9,3.8-5,4.6-5.9c1.3-1.4,4.9-8.8,4-13.5
			C47.8,15.1,44,14,39.3,8.4z M43.5,24.7c0.8,4.5-1.2,9.2-3.6,13.2c-1.1,1.9-2.7,2.9-4.5,4.1c-1.1,0.7-2.3,1.2-3.5,1.7
			c-1.4,0.6-2.8,1.1-4.2,1.3c-1.9,0.3-3.9-0.1-5.8-0.5c-1.7-0.3-2.5-0.9-4.1-1.7c-1.5-0.7-3.6-2.5-3.6-2.5c-1.2-2.3-3.1-4.1-4.6-6.1
			c-1.5-2.1-3.5-4.3-3.1-6.9c0.3-1.7,1.3-3.1,2.1-4.6c2.9-4.9,3.4-8.1,10-12.1c3.3-2,9-1.3,10.3-0.7c0.9,0.4,4.6,1.4,5.5,1.7
			c3.3,1.3,5.3,4.4,6.9,7.5C42.4,21,43.2,22.8,43.5,24.7z"/>
	</g>
</g>
<path class="st81" d="M41.1,35.8c-0.4-1.1-1.5-1.9-2.4-2.7c-1-0.9-2.1-1.9-3-2.9c0.3-0.2,1.3-1,1.5-1.3c0.7-0.8,0.3-2-0.4-2.6
	c-0.1-0.1-4.1-4.4-5.2-5.4c0,0,0-0.1-0.1-0.1c0,0,0,0,0,0c0.7-0.3,1.8-0.7,2.1-1.5c0.3-0.8,0-1.7-0.6-2.3c-0.7-0.6-1.4-1.2-2-1.8
	c-0.3-0.3-7-6.4-8.8-6.2c-1.9,0.3-3.9,4.1-4.9,6.3c-0.6,1.3-1.3,2.6-1.9,3.9c-0.5,0.9-1.3,2.3-1,3.4c0.3,1.5,1.6,1.1,3.3,1.3
	c-1.5,3.2-2,3.5-3.2,6.3c-0.3,0.6-1.1,2.2,0.4,2.9c0.7,0.3,1.4,0.4,2.2,0.5c-0.9,2.5-1.5,3.2-2.5,6.5c-0.5,1.4,0.5,2.5,3,2.7
	c3.6,0.3,5.6-1.9,9.9-2.9C33.5,38.5,42,38,41.1,35.8z"/>
</svg>
