<?xml version="1.0" encoding="utf-8"?>
<!-- Generator: Adobe Illustrator 19.1.0, SVG Export Plug-In . SVG Version: 6.00 Build 0)  -->
<svg version="1.1" id="Layer_1" xmlns="http://www.w3.org/2000/svg" xmlns:xlink="http://www.w3.org/1999/xlink" x="0px" y="0px"
	 viewBox="-344 386.7 249.7 27.3" style="enable-background:new -344 386.7 249.7 27.3;" xml:space="preserve">
<style type="text/css">
	.st0{fill:#89C3E4;}
</style>
<path class="st0" d="M-94.3,414.4v-12.7v-0.9v-13.1c-10.4,0-10.4,9.1-20.8,9.1c-10.4,0-10.4-9.1-20.8-9.1c-10.4,0-10.4,9.1-20.8,9.1
	c-10.3,0-10.3-9.1-20.7-9.1s-10.4,9.1-20.8,9.1c-10.4,0-10.4-9.1-20.8-9.1c-10.4,0-10.4,9.1-20.8,9.1c-10.3,0-10.3-9.1-20.6-9.1
	c-0.2,0-0.3,0-0.4,0l0,0c-10.3,0-10.4,8.9-20.6,9.1c-10.2-0.2-10.3-9.1-20.6-9.1l0,0c-0.2,0-0.3,0-0.5,0c-10.4,0-10.4,9.1-20.8,9.1
	c-10.3,0-10.3-9.1-20.7-9.1v13.1l0,0v13.6H-94.3z"/>
</svg>
