<?xml version="1.0" encoding="UTF-8" standalone="no"?>
<svg width="5px" height="4px" viewBox="0 0 5 4" version="1.1" xmlns="http://www.w3.org/2000/svg" xmlns:xlink="http://www.w3.org/1999/xlink" xmlns:sketch="http://www.bohemiancoding.com/sketch/ns">
    <!-- Generator: Sketch 3.4 (15588) - http://www.bohemiancoding.com/sketch -->
    <title>Group</title>
    <desc>Created with Sketch.</desc>
    <defs></defs>
    <g id="Page-1" stroke="none" stroke-width="1" fill="none" fill-rule="evenodd" sketch:type="MSPage">
        <g id="Group" sketch:type="MSLayerGroup">
            <path d="M3.09551719,0.526896543 C4.29420682,1.02744826 5.01868957,2.38420685 4.84744819,3.72779304 L4.87379302,3.74096545 C5.18993094,2.31834479 4.45227578,0.803517227 3.16137926,0.263448271 C1.87048273,-0.263448271 0.500551715,0.381999993 0.0131724136,1.73875859 L0.0395172407,1.751931 C0.619103437,0.566413783 1.89682755,0.0263448271 3.09551719,0.526896543 L3.09551719,0.526896543 Z" id="Shape" fill="#F89521" sketch:type="MSShapeGroup"></path>
            <g transform="translate(0.000000, 0.131724)" sketch:type="MSShapeGroup">
                <g transform="translate(0.131724, 0.131724)" id="Shape" fill="#F89521">
                    <path d="M2.38420685,2.4237241 L0.658620678,0.566413783 C0.395172407,0.803517227 0.18441379,1.10648274 0.0395172407,1.47531032 L2.39737927,2.45006892 L2.38420685,2.4237241 L2.38420685,2.4237241 Z"></path>
                    <path d="M3.05599995,0.250275858 C3.04282753,0.237103444 3.01648271,0.237103444 3.00331029,0.223931031 C2.14710341,-0.131724136 1.2645517,0.0395172407 0.658620678,0.566413783 L2.38420685,2.4237241 L3.05599995,0.250275858 L3.05599995,0.250275858 Z"></path>
                    <path d="M2.4237241,2.45006892 L2.43689651,2.41055168 L4.64986199,2.17344824 C4.45227578,1.34358618 3.87268959,0.59275861 3.05599995,0.237103444 L2.38420685,2.4237241 L2.39737927,2.43689651 L2.4237241,2.45006892 L2.4237241,2.45006892 Z"></path>
                    <path d="M4.64986199,2.17344824 L2.43689651,2.41055168 L2.4237241,2.45006892 L4.6630344,3.37213787 C4.7552413,2.97696547 4.74206888,2.56862064 4.64986199,2.17344824 L4.64986199,2.17344824 Z"></path>
                </g>
                <g fill="#FFFFFF">
                    <path d="M4.8606206,3.53020683 C4.9528275,3.13503443 4.93965509,2.70034478 4.83427578,2.29199996 C4.62351716,1.40944825 4.00441372,0.658620678 3.2008965,0.316137926 L3.2008965,0.316137926 C3.18772408,0.302965512 3.16137926,0.302965512 3.14820684,0.289793098 C2.30517237,-0.0526896543 1.39627584,0.0790344814 0.750827573,0.645448265 C0.474206888,0.895724122 0.250275858,1.21186205 0.118551722,1.58068963 L0.0922068949,1.6465517 L4.84744819,3.60924132 L4.8606206,3.53020683 L4.8606206,3.53020683 Z M0.250275858,1.56751721 C0.381999993,1.25137929 0.566413783,0.974758604 0.816689641,0.763999987 C1.42262066,0.223931031 2.30517237,0.105379309 3.09551719,0.434689648 C3.1086896,0.447862061 3.13503443,0.447862061 3.14820684,0.461034475 L3.14820684,0.461034475 C3.91220683,0.803517227 4.50496544,1.50165515 4.70255164,2.34468961 C4.79475854,2.70034478 4.80793095,3.08234477 4.74206888,3.43799994 L0.250275858,1.56751721 L0.250275858,1.56751721 Z" id="Shape"></path>
                    <path id="Rectangle-path" d="M2.55461442,2.48036679 L4.7676181,2.2383856 L4.78336835,2.38242726 L2.57036467,2.62440845 L2.55461442,2.48036679 L2.55461442,2.48036679 Z"></path>
                    <path d="M3.24041374,0.40834482 L3.12186201,0.355655166 L2.46324134,2.5291034 L2.46324134,2.54227582 L2.58179306,2.58179306 L3.24041374,0.40834482 Z" id="Shape"></path>
                    <path d="M2.51593099,2.66082754 L2.60813789,2.55544823 L0.829862054,0.645448265 L0.750827573,0.750827573 L2.47641375,2.60813789 L2.51593099,2.66082754 Z" id="Shape"></path>
                </g>
                <path d="M4.03075855,0.974758604 L3.93855166,0.869379295 L2.46324134,2.58179306 L2.55544823,2.68717237 L4.03075855,0.974758604 Z" id="Shape" fill="#FFFFFF"></path>
                <path id="Rectangle-path" fill="#FFFFFF" d="M2.18335916,0.170922604 L2.30119957,0.157976756 L2.57162396,2.61953202 L2.45378354,2.63247787 L2.18335916,0.170922604 L2.18335916,0.170922604 Z"></path>
            </g>
        </g>
    </g>
</svg>