<?xml version="1.0" encoding="utf-8"?>
<!-- Generator: Adobe Illustrator 19.1.0, SVG Export Plug-In . SVG Version: 6.00 Build 0)  -->
<svg version="1.1" id="Layer_1" xmlns="http://www.w3.org/2000/svg" xmlns:xlink="http://www.w3.org/1999/xlink" x="0px" y="0px"
	 viewBox="0 0 18 18" style="enable-background:new 0 0 18 18;" xml:space="preserve">
<style type="text/css">
	.st0{fill-rule:evenodd;clip-rule:evenodd;fill:#8BC4E4;}
	.st1{fill-rule:evenodd;clip-rule:evenodd;fill:#F6A61C;}
	.st2{fill-rule:evenodd;clip-rule:evenodd;fill:#F1658A;}
	.st3{fill-rule:evenodd;clip-rule:evenodd;fill:#83C882;}
</style>
<path class="st1" d="M15.5,4.9c0.6-0.6,1.8-2.8,1.2-3.4c-0.6-0.6-2.8,0.6-3.4,1.2l0,0l0,0c0,0,0,0,0,0c0,0,0,0,0,0l-1.5,1.5
	c-0.8-0.1-2.2-0.4-3.4-0.5C6.2,3.4,3.3,3.2,2.4,3.2c-0.2,0-0.3,0-0.3,0C2,3.3,1.9,3.4,1.9,3.4L1.2,4.1c0,0-0.1,0.1-0.1,0.2
	c0,0.1,0.2,0.2,0.2,0.2l7.4,2.5c0,0,0.1,0.1,0.1,0.2c0,0.1,0,0.1,0,0.1l-4.3,5l-2.8-0.1l-0.7,0.7c0,0,2.1,1.1,2.6,1.7
	c0.5,0.5,1.7,2.6,1.7,2.6l0.7-0.7L6,13.6L11,9.5l0,0c0,0,0,0,0,0l0,0c0,0,0.1-0.1,0.2-0.1c0.1,0,0.2,0.1,0.2,0.1l2.5,7.4
	c0,0,0.1,0.2,0.2,0.2c0.1,0,0.2-0.1,0.2-0.1l0.6-0.6c0,0,0.1-0.1,0.1-0.2c0-0.1,0-0.1,0-0.3c0-0.9-0.1-3.8-0.4-6.1
	c-0.2-1.2-0.4-2.6-0.5-3.4L15.5,4.9L15.5,4.9z"/>
</svg>
