<?xml version="1.0" encoding="utf-8"?>
<!-- Generator: Adobe Illustrator 19.1.0, SVG Export Plug-In . SVG Version: 6.00 Build 0)  -->
<svg version="1.1" id="Layer_1" xmlns="http://www.w3.org/2000/svg" xmlns:xlink="http://www.w3.org/1999/xlink" x="0px" y="0px"
	 viewBox="-389 264.3 159.9 264.7" style="enable-background:new -389 264.3 159.9 264.7;" xml:space="preserve">
<style type="text/css">
	.st0{fill:#FFFFFF;}
	.st1{fill:#1C5678;}
	.st2{fill:#2B84B7;}
	.st3{fill:#F9F9F8;}
	.st4{fill:#F5DEC5;}
	.st5{fill:#F59099;}
	.st6{fill:none;stroke:#FFFFFF;stroke-miterlimit:10;}
</style>
<circle class="st0" cx="-277.7" cy="493.7" r="8"/>
<path class="st1" d="M-242.9,333.3c-1.8-34.8-31.6-61.3-66.5-61.3c-34.8,0-62.1,28.3-63.1,63.1c-1.6,57.8,7.3,143.8,7.3,143.8
	s42-5.5,61.6-5.5c19.8,0,53-4.5,53-4.5S-239.5,397.9-242.9,333.3z"/>
<path class="st2" d="M-248,462.2c-7.7-12-40.5-23.7-40.5-23.7l0.3-17.2h-42.3l0.3,17.2c0,0-32.8,11.6-40.5,23.7
	c-6.4,19.1-9.8,66.8-9.8,66.8h142.3C-238.2,529-241.6,481.2-248,462.2z"/>
<g>
	<polygon class="st3" points="-344.7,480.5 -352.3,485.1 -352.1,480.3 -344.6,475.6 	"/>
	<polygon class="st3" points="-361.5,475.1 -354.2,480.2 -354.4,485.1 -361.6,480 	"/>
	<polygon class="st3" points="-368.1,483.5 -363,482 -355.5,486.8 -355.7,486.9 -355.5,486.9 -363.2,491.4 -368.3,489.7 
		-363.1,486.7 	"/>
	<polygon class="st3" points="-345.2,498.7 -352.5,493.6 -352.3,488.8 -345.1,493.8 	"/>
	<polygon class="st3" points="-351,487 -351.2,486.9 -343.5,482.4 -338.4,484.2 -343.6,487.2 -338.6,490.4 -343.8,491.9 -351.2,487 
			"/>
	<polygon class="st3" points="-354.6,493.6 -362.1,498.3 -362,493.4 -354.4,488.7 	"/>
</g>
<g>
	<polygon class="st3" points="-300.7,483.8 -308.3,488.5 -308.1,483.6 -300.5,478.9 	"/>
	<polygon class="st3" points="-317.5,478.5 -310.2,483.6 -310.4,488.4 -317.6,483.4 	"/>
	<polygon class="st3" points="-324.1,486.8 -318.9,485.3 -311.5,490.2 -311.7,490.2 -311.5,490.3 -319.2,494.8 -324.3,493 
		-319.1,490.1 	"/>
	<polygon class="st3" points="-301.2,502.1 -308.5,497 -308.3,492.2 -301,497.2 	"/>
	<polygon class="st3" points="-307,490.4 -307.2,490.3 -299.5,485.8 -294.4,487.6 -299.5,490.5 -294.5,493.8 -299.7,495.3 
		-307.1,490.4 	"/>
	<polygon class="st3" points="-310.5,496.9 -318.1,501.7 -318,496.8 -310.4,492.1 	"/>
</g>
<g>
	<polygon class="st3" points="-257.7,480.5 -265.2,485.1 -265.1,480.3 -257.5,475.6 	"/>
	<polygon class="st3" points="-274.4,475.1 -267.2,480.2 -267.3,485.1 -274.6,480 	"/>
	<polygon class="st3" points="-281.1,483.5 -275.9,482 -268.5,486.8 -268.7,486.9 -268.4,486.9 -276.1,491.4 -281.2,489.7 
		-276.1,486.7 	"/>
	<polygon class="st3" points="-258.2,498.7 -265.4,493.6 -265.3,488.8 -258,493.8 	"/>
	<polygon class="st3" points="-264,487 -264.2,486.9 -256.5,482.4 -251.4,484.2 -256.5,487.2 -251.5,490.4 -256.7,491.9 -264.1,487 
			"/>
	<polygon class="st3" points="-267.5,493.6 -275.1,498.3 -274.9,493.4 -267.4,488.7 	"/>
</g>
<path class="st4" d="M-255.5,355.7c-0.4-0.1-0.8-0.1-1.2-0.1c-1.7-50.8-32.7-61.9-52.7-61.9l0,0h-0.1h-0.1l0,0
	c-20,0.1-51,11.2-52.7,61.9c-0.3,0-0.7,0-1,0.1c-6,0.8-10.2,8.6-9.3,17.3c0.9,8.7,6.5,15.1,12.6,14.3c0.4-0.1,0.8-0.2,1.2-0.3
	c4,13.7,10.3,21.3,13.2,25.1c4.1,5.2,25.1,22.1,36,22.3l0,0h0.1h0.1l0,0c10.9-0.2,31.9-17,36-22.3c2.9-3.7,9.2-11.4,13.2-25.1
	c0.4,0.1,0.9,0.3,1.4,0.3c6,0.8,11.7-5.6,12.6-14.3C-245.3,364.3-249.4,356.5-255.5,355.7z"/>
<path class="st1" d="M-365,352.1c0,1.3-0.2,3.5,2.2,3.5c0,0,3.9,7.3,17.4-3.3c11.2-8.8,9.5-36.4,9.5-36.4
	c12.3,31.2,25.4,30.4,38.9,31.9s17.3,1.7,25.6,6.3c8.6,4.8,8.6,13.4,9,21.1c0.8,15.9-1.5,26.3-1.5,26.3l13.3,1
	c-0.3-23.1-0.5-52.4-0.5-52.4c-0.4-60.8-27.9-59.8-37.1-63.9c-9.2-4.1-45.2,6.6-62.3,11.6C-367.5,302.7-365.1,345.1-365,352.1z"/>
<path class="st5" d="M-301.2,410.4c0-1.2-2.3-4.8-7.6-4.8c-5.4,0-7.6,3.6-7.6,4.8s3.4-0.5,7.6-0.5
	C-304.6,409.9-301.2,411.6-301.2,410.4z"/>
<g>
	<g>
		<path class="st1" d="M-327.6,363.5c0,3.6-2.9,6.6-6.6,6.6c-3.6,0-6.6-2.9-6.6-6.6c0-3.7,2.9-5.6,6.6-5.6
			C-330.6,357.9-327.6,359.9-327.6,363.5z"/>
		<g>
			<path class="st1" d="M-344.2,362.3c-0.9,0-1.7-0.7-1.7-1.7c0-0.9,0.7-1.7,1.7-1.7c3.1,0,11.7-0.8,14-4.7c0.5-0.8,1.5-1.1,2.3-0.6
				c0.8,0.5,1.1,1.5,0.6,2.3C-331,362.2-342.9,362.3-344.2,362.3z"/>
		</g>
	</g>
	<g>
		<path class="st1" d="M-288.4,363.5c0,3.6,2.9,6.6,6.6,6.6c3.7,0,6.6-2.9,6.6-6.6c0-3.7-2.9-5.6-6.6-5.6
			C-285.5,357.9-288.4,359.9-288.4,363.5z"/>
		<g>
			<path class="st1" d="M-271.8,362.3c0.9,0,1.7-0.7,1.7-1.7c0-0.9-0.7-1.7-1.7-1.7c-3.1,0-11.7-0.8-14-4.7
				c-0.5-0.8-1.5-1.1-2.3-0.6s-1.1,1.5-0.6,2.3C-285.1,362.2-273.2,362.3-271.8,362.3z"/>
		</g>
	</g>
</g>
<g>
	<g>
		<g>
			<g>
				<path class="st0" d="M-345.9,451.8c0,0-0.4-0.7-0.8-1.3c-0.4-0.7-0.7-1.3-0.7-1.3l-2.1,1.1l-1.1-2.1c0,0-0.7,0.3-1.4,0.7
					c-0.7,0.3-1.4,0.7-1.4,0.7s0.6,1.2,1.2,2.4c0.7,1.2,1.3,2.4,1.3,2.4l0,0l0,0l2.8-1.5c0,0,0.5-0.3,1-0.6
					C-346.4,452.1-345.9,451.8-345.9,451.8z"/>
			</g>
			<g>
				<path class="st0" d="M-334.5,454.3l-1.8-2.5c0,0-0.5,0.3-1,0.7c-0.5,0.3-1,0.6-1,0.6l-1.3-2c0,0-0.6,0.4-1.3,0.8
					c-0.7,0.4-1.3,0.8-1.3,0.8s0.7,1.2,1.5,2.3c0.8,1.1,1.5,2.3,1.5,2.3l0,0l0,0c0,0,0.7-0.4,1.3-0.8c0.7-0.4,1.3-0.9,1.3-0.9
					L-334.5,454.3z"/>
			</g>
			<g>
				<path class="st0" d="M-322.9,455.9c0,0-0.5-0.6-1-1.2c-0.5-0.6-1-1.2-1-1.2l-1.9,1.5l-1.5-1.9c0,0-0.6,0.5-1.2,0.9
					c-0.6,0.5-1.2,0.9-1.2,0.9s0.8,1.1,1.7,2.2c0.9,1.1,1.7,2.1,1.7,2.1l0,0l0,0l2.5-1.9L-322.9,455.9z"/>
			</g>
			<g>
				<path class="st0" d="M-311.3,456.5l-2.1-2.2c0,0-0.4,0.4-0.9,0.8c-0.4,0.4-0.9,0.8-0.9,0.8l-1.6-1.8l-2.3,2.1c0,0,0.9,1,1.8,2
					c0.9,1,1.9,2,1.9,2l0,0l0,0c0,0,0.6-0.5,1.2-1c0.6-0.5,1.1-1.1,1.1-1.1L-311.3,456.5z"/>
			</g>
			<g>
				<path class="st0" d="M-299.6,456.2l-2.3-2.1l-1.6,1.8c0,0-0.4-0.4-0.9-0.8c-0.4-0.4-0.9-0.8-0.9-0.8l-2.1,2.2c0,0,1,0.9,2,1.9
					c0.5,0.5,1,0.9,1.4,1.3c0.4,0.3,0.6,0.6,0.6,0.6l0,0l0,0l2.1-2.3L-299.6,456.2z"/>
			</g>
			<g>
				<path class="st0" d="M-288,455c0,0-0.6-0.5-1.2-0.9c-0.6-0.5-1.2-0.9-1.2-0.9l-1.5,1.9l-1.9-1.5c0,0-0.5,0.6-1,1.2
					c-0.5,0.6-1,1.2-1,1.2s1.1,0.9,2.1,1.7c1.1,0.8,2.2,1.7,2.2,1.7l0,0l0,0l2-2.4L-288,455z"/>
			</g>
			<g>
				<path class="st0" d="M-276.5,452.8c0,0-0.7-0.4-1.3-0.8c-0.6-0.4-1.3-0.8-1.3-0.8l-1.3,2c0,0-0.5-0.3-1-0.6s-1-0.7-1-0.7
					l-1.8,2.5c0,0,1.1,0.8,2.3,1.5c1.1,0.8,2.3,1.5,2.3,1.5l0,0l0,0l1.7-2.6L-276.5,452.8z"/>
			</g>
			<g>
				<path class="st0" d="M-265.3,449.6c0,0-0.7-0.3-1.4-0.7c-0.7-0.3-1.4-0.7-1.4-0.7l-1.1,2.1l-2.1-1.1c0,0-0.4,0.7-0.7,1.3
					c-0.4,0.7-0.8,1.3-0.8,1.3s1.2,0.7,2.4,1.3c1.2,0.6,2.5,1.3,2.5,1.3l0,0l0,0l1.5-2.7L-265.3,449.6z"/>
			</g>
		</g>
	</g>
</g>
<path class="st6" d="M-370.7,462.6c0,0,24.3,8.4,61.3,8.4s61.3-8.4,61.3-8.4"/>
<path class="st6" d="M-378.3,499c0,0,27.3,8.4,69,8.4s69-8.4,69-8.4"/>
</svg>
