<?xml version="1.0" encoding="utf-8"?>
<!-- Generator: Adobe Illustrator 19.1.0, SVG Export Plug-In . SVG Version: 6.00 Build 0)  -->
<svg version="1.1" id="Layer_1" xmlns="http://www.w3.org/2000/svg" xmlns:xlink="http://www.w3.org/1999/xlink" x="0px" y="0px"
	 viewBox="0 0 167.9 168.1" style="enable-background:new 0 0 167.9 168.1;" xml:space="preserve">
<style type="text/css">
	.st0{fill:#FFFFFF;}
	.st1{fill:#333333;}
	.st2{fill:#3D6F35;}
	.st3{opacity:0.15;fill:#F1F1F2;}
	.st4{fill:#F1B11F;}
	.st5{fill:#E5DFDA;}
	.st6{opacity:0.25;}
	.st7{fill:#5B4A42;}
	.st8{fill:#332D2F;}
	.st9{fill:#7C2A42;}
</style>
<g>
	<g>
		<path class="st0" d="M83.3,163.2c-44.2-0.6-79.5-36.9-78.9-81.1C5,37.9,41.3,2.7,85.5,3.2c44.2,0.6,79.5,36.9,78.9,81.1
			C163.7,128.5,127.4,163.8,83.3,163.2z"/>
	</g>
</g>
<g>
	<g>
		<path class="st1" d="M76.5,46c0.5-0.1,0.9-0.2,1.4-0.3L76.4,37c0-0.4-0.4-0.6-0.7-0.6c-0.5,0.1-0.7,0.4-0.6,0.8L76.5,46z"/>
		<path class="st1" d="M86.8,45c0.2,0,0.4,0,0.6,0V27.1c0-0.4-0.3-0.7-0.6-0.7c-0.4,0-0.7,0.4-0.7,0.7V45C86.2,45,86.5,45,86.8,45z"
			/>
		<path class="st1" d="M58.7,52.7c0.4-0.3,0.8-0.5,1.2-0.8l-5.5-9.5c-0.2-0.3-0.6-0.4-1-0.2c-0.3,0.2-0.5,0.6-0.3,0.9L58.7,52.7z"/>
		<path class="st1" d="M67.3,48.5c0.5-0.2,0.9-0.3,1.3-0.5l-6.1-16.8c-0.1-0.4-0.6-0.6-0.9-0.4c-0.4,0.1-0.6,0.5-0.5,0.9L67.3,48.5z
			"/>
		<path class="st1" d="M96.7,45.9l1.5-8.7c0.1-0.4-0.2-0.7-0.5-0.8c-0.4,0-0.8,0.2-0.9,0.6l-1.5,8.7C95.9,45.7,96.3,45.8,96.7,45.9z
			"/>
		<path class="st1" d="M114.2,52.4l5.3-9.2c0.2-0.3,0-0.8-0.3-0.9c-0.3-0.2-0.8-0.1-0.9,0.2l-5.3,9.2
			C113.4,51.9,113.8,52.2,114.2,52.4z"/>
		<path class="st1" d="M122.4,58.2l11.5-13.7c0.2-0.3,0.2-0.8-0.1-1c-0.3-0.3-0.8-0.3-1,0.1l-11.5,13.7
			C121.7,57.6,122,57.9,122.4,58.2z"/>
		<path class="st1" d="M106,48.5l6.2-16.9c0.2-0.4-0.1-0.8-0.4-0.9c-0.4-0.2-0.8,0-0.9,0.4L104.8,48C105.2,48.2,105.6,48.4,106,48.5
			z"/>
		<path class="st1" d="M51,58.2c0.4-0.3,0.7-0.6,1.1-0.9L40.6,43.6c-0.3-0.4-0.7-0.4-1-0.1c-0.3,0.2-0.3,0.7-0.1,1L51,58.2z"/>
	</g>
</g>
</svg>
