<?xml version="1.0" encoding="UTF-8" standalone="no"?>
<svg width="5px" height="5px" viewBox="0 0 5 5" version="1.1" xmlns="http://www.w3.org/2000/svg" xmlns:xlink="http://www.w3.org/1999/xlink" xmlns:sketch="http://www.bohemiancoding.com/sketch/ns">
    <!-- Generator: Sketch 3.4 (15588) - http://www.bohemiancoding.com/sketch -->
    <title>Shape</title>
    <desc>Created with Sketch.</desc>
    <defs>
        <linearGradient x1="50.0537906%" y1="100.211637%" x2="50.0537906%" y2="-0.076261586%" id="linearGradient-1">
            <stop stop-color="#B6D7D7" offset="0%"></stop>
            <stop stop-color="#ABD2DA" offset="32.74%"></stop>
            <stop stop-color="#8FC6E2" offset="89.48%"></stop>
            <stop stop-color="#89C3E4" offset="100%"></stop>
        </linearGradient>
    </defs>
    <g id="Page-1" stroke="none" stroke-width="1" fill="none" fill-rule="evenodd" sketch:type="MSPage">
        <path d="M1.53124695,2.36366978 L1.54152377,2.37651581 L2.2095174,2.37651581 L2.15813328,2.32513168 L1.74706027,1.91405868 L1.73678345,1.90378185 L1.72136821,1.90635106 C1.70081456,1.90892027 1.68283011,1.91148948 1.66227646,1.91148948 L1.08420505,1.91148948 L1.13558918,1.9628736 L1.49270885,2.31999327 C1.50812409,2.3328393 1.52097012,2.34825454 1.53124695,2.36366978 L1.53124695,2.36366978 L1.53124695,2.36366978 Z M3.25993739,4.2957129 L3.25492744,4.2957129 C3.25492744,4.2957129 3.24991749,4.2957129 3.24490753,4.30072285 L3.25993739,4.2957129 L3.25993739,4.2957129 L3.25993739,4.2957129 Z M0.708972476,3.25479898 C0.708972476,3.24978903 0.703962523,3.24477907 0.703962523,3.24477907 C0.703962523,3.24477907 0.703962523,3.24477907 0.703962523,3.23976912 L0.708972476,3.25479898 L0.708972476,3.25479898 L0.708972476,3.25479898 Z M4.30085131,1.74962948 C4.30085131,1.75463943 4.30085131,1.75463943 4.30586126,1.75964938 L4.30586126,1.76465933 L4.30085131,1.74962948 L4.30085131,1.74962948 L4.30085131,1.74962948 Z M1.75476789,0.706274807 C1.75476789,0.706274807 1.75977784,0.706274807 1.75977784,0.701264855 C1.76478779,0.701264855 1.76478779,0.701264855 1.76478779,0.696254902 L1.75476789,0.706274807 L1.75476789,0.706274807 L1.75476789,0.706274807 Z M3.24490753,0.696254902 L3.24991749,0.696254902 C3.24991749,0.696254902 3.25492744,0.696254902 3.25492744,0.701264855 L3.24490753,0.696254902 L3.24490753,0.696254902 L3.24490753,0.696254902 Z M3.92060879,1.91148948 L3.34253737,1.91148948 C3.32198372,1.91148948 3.30399927,1.90892027 3.28344563,1.90635106 L3.26803039,1.90378185 L3.25775356,1.91405868 L2.84668056,2.32513168 L2.79529643,2.37651581 L3.46329007,2.37651581 L3.47099769,2.36366978 C3.48384372,2.34825454 3.49668975,2.3328393 3.50953578,2.31999327 L3.86665545,1.9628736 L3.92060879,1.91148948 L3.92060879,1.91148948 L3.92060879,1.91148948 Z M2.2095174,2.6180212 L1.54152377,2.6180212 L1.53124695,2.63086723 C1.51840091,2.64628247 1.50555488,2.66169771 1.49270885,2.67711294 L1.13558918,3.03423262 L1.08420505,3.08561674 L1.66227646,3.08561674 C1.68026091,3.08561674 1.70081456,3.08818595 1.72136821,3.09075516 L1.73678345,3.09332436 L1.74706027,3.08304754 L2.15813328,2.67197453 L2.2095174,2.6180212 L2.2095174,2.6180212 L2.2095174,2.6180212 Z M2.67711294,2.84411135 L2.62572882,2.79272723 L2.62572882,3.46072086 L2.63857485,3.46842848 C2.65399009,3.48127451 2.66940533,3.49412054 2.68482056,3.50696657 L3.04194024,3.86408625 L3.09332436,3.91547037 L3.09332436,3.33996817 C3.09332436,3.31941452 3.09589357,3.30143007 3.09846277,3.28087642 L3.10103198,3.26546118 L3.09075516,3.25518436 L2.67711294,2.84411135 L2.67711294,2.84411135 L2.67711294,2.84411135 Z M4.87635352,2.6180212 L4.57575638,2.6180212 L4.62714051,2.66940533 L4.72733956,2.76960437 C4.75560082,2.79786564 4.77358527,2.83640373 4.77358527,2.87494183 C4.77358527,2.9057723 4.76330845,2.93403357 4.74018559,2.95458722 C4.71963194,2.97514087 4.69137067,2.9854177 4.66054019,2.9854177 C4.6220021,2.9854177 4.58346401,2.97000246 4.55520273,2.93917199 L4.24175957,2.62572882 L4.23405195,2.6180212 L3.8024253,2.6180212 L3.85380942,2.66940533 L4.16982179,2.9854177 C4.24432878,3.05992468 4.28029766,3.15755452 4.2546056,3.21150785 L4.2520364,3.21407706 L4.2520364,3.21664626 C4.24175957,3.2705996 4.15440656,3.32455293 4.03108466,3.32455293 L3.51210499,3.32455293 L3.81270212,3.62515006 L3.82040974,3.63285768 L4.27002084,3.63285768 C4.34709703,3.63285768 4.41132719,3.68681101 4.41132719,3.75361038 C4.41132719,3.82040974 4.34966623,3.87436307 4.27002084,3.87436307 L4.06448434,3.87436307 L4.11586846,3.9257472 L4.27259005,4.08246878 C4.32140497,4.13385291 4.32397417,4.2109291 4.27772846,4.25974401 C4.23148275,4.30598972 4.15183735,4.30598972 4.10045322,4.2546056 L3.88977831,4.04393069 L3.88977831,4.25717481 C3.88977831,4.334251 3.83582498,4.39848115 3.76902561,4.39848115 C3.70222625,4.39848115 3.64827292,4.334251 3.64827292,4.25717481 L3.64827292,3.79985609 L3.6405653,3.79214847 L3.39392149,3.54550467 L3.34253737,3.49412054 L3.34253737,4.01310021 C3.34253737,4.13385291 3.28858404,4.21863671 3.23719991,4.23405195 L3.2320615,4.23405195 L3.2294923,4.23662116 C3.18324658,4.26231322 3.08304754,4.23919036 2.99826373,4.15440656 L2.68225136,3.83839418 L2.63086723,3.78701006 L2.63086723,4.22377513 L2.63857485,4.23148275 L2.94944881,4.5397875 C3.00340214,4.59374083 3.01110976,4.67852464 2.96229484,4.72477035 C2.91604913,4.77358527 2.83126532,4.76587765 2.77731199,4.71192432 L2.68225136,4.61686369 L2.63086723,4.56547956 L2.63086723,4.86093828 C2.63086723,4.93287606 2.5769139,4.9893986 2.51011454,4.9893986 C2.44331517,4.9893986 2.38936184,4.93287606 2.38936184,4.86093828 L2.38936184,4.57318718 L2.33797772,4.62457131 L2.23777867,4.72477035 C2.18382534,4.77872368 2.09904153,4.7864313 2.05279582,4.73761638 C2.00655011,4.69137067 2.01168852,4.60658686 2.06564185,4.55263353 L2.37908502,4.23919036 L2.38679263,4.23148275 L2.38679263,3.79985609 L2.33540851,3.85124022 L2.01939614,4.16725259 C1.93461233,4.2520364 1.83441328,4.27515925 1.78816757,4.24946719 L1.78559836,4.24689798 L1.78045995,4.24689798 C1.72907583,4.23405195 1.67512249,4.14669894 1.67512249,4.02594624 L1.67512249,3.50696657 L1.62373837,3.5583507 L1.37709457,3.8049945 L1.36938695,3.81270212 L1.36938695,4.27002084 C1.36938695,4.34709703 1.31543362,4.41132719 1.24863425,4.41132719 C1.18183489,4.41132719 1.12788156,4.34966623 1.12788156,4.27002084 L1.12788156,4.05677672 L0.917206642,4.26745163 C0.868391721,4.31626655 0.788746326,4.31883576 0.73993141,4.27259005 C0.716808552,4.24946719 0.706531727,4.22120592 0.706531727,4.18780624 C0.706531727,4.15440656 0.719377761,4.12100688 0.745069823,4.09531481 L0.901791405,3.93859323 L0.953175529,3.8872091 L0.747639027,3.8872091 C0.706531727,3.8872091 0.667993631,3.87179387 0.642301569,3.8461018 C0.619178716,3.82297895 0.608901891,3.79471767 0.608901891,3.76645641 C0.608901891,3.69965704 0.673132044,3.64570371 0.750208235,3.64570371 L1.19981933,3.64570371 L1.20752695,3.63799609 L1.45673996,3.38878308 L1.50812409,3.33739896 L0.989144416,3.33739896 C0.868391721,3.33739896 0.783607914,3.28344563 0.768192676,3.2320615 L0.768192676,3.2294923 L0.765623473,3.22692309 C0.73993141,3.18067738 0.763054264,3.08047833 0.847838072,2.99569452 L1.16385044,2.67968215 L1.21523457,2.62829803 L0.783607914,2.62829803 L0.775900297,2.63600564 L0.462457131,2.94944881 C0.408503798,3.00340214 0.323719991,3.01110976 0.277474278,2.96229484 C0.231228566,2.91347992 0.236366978,2.83126532 0.29032031,2.77731199 L0.390519354,2.67711294 L0.44190348,2.62572882 L0.128460314,2.62572882 C0.0565225383,2.62572882 0,2.57177549 0,2.50497612 C0,2.43817676 0.0565225383,2.38422343 0.128460314,2.38422343 L0.423919036,2.38422343 L0.277474278,2.23777867 C0.249213009,2.2095174 0.231228566,2.17097931 0.231228566,2.13244121 C0.231228566,2.10161074 0.24150539,2.07334947 0.262059041,2.05279582 C0.31087396,2.00655011 0.393088561,2.01168852 0.447041893,2.06564185 L0.757915851,2.37651581 L0.765623473,2.38422343 L1.20238854,2.38422343 L1.15100442,2.3328393 L0.834992043,2.01682693 C0.747639027,1.92947392 0.724516173,1.82927487 0.755346648,1.78302916 L0.757915851,1.78045995 L0.76048506,1.77789075 C0.78103871,1.72136821 0.873530134,1.6776917 0.9814368,1.6776917 L1.50041647,1.6776917 L1.44903234,1.62630758 L1.20238854,1.37966377 L1.19468092,1.37195615 L0.737362202,1.37195615 C0.660286015,1.37195615 0.596055857,1.31800282 0.596055857,1.25120346 C0.596055857,1.18440409 0.660286015,1.13045077 0.737362202,1.13045077 L0.950606325,1.13045077 L0.899222196,1.07906664 L0.73993141,0.917206642 C0.716808552,0.894083783 0.701393315,0.860684105 0.701393315,0.827284422 C0.701393315,0.793884738 0.71167014,0.763054264 0.734792998,0.73993141 C0.783607914,0.693685694 0.860684105,0.693685694 0.912068229,0.745069823 L1.12017394,0.953175529 L1.12017394,0.747639027 C1.12017394,0.67056284 1.17412727,0.606332682 1.24092664,0.606332682 C1.307726,0.606332682 1.36167933,0.67056284 1.36167933,0.747639027 L1.36167933,1.19725013 L1.36938695,1.20495775 L1.61859996,1.45417075 L1.66998408,1.50555488 L1.66998408,0.976298387 C1.66998408,0.855545693 1.72393741,0.770761885 1.77532154,0.755346648 L1.77789075,0.755346648 L1.78045995,0.752777439 C1.82670567,0.727085377 1.92690471,0.750208235 2.01168852,0.834992043 L2.32770089,1.15100442 L2.37908502,1.20238854 L2.37908502,0.770761885 L2.3713774,0.763054264 L2.05793423,0.449611099 C2.0039809,0.395657767 1.99627328,0.31087396 2.0450882,0.264628247 C2.09390312,0.218382534 2.17611772,0.223520946 2.23007105,0.277474278 L2.3302701,0.377673323 L2.38165422,0.429057449 L2.38165422,0.128460314 C2.38165422,0.0565225383 2.43560755,-6.9460107e-16 2.50240692,-6.9460107e-16 C2.56920628,-6.9460107e-16 2.62315961,0.0565225383 2.62315961,0.128460314 L2.62315961,0.423919036 L2.67454374,0.372534911 L2.76960437,0.277474278 C2.8235577,0.223520946 2.90834151,0.215813328 2.95458722,0.264628247 C3.00340214,0.313443166 2.99569452,0.395657767 2.94174119,0.449611099 L2.63086723,0.76048506 L2.62315961,0.768192676 L2.62315961,1.20495775 L2.99055611,0.837561247 C3.0676323,0.76048506 3.16526214,0.724516173 3.21921547,0.755346648 L3.22178468,0.757915851 L3.22435388,0.757915851 C3.28344563,0.775900297 3.32969134,0.868391721 3.32969134,0.978867591 L3.32969134,1.49784726 L3.38107547,1.44646314 L3.63028848,1.19725013 L3.63799609,1.18954251 L3.63799609,0.73993141 C3.63799609,0.662855219 3.69194943,0.598625061 3.75874879,0.598625061 C3.82554815,0.598625061 3.87950148,0.662855219 3.87950148,0.73993141 L3.87950148,0.945467913 L3.93088561,0.894083783 L4.08760719,0.737362202 C4.13642211,0.688547281 4.21606751,0.685978077 4.26488242,0.732223789 C4.31369735,0.778469501 4.31112814,0.858114896 4.25974401,0.909499026 L4.10045322,1.07135902 L4.0490691,1.12274314 L4.26231322,1.12274314 C4.33938941,1.12274314 4.40361957,1.17669648 4.40361957,1.24349584 C4.40361957,1.27432631 4.39077353,1.30515679 4.36508147,1.32827965 C4.33938941,1.35140251 4.30342052,1.36424853 4.26488242,1.36424853 L3.82040974,1.36424853 L3.80756371,1.36424853 L3.79985609,1.37195615 L3.55321229,1.61859996 L3.50182816,1.66998408 L4.02080783,1.66998408 C4.1312837,1.66998408 4.22377513,1.7162298 4.24175957,1.77532154 L4.24175957,1.77789075 L4.24432878,1.78045995 C4.27002084,1.82670567 4.24689798,1.92690471 4.16211418,2.01168852 L3.8461018,2.32770089 L3.79471767,2.37908502 L4.23148275,2.37908502 L4.23919036,2.3713774 L4.55006432,2.06050344 C4.60401766,2.00655011 4.68880146,1.99884249 4.73504718,2.04765741 C4.75560082,2.06821106 4.76844686,2.09647232 4.76844686,2.1273028 C4.76844686,2.16584089 4.75303162,2.20437899 4.72220115,2.23264026 L4.57575638,2.37908502 L4.87121511,2.37908502 C4.94315289,2.37908502 4.99967542,2.43303835 4.99967542,2.49983771 C5.00481384,2.56406787 4.9482913,2.6180212 4.87635352,2.6180212 L4.87635352,2.6180212 L4.87635352,2.6180212 Z M3.47356689,2.63086723 L3.46585927,2.6180212 L2.79786564,2.6180212 L2.84924977,2.66940533 L3.26032277,3.08047833 L3.2705996,3.09075516 L3.28601483,3.08818595 C3.30656848,3.08561674 3.32712213,3.08304754 3.34510658,3.08304754 L3.92060879,3.08304754 L3.86922466,3.03166341 L3.51210499,2.67454374 C3.49925895,2.66426691 3.48641292,2.64885168 3.47356689,2.63086723 L3.47356689,2.63086723 L3.47356689,2.63086723 Z M3.08561674,1.74192186 L3.09589357,1.73164504 L3.09332436,1.7162298 C3.09075516,1.69567614 3.08818595,1.6776917 3.08818595,1.65713805 L3.08818595,1.08163584 L3.03680182,1.13301997 L2.68225136,1.48757044 C2.66940533,1.50041647 2.65399009,1.5132625 2.63600564,1.52610853 L2.62315961,1.53381615 L2.62315961,2.19924058 L2.67454374,2.14785645 L3.08561674,1.74192186 L3.08561674,1.74192186 L3.08561674,1.74192186 Z M1.91919709,3.25261515 L1.90892027,3.26289198 L1.91148948,3.27830721 C1.91405868,3.29886086 1.91662789,3.31941452 1.91662789,3.33739896 L1.91662789,3.91547037 L1.96801201,3.86408625 L2.32513168,3.50439736 C2.33797772,3.49155134 2.35339295,3.4787053 2.3713774,3.46585927 L2.38422343,3.45815165 L2.38422343,2.78758881 L2.3328393,2.83897294 L1.91919709,3.25261515 L1.91919709,3.25261515 L1.91919709,3.25261515 Z M2.32513168,1.48757044 L1.96801201,1.13045077 L1.91662789,1.07906664 L1.91662789,1.65713805 C1.91662789,1.67512249 1.91405868,1.69567614 1.91148948,1.7162298 L1.90892027,1.73164504 L1.91919709,1.74192186 L2.3302701,2.15299486 L2.38165422,2.20437899 L2.38165422,1.53638536 L2.36880819,1.52867774 C2.35339295,1.51583171 2.33797772,1.50298567 2.32513168,1.48757044 L2.32513168,1.48757044 L2.32513168,1.48757044 Z" id="Shape" fill="url(#linearGradient-1)" sketch:type="MSShapeGroup"></path>
    </g>
</svg>