<?xml version="1.0" encoding="UTF-8" standalone="no"?>
<svg width="483px" height="240px" viewBox="0 0 483 240" version="1.1" xmlns="http://www.w3.org/2000/svg" xmlns:xlink="http://www.w3.org/1999/xlink" xmlns:sketch="http://www.bohemiancoding.com/sketch/ns">
    <!-- Generator: Sketch 3.3.2 (12043) - http://www.bohemiancoding.com/sketch -->
    <title>Slice 1</title>
    <desc>Created with Sketch.</desc>
    <defs></defs>
    <g id="Page-1" stroke="none" stroke-width="1" fill="none" fill-rule="evenodd" sketch:type="MSPage">
        <g id="Path-1-Copy-+-Path-1" sketch:type="MSLayerGroup" transform="translate(24.136069, 142.201539)" fill-opacity="0.250932836">
            <g sketch:type="MSShapeGroup">
                <path d="M456.815706,99.8486066 C456.815706,99.8486066 422.804856,38.7644121 350.951859,32.0018297 C279.098863,25.2392472 226.134593,3.98619292 226.134593,3.98619292 C226.134593,3.98619292 183.778272,-11.3681655 123.426355,20.5105107 C63.0744381,52.3891868 0,97.3493126 0,97.3493126 L456.815706,99.8486066 Z" id="Path-1-Copy" fill="#FFFFFF"></path>
                <path d="M467.838772,99.8486066 C467.838772,99.8486066 433.827923,38.7644121 361.974926,32.0018297 C290.121929,25.2392472 237.157659,3.98619292 237.157659,3.98619292 C237.157659,3.98619292 194.801338,-11.3681655 134.449421,20.5105107 C74.0975044,52.3891868 11.0230663,97.3493126 11.0230663,97.3493126 L467.838772,99.8486066 Z" id="Path-1"></path>
            </g>
        </g>
        <g id="Path-1-Copy-+-Path-1-Copy-Copy" sketch:type="MSLayerGroup" transform="translate(-67.863931, 155.502130)" fill-opacity="0.250932836">
            <g id="Path-1-Copy-+-Path-1" sketch:type="MSShapeGroup">
                <path d="M456.815706,84.2472619 C456.815706,84.2472619 422.804856,32.7074727 350.951859,27.0015438 C279.098863,21.2956148 226.134593,3.36335028 226.134593,3.36335028 C226.134593,3.36335028 183.778272,-9.59188964 123.426355,17.3057434 C63.0744381,44.2033764 0,82.1384825 0,82.1384825 L456.815706,84.2472619 Z" id="Path-1-Copy" fill="#FFFFFF"></path>
                <path d="M467.838772,84.2472619 C467.838772,84.2472619 433.827923,32.7074727 361.974926,27.0015438 C290.121929,21.2956148 237.157659,3.36335028 237.157659,3.36335028 C237.157659,3.36335028 194.801338,-9.59188964 134.449421,17.3057434 C74.0975044,44.2033764 11.0230663,82.1384825 11.0230663,82.1384825 L467.838772,84.2472619 Z" id="Path-1"></path>
            </g>
        </g>
        <g id="Path-1-Copy-+-Path-1-Copy" sketch:type="MSLayerGroup" transform="translate(166.068035, 184.450474)" fill-opacity="0.250932836">
            <g id="Path-1-Copy-+-Path-1" sketch:type="MSShapeGroup">
                <path d="M309.48478,57.7249757 C309.48478,57.7249757 286.443015,22.4106758 237.763846,18.5010578 C189.084677,14.5914398 153.202295,2.30451778 153.202295,2.30451778 C153.202295,2.30451778 124.506617,-6.57222068 83.6192316,11.857639 C42.7318465,30.2874986 0,56.2800714 0,56.2800714 L309.48478,57.7249757 Z" id="Path-1-Copy" fill="#FFFFFF"></path>
                <path d="M316.952718,57.7249757 C316.952718,57.7249757 293.910952,22.4106758 245.231784,18.5010578 C196.552615,14.5914398 160.670233,2.30451778 160.670233,2.30451778 C160.670233,2.30451778 131.974555,-6.57222068 91.0871694,11.857639 C50.1997842,30.2874986 7.46793773,56.2800714 7.46793773,56.2800714 L316.952718,57.7249757 Z" id="Path-1"></path>
            </g>
        </g>
    </g>
</svg>