<?xml version="1.0" encoding="UTF-8" standalone="no"?>
<svg width="20px" height="12px" viewBox="0 0 20 12" version="1.1" xmlns="http://www.w3.org/2000/svg" xmlns:xlink="http://www.w3.org/1999/xlink" xmlns:sketch="http://www.bohemiancoding.com/sketch/ns">
    <!-- Generator: Sketch 3.4 (15588) - http://www.bohemiancoding.com/sketch -->
    <title>Untitled-5-03</title>
    <desc>Created with Sketch.</desc>
    <defs></defs>
    <g id="Page-1" stroke="none" stroke-width="1" fill="none" fill-rule="evenodd" sketch:type="MSPage">
        <g id="Untitled-5-03" sketch:type="MSLayerGroup">
            <path d="M0.332124972,6.50393019 L19.9438645,9.88732345 L19.6677173,11.4880026 L0.0559777725,8.10460931 L0.332124972,6.50393019 L0.332124972,6.50393019 Z" id="Rectangle-path" fill="#1C5678" sketch:type="MSShapeGroup"></path>
            <ellipse id="Oval" fill="#1C5678" sketch:type="MSShapeGroup" cx="9.99627872" cy="10.2253601" rx="1.68687203" ry="1.68687203"></ellipse>
            <g id="Group" transform="translate(1.041279, 0.000000)" sketch:type="MSShapeGroup">
                <g transform="translate(0.000000, 6.178256)" id="Shape">
                    <path d="M1.94372086,0.0763604624 C1.01351159,-0.0694186022 0.208255807,0.124953484 0.145779065,0.513697656 C0.0833023227,0.902441829 0.791372065,1.3258953 1.7285232,1.47167437 C2.66567432,1.61745343 3.47093011,1.42308135 3.52646499,1.03433717 C3.58894173,0.645593001 2.88087199,0.222139527 1.94372086,0.0763604624 L1.94372086,0.0763604624 Z" fill="#F6CD62"></path>
                    <path d="M1.92983714,0.187430226 C1.09681391,0.0555348818 0.381802312,0.208255807 0.333209291,0.520639517 C0.284616269,0.833023227 0.923267409,1.19399996 1.75629064,1.3258953 C2.58931386,1.45779065 3.30432547,1.30506972 3.35291849,0.992686012 C3.40151151,0.673360441 2.76286037,0.31238371 1.92983714,0.187430226 L1.92983714,0.187430226 Z" fill="#F4AB1D"></path>
                    <path d="M2.38799992,1.1176395 C2.36717434,1.12458136 2.33246503,1.13846508 2.29775573,1.14540694 C2.26304643,1.1523488 2.22139527,1.15929066 2.17280225,1.16623252 C2.12420923,1.17317438 2.06867435,1.17317438 2.01313946,1.17317438 C1.95066272,1.17317438 1.88818598,1.16623252 1.81182552,1.15929066 L1.7979418,1.2564767 L1.64522087,1.22870926 L1.65910459,1.12458136 C1.58968599,1.11069764 1.52720925,1.08987205 1.47167437,1.06904647 C1.41613949,1.04822089 1.36754646,1.02739531 1.33283716,0.999627872 C1.29812786,0.971860431 1.26341856,0.95103485 1.24953484,0.923267409 C1.22870926,0.895499969 1.2217674,0.867732528 1.22870926,0.839965087 C1.23565112,0.805255786 1.24953484,0.777488345 1.28424414,0.756662764 C1.31201158,0.735837183 1.35366274,0.721953463 1.40225576,0.708069743 C1.45084879,0.701127882 1.49944181,0.694186022 1.56191855,0.687244162 L1.74240692,0.687244162 L1.77711622,0.458162775 C1.70075575,0.451220914 1.63827901,0.451220914 1.59662785,0.465104635 C1.55497669,0.472046495 1.52026739,0.485930215 1.49944181,0.492872076 L1.34672088,0.402627893 C1.3606046,0.395686033 1.37448832,0.388744172 1.40225576,0.381802312 C1.42308135,0.374860452 1.45779065,0.367918592 1.49249995,0.360976731 C1.52720925,0.354034871 1.56886041,0.354034871 1.61745343,0.354034871 C1.66604645,0.354034871 1.72158133,0.354034871 1.79099994,0.360976731 L1.80488366,0.256848828 L1.95760458,0.284616269 L1.94372086,0.388744172 C2.02008132,0.402627893 2.08949993,0.423453473 2.15197667,0.444279054 C2.20751155,0.465104635 2.25610457,0.485930215 2.29081387,0.513697656 C2.32552317,0.534523237 2.35329061,0.562290678 2.36717434,0.590058119 C2.38105806,0.61782556 2.38799992,0.63865114 2.38799992,0.666418581 C2.38105806,0.701127882 2.36717434,0.728895323 2.33246503,0.749720904 C2.30469759,0.770546485 2.26304643,0.784430205 2.21445341,0.791372065 C2.16586039,0.798313925 2.11726737,0.805255786 2.05479063,0.805255786 L1.87430226,0.805255786 L1.8326511,1.06210461 C1.88124412,1.06904647 1.92289528,1.06904647 1.96454644,1.06904647 C2.0061976,1.06904647 2.04090691,1.06904647 2.07561621,1.06210461 C2.11032551,1.05516275 2.13809295,1.05516275 2.16586039,1.04127903 C2.19362783,1.03433717 2.22139527,1.02739531 2.24222085,1.02045345 L2.38799992,1.1176395 L2.38799992,1.1176395 Z M1.88124412,0.708069743 L2.01313946,0.708069743 C2.04784877,0.708069743 2.07561621,0.701127882 2.09644179,0.694186022 C2.11726737,0.687244162 2.13115109,0.680302302 2.13809295,0.673360441 C2.14503481,0.666418581 2.15197667,0.652534861 2.15197667,0.63865114 C2.15891853,0.610883699 2.13809295,0.590058119 2.10338365,0.562290678 C2.06867435,0.534523237 2.0061976,0.513697656 1.91595342,0.492872076 L1.88124412,0.708069743 L1.88124412,0.708069743 Z M1.70769761,0.798313925 C1.61051157,0.798313925 1.54109297,0.805255786 1.50638367,0.819139506 C1.47167437,0.833023227 1.45084879,0.853848807 1.44390693,0.881616248 C1.43696507,0.916325549 1.45084879,0.94409299 1.49249995,0.971860431 C1.52720925,0.999627872 1.58968599,1.02045345 1.67298831,1.04127903 L1.70769761,0.798313925 L1.70769761,0.798313925 Z" fill="#F6CD62"></path>
                    <g transform="translate(0.000000, 0.416512)">
                        <path d="M0.0971860431,0.354034871 L0.0971860431,0.333209291 L0.152720925,0.0347093011 C0.0763604624,0.416511613 0.770546485,0.874674388 1.70769761,1.04822089 L1.71463947,1.04822089 L1.72158133,1.04822089 C2.65873246,1.19399996 3.46398825,0.999627872 3.52646499,0.610883699 L3.47787197,0.916325549 C3.47787197,0.923267409 3.47093011,0.93020927 3.47093011,0.93715113 L3.45704639,1.04127903 L3.45704639,1.04822089 L3.44316267,1.14540694 C3.43622081,1.18011624 3.42233709,1.21482554 3.40151151,1.24953484 C3.40151151,1.24953484 3.40151151,1.2564767 3.39456965,1.2564767 C3.20713942,1.54803483 2.4782441,1.67298831 1.63827901,1.54109297 L1.62439529,1.54109297 L1.61051157,1.54109297 C0.777488345,1.38143018 0.131895344,1.02045345 0.0555348818,0.680302302 L0.0555348818,0.666418581 C0.0485930215,0.63170928 0.0485930215,0.590058119 0.0555348818,0.555348818 L0.0763604624,0.458162775 L0.0763604624,0.451220914 L0.0971860431,0.354034871 L0.0971860431,0.354034871 Z" fill="#F4AB1D"></path>
                        <path d="M3.53340685,0.61782556 L3.48481383,0.923267409 C3.48481383,0.93020927 3.47787197,0.93715113 3.47787197,0.94409299 L3.46398825,1.04822089 L3.46398825,1.05516275 L3.45010453,1.1523488 C3.44316267,1.1870581 3.42927895,1.2217674 3.40845337,1.2564767 C3.40845337,1.2564767 3.40845337,1.26341856 3.40151151,1.26341856 C3.32515105,1.38143018 3.15160454,1.47167437 2.91558129,1.53415111 L2.99888362,1.03433717 C3.30432547,0.93715113 3.50563941,0.798313925 3.53340685,0.61782556 L3.53340685,0.61782556 Z" fill="#F6CD62"></path>
                        <path fill="#E99523" d="M0.062476742,0.673360441 L0.062476742,0.659476721 C0.0555348818,0.62476742 0.0555348818,0.583116259 0.062476742,0.548406957 L0.0833023227,0.451220914 L0.0833023227,0.444279054 L0.104127903,0.340151151 L0.104127903,0.31932557 L0.159662785,0.0208255807 C0.124953484,0.194372086 0.249906968,0.381802312 0.478988355,0.548406957 L0.395686033,1.04822089 C0.208255807,0.93715113 0.0971860431,0.805255786 0.062476742,0.673360441 L0.062476742,0.673360441 Z"></path>
                    </g>
                </g>
                <g transform="translate(0.138837, 5.553488)" id="Shape">
                    <path d="M1.91595342,0.0971860431 C0.978802291,-0.0485930215 0.173546506,0.145779065 0.118011624,0.534523237 C0.0555348818,0.923267409 0.763604624,1.34672088 1.70075575,1.49249995 C2.63790688,1.63827901 3.44316267,1.44390693 3.49869755,1.05516275 C3.55423243,0.666418581 2.84616269,0.236023248 1.91595342,0.0971860431 L1.91595342,0.0971860431 Z" fill="#F6CD62"></path>
                    <path d="M1.89512784,0.201313946 C1.06210461,0.0694186022 0.347093011,0.222139527 0.29849999,0.534523237 C0.249906968,0.846906947 0.888558108,1.20788368 1.72158133,1.33977902 C2.55460456,1.47167437 3.26961616,1.31895344 3.31820919,1.00656973 C3.36680221,0.694186022 2.72815107,0.333209291 1.89512784,0.201313946 L1.89512784,0.201313946 Z" fill="#F4AB1D"></path>
                    <path d="M2.35329061,1.13846508 C2.33246503,1.14540694 2.29775573,1.15929066 2.26304643,1.16623252 C2.22833713,1.17317438 2.18668597,1.18011624 2.13809295,1.1870581 C2.08949993,1.19399996 2.03396504,1.19399996 1.97843016,1.19399996 C1.91595342,1.19399996 1.85347668,1.1870581 1.77711622,1.18011624 L1.7632325,1.27730228 L1.61051157,1.24953484 L1.62439529,1.14540694 C1.55497669,1.13152322 1.49249995,1.11069764 1.43696507,1.08987205 C1.38143018,1.06904647 1.33283716,1.04822089 1.29812786,1.02045345 C1.26341856,0.999627872 1.22870926,0.971860431 1.21482554,0.94409299 C1.19399996,0.916325549 1.1870581,0.888558108 1.19399996,0.860790667 C1.20094182,0.826081366 1.21482554,0.798313925 1.24953484,0.777488345 C1.27730228,0.756662764 1.31895344,0.742779044 1.36754646,0.728895323 C1.41613949,0.721953463 1.46473251,0.715011603 1.52720925,0.708069743 L1.70769761,0.708069743 L1.74240692,0.478988355 C1.66604645,0.472046495 1.60356971,0.472046495 1.56191855,0.485930215 C1.52026739,0.492872076 1.48555809,0.506755796 1.46473251,0.513697656 L1.31201158,0.423453473 C1.3258953,0.416511613 1.33977902,0.409569753 1.36754646,0.402627893 C1.38837204,0.395686033 1.42308135,0.388744172 1.45779065,0.388744172 C1.49249995,0.381802312 1.53415111,0.381802312 1.58274413,0.381802312 C1.63133715,0.381802312 1.68687203,0.381802312 1.75629064,0.388744172 L1.77017436,0.284616269 L1.92289528,0.31238371 L1.9020697,0.416511613 C1.97843016,0.430395334 2.04784877,0.451220914 2.11032551,0.472046495 C2.16586039,0.492872076 2.21445341,0.513697656 2.24916271,0.541465097 C2.28387201,0.562290678 2.31163945,0.590058119 2.32552317,0.61782556 C2.33940689,0.645593001 2.34634875,0.666418581 2.34634875,0.694186022 C2.33940689,0.728895323 2.32552317,0.756662764 2.29081387,0.777488345 C2.26304643,0.798313925 2.22139527,0.812197646 2.17280225,0.819139506 C2.12420923,0.826081366 2.07561621,0.833023227 2.01313946,0.833023227 L1.8326511,0.833023227 L1.79099994,1.08987205 C1.83959296,1.09681391 1.88124412,1.09681391 1.92289528,1.09681391 C1.96454644,1.09681391 1.99925574,1.09681391 2.03396504,1.08987205 C2.06867435,1.08293019 2.09644179,1.08293019 2.12420923,1.07598833 C2.15197667,1.06904647 2.17974411,1.06210461 2.20056969,1.05516275 L2.35329061,1.13846508 L2.35329061,1.13846508 Z M1.84653482,0.728895323 L1.97843016,0.728895323 C2.01313946,0.728895323 2.04090691,0.721953463 2.06173249,0.715011603 C2.08255807,0.708069743 2.09644179,0.701127882 2.10338365,0.694186022 C2.11032551,0.687244162 2.11726737,0.673360441 2.11726737,0.659476721 C2.12420923,0.63170928 2.10338365,0.610883699 2.06867435,0.583116259 C2.03396504,0.555348818 1.9714883,0.534523237 1.88124412,0.513697656 L1.84653482,0.728895323 L1.84653482,0.728895323 Z M1.67298831,0.819139506 C1.57580227,0.819139506 1.50638367,0.826081366 1.47167437,0.839965087 C1.43696507,0.853848807 1.41613949,0.874674388 1.40919762,0.902441829 C1.40225576,0.93715113 1.41613949,0.964918571 1.45779065,0.992686012 C1.49249995,1.02045345 1.55497669,1.04127903 1.63827901,1.06210461 L1.67298831,0.819139506 L1.67298831,0.819139506 Z" fill="#F6CD62"></path>
                    <g transform="translate(0.000000, 0.416512)">
                        <path d="M0.062476742,0.367918592 L0.062476742,0.347093011 L0.118011624,0.0485930215 C0.0416511613,0.430395334 0.735837183,0.888558108 1.67298831,1.06210461 L1.67993017,1.06210461 L1.68687203,1.06210461 C2.62402316,1.20788368 3.42927895,1.01351159 3.49175569,0.62476742 L3.44316267,0.93020927 C3.44316267,0.93715113 3.43622081,0.94409299 3.43622081,0.95103485 L3.42233709,1.05516275 L3.42233709,1.06210461 L3.40845337,1.15929066 C3.40151151,1.19399996 3.38762779,1.22870926 3.36680221,1.26341856 C3.36680221,1.26341856 3.36680221,1.27036042 3.35986035,1.27036042 C3.17243012,1.56191855 2.4435348,1.68687203 1.60356971,1.55497669 L1.58968599,1.55497669 L1.57580227,1.55497669 C0.742779044,1.3953139 0.0971860431,1.03433717 0.0208255807,0.694186022 L0.0208255807,0.680302302 C0.0138837204,0.645593001 0.0138837204,0.610883699 0.0208255807,0.569232538 L0.0416511613,0.472046495 L0.0416511613,0.465104635 L0.062476742,0.367918592 L0.062476742,0.367918592 Z" fill="#F4AB1D"></path>
                        <path d="M3.49869755,0.63170928 L3.45010453,0.93715113 C3.45010453,0.94409299 3.44316267,0.95103485 3.44316267,0.957976711 L3.42927895,1.06210461 L3.42927895,1.06904647 L3.41539523,1.16623252 C3.40845337,1.20094182 3.39456965,1.23565112 3.37374407,1.27036042 C3.37374407,1.27036042 3.37374407,1.27730228 3.36680221,1.27730228 C3.29044174,1.3953139 3.11689524,1.48555809 2.88087199,1.54803483 L2.96417431,1.04822089 C3.26961616,0.957976711 3.47093011,0.819139506 3.49869755,0.63170928 L3.49869755,0.63170928 Z" fill="#F6CD62"></path>
                        <path fill="#E99523" d="M0.0277674409,0.694186022 L0.0277674409,0.680302302 C0.0208255807,0.645593001 0.0208255807,0.610883699 0.0277674409,0.569232538 L0.0485930215,0.472046495 L0.0485930215,0.465104635 L0.0694186022,0.360976731 L0.0694186022,0.340151151 L0.124953484,0.0416511613 C0.0902441829,0.215197667 0.215197667,0.402627893 0.444279054,0.569232538 L0.360976731,1.06904647 C0.180488366,0.957976711 0.062476742,0.826081366 0.0277674409,0.694186022 L0.0277674409,0.694186022 Z"></path>
                    </g>
                </g>
                <g transform="translate(0.208256, 4.928721)" id="Shape">
                    <path d="M1.95066272,0.111069764 C1.01351159,-0.0347093011 0.208255807,0.159662785 0.152720925,0.548406957 C0.0902441829,0.93715113 0.798313925,1.3606046 1.73546506,1.50638367 C2.67261619,1.65216273 3.47787197,1.45779065 3.53340685,1.06904647 C3.59588359,0.687244162 2.88087199,0.256848828 1.95066272,0.111069764 L1.95066272,0.111069764 Z" fill="#F6CD62"></path>
                    <path d="M1.92983714,0.222139527 C1.09681391,0.0902441829 0.381802312,0.242965108 0.333209291,0.555348818 C0.284616269,0.867732528 0.923267409,1.22870926 1.75629064,1.3606046 C2.58931386,1.49249995 3.30432547,1.33977902 3.35291849,1.02739531 C3.40151151,0.715011603 2.76286037,0.354034871 1.92983714,0.222139527 L1.92983714,0.222139527 Z" fill="#F4AB1D"></path>
                    <path d="M2.38799992,1.15929066 C2.36717434,1.16623252 2.33246503,1.18011624 2.29775573,1.1870581 C2.26304643,1.19399996 2.22139527,1.20094182 2.17280225,1.20788368 C2.12420923,1.21482554 2.06867435,1.21482554 2.01313946,1.21482554 C1.95066272,1.21482554 1.88818598,1.20788368 1.81182552,1.20094182 L1.7979418,1.29812786 L1.64522087,1.27036042 L1.65910459,1.16623252 C1.58968599,1.1523488 1.52720925,1.13152322 1.47167437,1.11069764 C1.41613949,1.08987205 1.36754646,1.06904647 1.33283716,1.04127903 C1.29812786,1.02045345 1.26341856,0.992686012 1.24953484,0.964918571 C1.22870926,0.93715113 1.2217674,0.909383689 1.22870926,0.881616248 C1.23565112,0.846906947 1.24953484,0.819139506 1.28424414,0.798313925 C1.31201158,0.777488345 1.35366274,0.763604624 1.40225576,0.749720904 C1.45084879,0.742779044 1.49944181,0.735837183 1.56191855,0.728895323 L1.74240692,0.728895323 L1.77711622,0.499813936 C1.70075575,0.492872076 1.63827901,0.492872076 1.59662785,0.506755796 C1.55497669,0.513697656 1.52026739,0.527581377 1.49944181,0.534523237 L1.34672088,0.444279054 C1.3606046,0.437337194 1.37448832,0.430395334 1.40225576,0.423453473 C1.42308135,0.416511613 1.45779065,0.409569753 1.49249995,0.402627893 C1.52720925,0.395686033 1.56886041,0.395686033 1.61745343,0.395686033 C1.66604645,0.395686033 1.72158133,0.395686033 1.79099994,0.402627893 L1.80488366,0.29849999 L1.95760458,0.32626743 L1.94372086,0.430395334 C2.02008132,0.444279054 2.08949993,0.465104635 2.15197667,0.485930215 C2.20751155,0.506755796 2.25610457,0.527581377 2.29081387,0.555348818 C2.32552317,0.576174398 2.35329061,0.603941839 2.36717434,0.63170928 C2.38105806,0.659476721 2.38799992,0.680302302 2.38799992,0.708069743 C2.38105806,0.742779044 2.36717434,0.770546485 2.33246503,0.791372065 C2.30469759,0.812197646 2.26304643,0.826081366 2.21445341,0.833023227 C2.16586039,0.839965087 2.11726737,0.846906947 2.05479063,0.846906947 L1.87430226,0.846906947 L1.8326511,1.10375578 C1.88124412,1.11069764 1.92289528,1.11069764 1.96454644,1.11069764 C2.0061976,1.11069764 2.04090691,1.11069764 2.07561621,1.10375578 C2.11032551,1.09681391 2.13809295,1.09681391 2.16586039,1.08293019 C2.19362783,1.07598833 2.22139527,1.06904647 2.24222085,1.06210461 L2.38799992,1.15929066 L2.38799992,1.15929066 Z M1.88818598,0.742779044 L2.02008132,0.742779044 C2.05479063,0.742779044 2.08255807,0.735837183 2.10338365,0.728895323 C2.12420923,0.721953463 2.13809295,0.715011603 2.14503481,0.708069743 C2.15197667,0.701127882 2.15891853,0.687244162 2.15891853,0.673360441 C2.16586039,0.645593001 2.14503481,0.62476742 2.11032551,0.596999979 C2.07561621,0.569232538 2.01313946,0.548406957 1.92289528,0.527581377 L1.88818598,0.742779044 L1.88818598,0.742779044 Z M1.70769761,0.839965087 C1.61051157,0.839965087 1.54109297,0.846906947 1.50638367,0.860790667 C1.47167437,0.874674388 1.45084879,0.895499969 1.44390693,0.923267409 C1.43696507,0.957976711 1.45084879,0.985744151 1.49249995,1.01351159 C1.52720925,1.04127903 1.58968599,1.06210461 1.67298831,1.08293019 L1.70769761,0.839965087 L1.70769761,0.839965087 Z" fill="#F6CD62"></path>
                    <g transform="translate(0.000000, 0.416512)">
                        <path d="M0.0971860431,0.388744172 L0.0971860431,0.367918592 L0.152720925,0.0694186022 C0.0763604624,0.451220914 0.770546485,0.909383689 1.70769761,1.08293019 L1.71463947,1.08293019 L1.72158133,1.08293019 C2.65873246,1.22870926 3.46398825,1.03433717 3.52646499,0.645593001 L3.47787197,0.95103485 C3.47787197,0.957976711 3.47093011,0.964918571 3.47093011,0.971860431 L3.45704639,1.07598833 L3.45704639,1.08293019 L3.44316267,1.18011624 C3.43622081,1.21482554 3.42233709,1.24953484 3.40151151,1.28424414 C3.40151151,1.28424414 3.40151151,1.291186 3.39456965,1.291186 C3.20713942,1.58274413 2.4782441,1.70769761 1.63827901,1.57580227 L1.62439529,1.57580227 L1.61051157,1.57580227 C0.777488345,1.41613949 0.131895344,1.05516275 0.0555348818,0.715011603 L0.0555348818,0.701127882 C0.0485930215,0.666418581 0.0485930215,0.63170928 0.0555348818,0.590058119 L0.0763604624,0.492872076 L0.0763604624,0.485930215 L0.0971860431,0.388744172 L0.0971860431,0.388744172 Z" fill="#F4AB1D"></path>
                        <path d="M3.53340685,0.652534861 L3.48481383,0.957976711 C3.48481383,0.964918571 3.47787197,0.971860431 3.47787197,0.978802291 L3.46398825,1.08293019 L3.46398825,1.08987205 L3.45010453,1.1870581 C3.44316267,1.2217674 3.42927895,1.2564767 3.40845337,1.291186 C3.40845337,1.291186 3.40845337,1.29812786 3.40151151,1.29812786 C3.32515105,1.41613949 3.15160454,1.50638367 2.91558129,1.56886041 L2.99888362,1.06904647 C3.30432547,0.978802291 3.50563941,0.839965087 3.53340685,0.652534861 L3.53340685,0.652534861 Z" fill="#F6CD62"></path>
                        <path fill="#E99523" d="M0.062476742,0.715011603 L0.062476742,0.701127882 C0.0555348818,0.666418581 0.0555348818,0.63170928 0.062476742,0.590058119 L0.0833023227,0.492872076 L0.0833023227,0.485930215 L0.104127903,0.381802312 L0.104127903,0.360976731 L0.159662785,0.062476742 C0.124953484,0.236023248 0.249906968,0.423453473 0.478988355,0.590058119 L0.395686033,1.08987205 C0.215197667,0.978802291 0.0971860431,0.846906947 0.062476742,0.715011603 L0.062476742,0.715011603 Z"></path>
                    </g>
                </g>
                <g transform="translate(0.347093, 4.303953)" id="Shape">
                    <path d="M1.91595342,0.104127903 C0.978802291,-0.0416511613 0.173546506,0.152720925 0.118011624,0.541465097 C0.0555348818,0.93020927 0.763604624,1.35366274 1.70075575,1.49944181 C2.63790688,1.64522087 3.44316267,1.45084879 3.49869755,1.06210461 C3.56117429,0.673360441 2.85310455,0.242965108 1.91595342,0.104127903 L1.91595342,0.104127903 Z" fill="#F6CD62"></path>
                    <path d="M1.9020697,0.208255807 C1.06904647,0.0763604624 0.354034871,0.229081387 0.30544185,0.541465097 C0.256848828,0.853848807 0.895499969,1.21482554 1.7285232,1.34672088 C2.56154642,1.47861623 3.27655802,1.3258953 3.32515105,1.01351159 C3.37374407,0.701127882 2.73509293,0.340151151 1.9020697,0.208255807 L1.9020697,0.208255807 Z" fill="#F4AB1D"></path>
                    <path d="M2.36023248,1.14540694 C2.33940689,1.1523488 2.30469759,1.16623252 2.26998829,1.17317438 C2.23527899,1.18011624 2.19362783,1.1870581 2.14503481,1.19399996 C2.09644179,1.20094182 2.04090691,1.20094182 1.98537202,1.20094182 C1.92289528,1.20094182 1.86041854,1.19399996 1.78405808,1.1870581 L1.77017436,1.28424414 L1.61745343,1.2564767 L1.63133715,1.1523488 C1.56191855,1.13846508 1.49944181,1.1176395 1.44390693,1.09681391 C1.38837204,1.07598833 1.33977902,1.05516275 1.30506972,1.02739531 C1.27036042,1.00656973 1.23565112,0.978802291 1.2217674,0.95103485 C1.20094182,0.923267409 1.19399996,0.895499969 1.20094182,0.867732528 C1.20788368,0.833023227 1.2217674,0.805255786 1.2564767,0.784430205 C1.28424414,0.763604624 1.3258953,0.749720904 1.37448832,0.735837183 C1.42308135,0.728895323 1.47167437,0.721953463 1.53415111,0.715011603 L1.71463947,0.715011603 L1.74934878,0.485930215 C1.67298831,0.478988355 1.61051157,0.478988355 1.56886041,0.492872076 C1.52720925,0.499813936 1.49249995,0.513697656 1.47167437,0.520639517 L1.31895344,0.430395334 C1.33283716,0.423453473 1.34672088,0.416511613 1.37448832,0.409569753 C1.3953139,0.402627893 1.43002321,0.395686033 1.46473251,0.395686033 C1.49944181,0.388744172 1.54109297,0.388744172 1.58968599,0.388744172 C1.63827901,0.388744172 1.69381389,0.388744172 1.7632325,0.395686033 L1.77711622,0.291558129 L1.92983714,0.31932557 L1.91595342,0.423453473 C1.99231388,0.437337194 2.06173249,0.458162775 2.12420923,0.478988355 C2.17974411,0.499813936 2.22833713,0.520639517 2.26304643,0.548406957 C2.29775573,0.569232538 2.32552317,0.596999979 2.33940689,0.62476742 C2.35329061,0.652534861 2.36023248,0.673360441 2.36023248,0.701127882 C2.35329061,0.735837183 2.33940689,0.763604624 2.30469759,0.784430205 C2.27693015,0.805255786 2.23527899,0.819139506 2.18668597,0.826081366 C2.13809295,0.833023227 2.08949993,0.839965087 2.02702318,0.839965087 L1.84653482,0.839965087 L1.80488366,1.09681391 C1.85347668,1.10375578 1.89512784,1.10375578 1.936779,1.10375578 C1.97843016,1.10375578 2.01313946,1.10375578 2.04784877,1.09681391 C2.08255807,1.08987205 2.11032551,1.08987205 2.13809295,1.08293019 C2.16586039,1.07598833 2.19362783,1.06904647 2.21445341,1.06210461 L2.36023248,1.14540694 L2.36023248,1.14540694 Z M1.85347668,0.728895323 L1.98537202,0.728895323 C2.02008132,0.728895323 2.04784877,0.721953463 2.06867435,0.715011603 C2.08949993,0.708069743 2.10338365,0.701127882 2.11032551,0.694186022 C2.11726737,0.687244162 2.12420923,0.673360441 2.12420923,0.659476721 C2.13115109,0.63170928 2.11032551,0.610883699 2.07561621,0.583116259 C2.04090691,0.555348818 1.97843016,0.534523237 1.88818598,0.513697656 L1.85347668,0.728895323 L1.85347668,0.728895323 Z M1.67993017,0.826081366 C1.58274413,0.826081366 1.51332553,0.833023227 1.47861623,0.846906947 C1.44390693,0.860790667 1.42308135,0.881616248 1.41613949,0.909383689 C1.40919762,0.94409299 1.42308135,0.971860431 1.46473251,0.999627872 C1.49944181,1.02739531 1.56191855,1.04822089 1.64522087,1.06904647 L1.67993017,0.826081366 L1.67993017,0.826081366 Z" fill="#F6CD62"></path>
                    <g transform="translate(0.000000, 0.416512)">
                        <path d="M0.0694186022,0.374860452 L0.0694186022,0.354034871 L0.124953484,0.0555348818 C0.0485930215,0.437337194 0.742779044,0.895499969 1.67993017,1.06904647 L1.68687203,1.06904647 L1.69381389,1.06904647 C2.63096502,1.21482554 3.43622081,1.02045345 3.49869755,0.63170928 L3.45010453,0.93715113 C3.45010453,0.94409299 3.44316267,0.95103485 3.44316267,0.957976711 L3.42927895,1.06210461 L3.42927895,1.06904647 L3.41539523,1.16623252 C3.40845337,1.20094182 3.39456965,1.23565112 3.37374407,1.27036042 C3.37374407,1.27036042 3.37374407,1.27730228 3.36680221,1.27730228 C3.17937198,1.56886041 2.45047666,1.69381389 1.61051157,1.56191855 L1.59662785,1.56191855 L1.58274413,1.56191855 C0.749720904,1.40225576 0.104127903,1.04127903 0.0277674409,0.701127882 L0.0277674409,0.687244162 C0.0208255807,0.652534861 0.0208255807,0.61782556 0.0277674409,0.576174398 L0.0485930215,0.478988355 L0.0485930215,0.472046495 L0.0694186022,0.374860452 L0.0694186022,0.374860452 Z" fill="#F4AB1D"></path>
                        <path d="M3.50563941,0.63865114 L3.45704639,0.94409299 C3.45704639,0.95103485 3.45010453,0.957976711 3.45010453,0.964918571 L3.43622081,1.06904647 L3.43622081,1.07598833 L3.42233709,1.17317438 C3.41539523,1.20788368 3.40151151,1.24259298 3.38068593,1.27730228 C3.38068593,1.27730228 3.38068593,1.28424414 3.37374407,1.28424414 C3.29738361,1.40225576 3.1238371,1.49249995 2.88781385,1.55497669 L2.97111617,1.05516275 C3.27655802,0.964918571 3.47787197,0.826081366 3.50563941,0.63865114 L3.50563941,0.63865114 Z" fill="#F6CD62"></path>
                        <path fill="#E99523" d="M0.0347093011,0.701127882 L0.0347093011,0.687244162 C0.0277674409,0.652534861 0.0277674409,0.61782556 0.0347093011,0.576174398 L0.0555348818,0.478988355 L0.0555348818,0.472046495 L0.0763604624,0.367918592 L0.0763604624,0.347093011 L0.131895344,0.0485930215 C0.0971860431,0.222139527 0.222139527,0.409569753 0.451220914,0.576174398 L0.367918592,1.07598833 C0.180488366,0.964918571 0.0694186022,0.833023227 0.0347093011,0.701127882 L0.0347093011,0.701127882 Z"></path>
                    </g>
                </g>
                <g transform="translate(0.416512, 3.748605)" id="Shape">
                    <path d="M1.95066272,0.0485930215 C1.01351159,-0.0971860431 0.208255807,0.0971860431 0.152720925,0.485930215 C0.0902441829,0.874674388 0.798313925,1.29812786 1.73546506,1.44390693 C2.67261619,1.58968599 3.47787197,1.3953139 3.53340685,1.00656973 C3.59588359,0.62476742 2.88781385,0.194372086 1.95066272,0.0485930215 L1.95066272,0.0485930215 Z" fill="#F6CD62"></path>
                    <path d="M1.936779,0.159662785 C1.10375578,0.0277674409 0.388744172,0.180488366 0.340151151,0.492872076 C0.291558129,0.805255786 0.93020927,1.16623252 1.7632325,1.29812786 C2.59625572,1.43002321 3.31126733,1.27730228 3.35986035,0.964918571 C3.40845337,0.652534861 2.76980223,0.291558129 1.936779,0.159662785 L1.936779,0.159662785 Z" fill="#F4AB1D"></path>
                    <path d="M2.39494178,1.09681391 C2.3741162,1.10375578 2.33940689,1.1176395 2.30469759,1.12458136 C2.26998829,1.13152322 2.22833713,1.13846508 2.17974411,1.14540694 C2.13115109,1.1523488 2.07561621,1.1523488 2.02008132,1.1523488 C1.95760458,1.1523488 1.89512784,1.14540694 1.81876738,1.13846508 L1.80488366,1.23565112 L1.65216273,1.20788368 L1.66604645,1.10375578 C1.59662785,1.08987205 1.53415111,1.06904647 1.47861623,1.04822089 C1.42308135,1.02739531 1.37448832,1.00656973 1.33977902,0.978802291 C1.30506972,0.957976711 1.27036042,0.93020927 1.2564767,0.902441829 C1.23565112,0.874674388 1.22870926,0.846906947 1.23565112,0.819139506 C1.24259298,0.784430205 1.2564767,0.756662764 1.291186,0.735837183 C1.31895344,0.715011603 1.3606046,0.701127882 1.40919762,0.687244162 C1.45779065,0.680302302 1.50638367,0.673360441 1.56886041,0.666418581 L1.74934878,0.666418581 L1.78405808,0.437337194 C1.70769761,0.430395334 1.64522087,0.430395334 1.60356971,0.444279054 C1.56191855,0.451220914 1.52720925,0.465104635 1.50638367,0.472046495 L1.35366274,0.381802312 C1.36754646,0.374860452 1.38143018,0.367918592 1.40919762,0.360976731 C1.43002321,0.354034871 1.46473251,0.347093011 1.49944181,0.347093011 C1.53415111,0.340151151 1.57580227,0.340151151 1.62439529,0.340151151 C1.67298831,0.340151151 1.7285232,0.340151151 1.7979418,0.347093011 L1.81182552,0.242965108 L1.96454644,0.270732549 L1.94372086,0.374860452 C2.02008132,0.388744172 2.08949993,0.409569753 2.15197667,0.430395334 C2.20751155,0.451220914 2.25610457,0.472046495 2.29081387,0.499813936 C2.32552317,0.520639517 2.35329061,0.548406957 2.36717434,0.576174398 C2.38105806,0.603941839 2.38799992,0.62476742 2.38799992,0.652534861 C2.38105806,0.687244162 2.36717434,0.715011603 2.33246503,0.735837183 C2.30469759,0.756662764 2.26304643,0.770546485 2.21445341,0.777488345 C2.16586039,0.784430205 2.11726737,0.791372065 2.05479063,0.791372065 L1.87430226,0.791372065 L1.8326511,1.04127903 C1.88124412,1.04822089 1.92289528,1.04822089 1.96454644,1.04822089 C2.0061976,1.04822089 2.04090691,1.04822089 2.07561621,1.04127903 C2.11032551,1.03433717 2.13809295,1.03433717 2.16586039,1.02045345 C2.19362783,1.01351159 2.22139527,1.00656973 2.24222085,0.999627872 L2.39494178,1.09681391 L2.39494178,1.09681391 Z M1.88818598,0.680302302 L2.02008132,0.680302302 C2.05479063,0.680302302 2.08255807,0.673360441 2.10338365,0.666418581 C2.12420923,0.659476721 2.13809295,0.652534861 2.14503481,0.645593001 C2.15197667,0.63865114 2.15891853,0.62476742 2.15891853,0.610883699 C2.16586039,0.583116259 2.14503481,0.562290678 2.11032551,0.534523237 C2.07561621,0.506755796 2.01313946,0.485930215 1.92289528,0.465104635 L1.88818598,0.680302302 L1.88818598,0.680302302 Z M1.71463947,0.777488345 C1.61745343,0.777488345 1.54803483,0.784430205 1.51332553,0.798313925 C1.47861623,0.812197646 1.45779065,0.833023227 1.45084879,0.860790667 C1.44390693,0.895499969 1.45779065,0.923267409 1.49944181,0.95103485 C1.53415111,0.978802291 1.59662785,0.999627872 1.67993017,1.02045345 L1.71463947,0.777488345 L1.71463947,0.777488345 Z" fill="#F6CD62"></path>
                    <g transform="translate(0.000000, 0.416512)">
                        <path d="M0.104127903,0.32626743 L0.104127903,0.30544185 L0.159662785,0.00694186022 C0.0833023227,0.388744172 0.777488345,0.846906947 1.71463947,1.02045345 L1.72158133,1.02045345 L1.7285232,1.02045345 C2.66567432,1.16623252 3.47093011,0.971860431 3.53340685,0.583116259 L3.48481383,0.888558108 C3.48481383,0.895499969 3.47787197,0.902441829 3.47787197,0.909383689 L3.47093011,1.01351159 L3.47093011,1.02045345 L3.45704639,1.1176395 C3.45010453,1.1523488 3.43622081,1.1870581 3.41539523,1.2217674 C3.41539523,1.2217674 3.41539523,1.22870926 3.40845337,1.22870926 C3.22102314,1.52026739 2.49212782,1.64522087 1.65216273,1.51332553 L1.63827901,1.51332553 L1.62439529,1.51332553 C0.791372065,1.35366274 0.145779065,0.992686012 0.0694186022,0.652534861 L0.0694186022,0.63865114 C0.062476742,0.603941839 0.062476742,0.562290678 0.0694186022,0.527581377 L0.0902441829,0.430395334 L0.0902441829,0.423453473 L0.104127903,0.32626743 L0.104127903,0.32626743 Z" fill="#F4AB1D"></path>
                        <path d="M3.54034871,0.590058119 L3.49175569,0.895499969 C3.49175569,0.902441829 3.48481383,0.909383689 3.48481383,0.916325549 L3.47093011,1.01351159 L3.47093011,1.02045345 L3.45704639,1.1176395 C3.45010453,1.1523488 3.43622081,1.1870581 3.41539523,1.2217674 C3.41539523,1.2217674 3.41539523,1.22870926 3.40845337,1.22870926 C3.33209291,1.34672088 3.1585464,1.43696507 2.92252315,1.49944181 L3.00582548,0.999627872 C3.31126733,0.916325549 3.51258127,0.777488345 3.54034871,0.590058119 L3.54034871,0.590058119 Z" fill="#F6CD62"></path>
                        <path fill="#E99523" d="M0.0694186022,0.652534861 L0.0694186022,0.63865114 C0.062476742,0.603941839 0.062476742,0.562290678 0.0694186022,0.527581377 L0.0902441829,0.430395334 L0.0902441829,0.423453473 L0.111069764,0.31932557 L0.111069764,0.29849999 L0.166604645,0 C0.131895344,0.173546506 0.256848828,0.360976731 0.485930215,0.527581377 L0.395686033,1.04127903 C0.215197667,0.916325549 0.104127903,0.784430205 0.0694186022,0.652534861 L0.0694186022,0.652534861 Z"></path>
                    </g>
                </g>
                <g transform="translate(0.555349, 3.054418)" id="Shape">
                    <path d="M1.92289528,0.111069764 C0.985744151,-0.0347093011 0.180488366,0.159662785 0.124953484,0.548406957 C0.062476742,0.93715113 0.770546485,1.3606046 1.70769761,1.50638367 C2.64484874,1.65216273 3.45010453,1.45779065 3.50563941,1.06904647 C3.56811615,0.680302302 2.86004641,0.256848828 1.92289528,0.111069764 L1.92289528,0.111069764 Z" fill="#F6CD62"></path>
                    <path d="M1.90901156,0.222139527 C1.07598833,0.0902441829 0.360976731,0.242965108 0.31238371,0.555348818 C0.263790688,0.867732528 0.902441829,1.22870926 1.73546506,1.3606046 C2.56848828,1.49249995 3.28349988,1.33977902 3.33209291,1.02739531 C3.37374407,0.708069743 2.74203479,0.354034871 1.90901156,0.222139527 L1.90901156,0.222139527 Z" fill="#F4AB1D"></path>
                    <path d="M2.36023248,1.1523488 C2.33940689,1.15929066 2.30469759,1.17317438 2.26998829,1.18011624 C2.23527899,1.1870581 2.19362783,1.19399996 2.14503481,1.20094182 C2.09644179,1.20788368 2.04090691,1.20788368 1.98537202,1.20788368 C1.92289528,1.20788368 1.86041854,1.20094182 1.78405808,1.19399996 L1.77017436,1.291186 L1.61745343,1.26341856 L1.63133715,1.15929066 C1.56191855,1.14540694 1.49944181,1.12458136 1.44390693,1.10375578 C1.38837204,1.08293019 1.33977902,1.06210461 1.30506972,1.03433717 C1.27036042,1.01351159 1.23565112,0.985744151 1.2217674,0.957976711 C1.20094182,0.93020927 1.19399996,0.902441829 1.20094182,0.874674388 C1.20788368,0.839965087 1.2217674,0.812197646 1.2564767,0.791372065 C1.28424414,0.770546485 1.3258953,0.756662764 1.37448832,0.742779044 C1.42308135,0.735837183 1.47167437,0.728895323 1.53415111,0.721953463 L1.71463947,0.721953463 L1.74934878,0.492872076 C1.67298831,0.485930215 1.61051157,0.485930215 1.56886041,0.499813936 C1.52720925,0.506755796 1.49249995,0.520639517 1.47167437,0.527581377 L1.31895344,0.444279054 C1.33283716,0.437337194 1.34672088,0.430395334 1.37448832,0.423453473 C1.3953139,0.416511613 1.43002321,0.409569753 1.46473251,0.409569753 C1.49944181,0.402627893 1.54109297,0.402627893 1.58968599,0.402627893 C1.63827901,0.402627893 1.69381389,0.402627893 1.7632325,0.409569753 L1.77711622,0.30544185 L1.92983714,0.333209291 L1.91595342,0.437337194 C1.99231388,0.451220914 2.06173249,0.472046495 2.12420923,0.492872076 C2.17974411,0.513697656 2.22833713,0.534523237 2.26304643,0.562290678 C2.29775573,0.583116259 2.32552317,0.610883699 2.33940689,0.63865114 C2.35329061,0.666418581 2.36023248,0.687244162 2.36023248,0.715011603 C2.35329061,0.749720904 2.33940689,0.777488345 2.30469759,0.798313925 C2.27693015,0.819139506 2.23527899,0.833023227 2.18668597,0.839965087 C2.13809295,0.846906947 2.08949993,0.853848807 2.02702318,0.853848807 L1.84653482,0.853848807 L1.80488366,1.09681391 C1.85347668,1.10375578 1.89512784,1.10375578 1.936779,1.10375578 C1.97843016,1.10375578 2.01313946,1.10375578 2.04784877,1.09681391 C2.08255807,1.08987205 2.11032551,1.08987205 2.13809295,1.07598833 C2.16586039,1.06904647 2.19362783,1.06210461 2.21445341,1.05516275 L2.36023248,1.1523488 L2.36023248,1.1523488 Z M1.86041854,0.742779044 L1.99231388,0.742779044 C2.02702318,0.742779044 2.05479063,0.735837183 2.07561621,0.728895323 C2.09644179,0.721953463 2.11032551,0.715011603 2.11726737,0.708069743 C2.12420923,0.701127882 2.13115109,0.687244162 2.13115109,0.673360441 C2.13809295,0.645593001 2.11726737,0.62476742 2.08255807,0.596999979 C2.04784877,0.569232538 1.98537202,0.548406957 1.89512784,0.527581377 L1.86041854,0.742779044 L1.86041854,0.742779044 Z M1.68687203,0.833023227 C1.58968599,0.833023227 1.52026739,0.839965087 1.48555809,0.853848807 C1.45084879,0.867732528 1.43002321,0.888558108 1.42308135,0.916325549 C1.41613949,0.95103485 1.43002321,0.978802291 1.47167437,1.00656973 C1.50638367,1.03433717 1.56886041,1.05516275 1.65216273,1.07598833 L1.68687203,0.833023227 L1.68687203,0.833023227 Z" fill="#F6CD62"></path>
                    <g transform="translate(0.000000, 0.416512)">
                        <path d="M0.0763604624,0.388744172 L0.0763604624,0.367918592 L0.131895344,0.0694186022 C0.0555348818,0.451220914 0.749720904,0.909383689 1.68687203,1.08293019 L1.69381389,1.08293019 L1.70075575,1.08293019 C2.63790688,1.22870926 3.44316267,1.03433717 3.50563941,0.645593001 L3.45704639,0.95103485 C3.45704639,0.957976711 3.45010453,0.964918571 3.45010453,0.971860431 L3.43622081,1.07598833 L3.43622081,1.08293019 L3.42233709,1.18011624 C3.41539523,1.21482554 3.40151151,1.24953484 3.38068593,1.28424414 C3.38068593,1.28424414 3.38068593,1.291186 3.37374407,1.291186 C3.18631384,1.58274413 2.45741852,1.70769761 1.61745343,1.57580227 L1.60356971,1.57580227 L1.58968599,1.57580227 C0.756662764,1.41613949 0.111069764,1.05516275 0.0347093011,0.715011603 L0.0347093011,0.701127882 C0.0277674409,0.666418581 0.0277674409,0.63170928 0.0347093011,0.590058119 L0.0555348818,0.492872076 L0.0555348818,0.485930215 L0.0763604624,0.388744172 L0.0763604624,0.388744172 Z" fill="#F4AB1D"></path>
                        <path d="M3.51258127,0.652534861 L3.46398825,0.957976711 C3.46398825,0.964918571 3.45704639,0.971860431 3.45704639,0.978802291 L3.44316267,1.08293019 L3.44316267,1.08987205 L3.42233709,1.18011624 C3.41539523,1.21482554 3.40151151,1.24953484 3.38068593,1.28424414 C3.38068593,1.28424414 3.38068593,1.291186 3.37374407,1.291186 C3.29738361,1.40919762 3.1238371,1.49944181 2.88781385,1.56191855 L2.97111617,1.06210461 C3.28349988,0.971860431 3.48481383,0.833023227 3.51258127,0.652534861 L3.51258127,0.652534861 Z" fill="#F6CD62"></path>
                        <path fill="#E99523" d="M0.0416511613,0.715011603 L0.0416511613,0.701127882 C0.0347093011,0.666418581 0.0347093011,0.63170928 0.0416511613,0.590058119 L0.062476742,0.492872076 L0.062476742,0.485930215 L0.0833023227,0.381802312 L0.0833023227,0.360976731 L0.138837204,0.062476742 C0.104127903,0.236023248 0.229081387,0.423453473 0.458162775,0.590058119 L0.374860452,1.08987205 C0.187430226,0.971860431 0.0694186022,0.839965087 0.0416511613,0.715011603 L0.0416511613,0.715011603 Z"></path>
                    </g>
                </g>
                <g transform="translate(0.694186, 2.429651)" id="Shape">
                    <path d="M1.89512784,0.0971860431 C0.957976711,-0.0485930215 0.152720925,0.145779065 0.0971860431,0.534523237 C0.0347093011,0.923267409 0.742779044,1.34672088 1.67993017,1.49249995 C2.6170813,1.63827901 3.42233709,1.44390693 3.47787197,1.05516275 C3.54034871,0.673360441 2.83227897,0.242965108 1.89512784,0.0971860431 L1.89512784,0.0971860431 Z" fill="#F6CD62"></path>
                    <path d="M1.88124412,0.208255807 C1.04822089,0.0763604624 0.333209291,0.229081387 0.284616269,0.541465097 C0.236023248,0.853848807 0.874674388,1.21482554 1.70769761,1.34672088 C2.54072084,1.47861623 3.25573244,1.3258953 3.30432547,1.01351159 C3.34597663,0.701127882 2.71426735,0.340151151 1.88124412,0.208255807 L1.88124412,0.208255807 Z" fill="#F4AB1D"></path>
                    <path d="M2.33246503,1.14540694 C2.31163945,1.1523488 2.27693015,1.16623252 2.24222085,1.17317438 C2.20751155,1.18011624 2.16586039,1.1870581 2.11726737,1.19399996 C2.06867435,1.20094182 2.01313946,1.20094182 1.95760458,1.20094182 C1.89512784,1.20094182 1.8326511,1.19399996 1.75629064,1.1870581 L1.74240692,1.28424414 L1.58968599,1.2564767 L1.60356971,1.1523488 C1.53415111,1.13846508 1.47167437,1.1176395 1.41613949,1.09681391 C1.3606046,1.07598833 1.31201158,1.05516275 1.27730228,1.02739531 C1.24259298,0.999627872 1.20788368,0.978802291 1.19399996,0.95103485 C1.17317438,0.923267409 1.16623252,0.895499969 1.17317438,0.867732528 C1.18011624,0.833023227 1.19399996,0.805255786 1.22870926,0.784430205 C1.2564767,0.763604624 1.29812786,0.749720904 1.34672088,0.735837183 C1.3953139,0.728895323 1.44390693,0.721953463 1.50638367,0.715011603 L1.68687203,0.715011603 L1.72158133,0.485930215 C1.64522087,0.478988355 1.58274413,0.478988355 1.54109297,0.492872076 C1.49944181,0.499813936 1.46473251,0.513697656 1.44390693,0.520639517 L1.291186,0.430395334 C1.30506972,0.423453473 1.31895344,0.416511613 1.34672088,0.409569753 C1.36754646,0.402627893 1.40225576,0.395686033 1.43696507,0.388744172 C1.47167437,0.381802312 1.51332553,0.381802312 1.56191855,0.381802312 C1.61051157,0.381802312 1.66604645,0.381802312 1.73546506,0.388744172 L1.74934878,0.284616269 L1.9020697,0.31238371 L1.88818598,0.416511613 C1.96454644,0.430395334 2.03396504,0.451220914 2.09644179,0.472046495 C2.15197667,0.492872076 2.20056969,0.513697656 2.23527899,0.541465097 C2.26998829,0.562290678 2.29775573,0.590058119 2.31163945,0.61782556 C2.32552317,0.645593001 2.33246503,0.666418581 2.33246503,0.694186022 C2.32552317,0.728895323 2.31163945,0.756662764 2.27693015,0.777488345 C2.24916271,0.798313925 2.20751155,0.812197646 2.15891853,0.819139506 C2.11032551,0.826081366 2.06173249,0.833023227 1.99925574,0.833023227 L1.81876738,0.833023227 L1.77711622,1.08987205 C1.82570924,1.09681391 1.8673604,1.09681391 1.90901156,1.09681391 C1.95066272,1.09681391 1.98537202,1.09681391 2.02008132,1.08987205 C2.05479063,1.08293019 2.08255807,1.08293019 2.11032551,1.07598833 C2.13809295,1.06904647 2.16586039,1.06210461 2.18668597,1.05516275 L2.33246503,1.14540694 L2.33246503,1.14540694 Z M1.8326511,0.728895323 L1.96454644,0.728895323 C1.99925574,0.728895323 2.02702318,0.721953463 2.04784877,0.715011603 C2.06867435,0.708069743 2.08255807,0.701127882 2.08949993,0.694186022 C2.09644179,0.687244162 2.10338365,0.673360441 2.10338365,0.659476721 C2.11032551,0.63170928 2.08949993,0.610883699 2.05479063,0.583116259 C2.02008132,0.555348818 1.95760458,0.534523237 1.8673604,0.513697656 L1.8326511,0.728895323 L1.8326511,0.728895323 Z M1.65910459,0.826081366 C1.56191855,0.826081366 1.49249995,0.833023227 1.45779065,0.846906947 C1.42308135,0.860790667 1.40225576,0.881616248 1.3953139,0.909383689 C1.38837204,0.94409299 1.40225576,0.971860431 1.44390693,0.999627872 C1.47861623,1.02739531 1.54109297,1.04822089 1.62439529,1.06904647 L1.65910459,0.826081366 L1.65910459,0.826081366 Z" fill="#F6CD62"></path>
                    <g transform="translate(0.000000, 0.416512)">
                        <path d="M0.0485930215,0.374860452 L0.0485930215,0.354034871 L0.104127903,0.0555348818 C0.0277674409,0.437337194 0.721953463,0.895499969 1.65910459,1.06904647 L1.66604645,1.06904647 L1.67298831,1.06904647 C2.61013944,1.21482554 3.41539523,1.02045345 3.47787197,0.63170928 L3.42927895,0.93715113 C3.42927895,0.94409299 3.42233709,0.95103485 3.42233709,0.957976711 L3.40845337,1.06210461 L3.40845337,1.06904647 L3.39456965,1.16623252 C3.38762779,1.20094182 3.37374407,1.23565112 3.35291849,1.27036042 C3.35291849,1.27036042 3.35291849,1.27730228 3.34597663,1.27730228 C3.1585464,1.56886041 2.42965108,1.69381389 1.58968599,1.56191855 L1.57580227,1.56191855 L1.56191855,1.56191855 C0.728895323,1.40225576 0.0833023227,1.04127903 0.00694186022,0.701127882 L0.00694186022,0.687244162 C4.70326902e-16,0.652534861 4.70326902e-16,0.610883699 0.00694186022,0.576174398 L0.0277674409,0.478988355 L0.0277674409,0.472046495 L0.0485930215,0.374860452 L0.0485930215,0.374860452 Z" fill="#F4AB1D"></path>
                        <path d="M3.48481383,0.63865114 L3.43622081,0.94409299 C3.43622081,0.95103485 3.42927895,0.957976711 3.42927895,0.964918571 L3.41539523,1.06904647 L3.41539523,1.07598833 L3.40151151,1.17317438 C3.39456965,1.20788368 3.38068593,1.24259298 3.35986035,1.27730228 C3.35986035,1.27730228 3.35986035,1.28424414 3.35291849,1.28424414 C3.27655802,1.40225576 3.10301152,1.49249995 2.86698827,1.55497669 L2.95029059,1.05516275 C3.25573244,0.964918571 3.45704639,0.819139506 3.48481383,0.63865114 L3.48481383,0.63865114 Z" fill="#F6CD62"></path>
                        <path fill="#E99523" d="M0.0138837204,0.701127882 L0.0138837204,0.687244162 C0.00694186022,0.652534861 0.00694186022,0.610883699 0.0138837204,0.576174398 L0.0347093011,0.478988355 L0.0347093011,0.472046495 L0.0555348818,0.367918592 L0.0555348818,0.347093011 L0.111069764,0.0485930215 C0.0763604624,0.222139527 0.201313946,0.409569753 0.430395334,0.576174398 L0.347093011,1.07598833 C0.159662785,0.964918571 0.0416511613,0.826081366 0.0138837204,0.701127882 L0.0138837204,0.701127882 Z"></path>
                    </g>
                </g>
                <g transform="translate(0.763605, 1.874302)" id="Shape">
                    <path d="M1.92983714,0.0485930215 C0.992686012,-0.0971860431 0.187430226,0.0971860431 0.131895344,0.485930215 C0.0694186022,0.874674388 0.777488345,1.29812786 1.71463947,1.44390693 C2.6517906,1.58968599 3.45704639,1.3953139 3.51258127,1.00656973 C3.57505801,0.62476742 2.86698827,0.194372086 1.92983714,0.0485930215 L1.92983714,0.0485930215 Z" fill="#F6CD62"></path>
                    <path d="M1.91595342,0.159662785 C1.08293019,0.0277674409 0.367918592,0.180488366 0.31932557,0.492872076 C0.270732549,0.805255786 0.909383689,1.16623252 1.74240692,1.29812786 C2.57543014,1.43002321 3.29044174,1.27730228 3.33903477,0.964918571 C3.38068593,0.645593001 2.74897665,0.291558129 1.91595342,0.159662785 L1.91595342,0.159662785 Z" fill="#F4AB1D"></path>
                    <path d="M2.36717434,1.08987205 C2.34634875,1.09681391 2.31163945,1.11069764 2.27693015,1.1176395 C2.24222085,1.12458136 2.20056969,1.13152322 2.15197667,1.13846508 C2.10338365,1.14540694 2.04784877,1.14540694 1.99231388,1.14540694 C1.92983714,1.14540694 1.8673604,1.13846508 1.79099994,1.13152322 L1.77711622,1.22870926 L1.62439529,1.20094182 L1.63827901,1.09681391 C1.56886041,1.08293019 1.50638367,1.06210461 1.45084879,1.04127903 C1.3953139,1.02045345 1.34672088,0.999627872 1.31201158,0.971860431 C1.27730228,0.95103485 1.24259298,0.923267409 1.22870926,0.895499969 C1.20788368,0.867732528 1.20094182,0.839965087 1.20788368,0.812197646 C1.21482554,0.777488345 1.22870926,0.749720904 1.26341856,0.728895323 C1.291186,0.708069743 1.33283716,0.694186022 1.38143018,0.680302302 C1.43002321,0.673360441 1.47861623,0.666418581 1.54109297,0.659476721 L1.72158133,0.659476721 L1.75629064,0.430395334 C1.67993017,0.423453473 1.61745343,0.423453473 1.57580227,0.437337194 C1.53415111,0.444279054 1.49944181,0.458162775 1.47861623,0.465104635 L1.3258953,0.374860452 C1.33977902,0.367918592 1.35366274,0.360976731 1.38143018,0.354034871 C1.40225576,0.347093011 1.43696507,0.340151151 1.47167437,0.340151151 C1.50638367,0.333209291 1.54803483,0.333209291 1.59662785,0.333209291 C1.64522087,0.333209291 1.70075575,0.333209291 1.77017436,0.340151151 L1.78405808,0.236023248 L1.936779,0.263790688 L1.92289528,0.367918592 C1.99925574,0.381802312 2.06867435,0.402627893 2.13115109,0.423453473 C2.18668597,0.444279054 2.23527899,0.465104635 2.26998829,0.492872076 C2.30469759,0.513697656 2.33246503,0.541465097 2.34634875,0.569232538 C2.36023248,0.596999979 2.36717434,0.61782556 2.36717434,0.645593001 C2.36023248,0.680302302 2.34634875,0.708069743 2.31163945,0.728895323 C2.28387201,0.749720904 2.24222085,0.763604624 2.19362783,0.770546485 C2.14503481,0.777488345 2.09644179,0.784430205 2.03396504,0.784430205 L1.85347668,0.784430205 L1.81182552,1.04127903 C1.86041854,1.04822089 1.9020697,1.04822089 1.94372086,1.04822089 C1.98537202,1.04822089 2.02008132,1.04822089 2.05479063,1.04127903 C2.08949993,1.03433717 2.11726737,1.03433717 2.14503481,1.02739531 C2.17280225,1.02045345 2.20056969,1.01351159 2.22139527,1.00656973 L2.36717434,1.08987205 L2.36717434,1.08987205 Z M1.8673604,0.680302302 L1.99925574,0.680302302 C2.03396504,0.680302302 2.06173249,0.673360441 2.08255807,0.666418581 C2.10338365,0.659476721 2.11726737,0.652534861 2.12420923,0.645593001 C2.13115109,0.63865114 2.13809295,0.62476742 2.13809295,0.610883699 C2.14503481,0.583116259 2.12420923,0.562290678 2.08949993,0.534523237 C2.05479063,0.506755796 1.99231388,0.485930215 1.9020697,0.465104635 L1.8673604,0.680302302 L1.8673604,0.680302302 Z M1.69381389,0.770546485 C1.59662785,0.770546485 1.52720925,0.777488345 1.49249995,0.791372065 C1.45779065,0.805255786 1.43696507,0.826081366 1.43002321,0.853848807 C1.42308135,0.888558108 1.43696507,0.916325549 1.47861623,0.94409299 C1.51332553,0.971860431 1.57580227,0.992686012 1.65910459,1.01351159 L1.69381389,0.770546485 L1.69381389,0.770546485 Z" fill="#F6CD62"></path>
                    <g transform="translate(0.000000, 0.416512)">
                        <path d="M0.0833023227,0.32626743 L0.0833023227,0.30544185 L0.138837204,0.00694186022 C0.0694186022,0.388744172 0.763604624,0.846906947 1.69381389,1.02045345 L1.70075575,1.02045345 L1.70769761,1.02045345 C2.64484874,1.16623252 3.45010453,0.971860431 3.51258127,0.583116259 L3.47093011,0.888558108 C3.47093011,0.895499969 3.46398825,0.902441829 3.46398825,0.909383689 L3.45010453,1.01351159 L3.45010453,1.02045345 L3.43622081,1.1176395 C3.42927895,1.1523488 3.41539523,1.1870581 3.39456965,1.2217674 C3.39456965,1.2217674 3.39456965,1.22870926 3.38762779,1.22870926 C3.20019756,1.52026739 2.47130224,1.64522087 1.63133715,1.51332553 L1.61745343,1.51332553 L1.60356971,1.51332553 C0.770546485,1.35366274 0.124953484,0.992686012 0.0485930215,0.652534861 L0.0485930215,0.63865114 C0.0416511613,0.603941839 0.0416511613,0.569232538 0.0485930215,0.527581377 L0.0694186022,0.430395334 L0.0694186022,0.423453473 L0.0833023227,0.32626743 L0.0833023227,0.32626743 Z" fill="#F4AB1D"></path>
                        <path d="M3.51952313,0.590058119 L3.47093011,0.888558108 C3.47093011,0.895499969 3.46398825,0.902441829 3.46398825,0.909383689 L3.45010453,1.01351159 L3.45010453,1.02045345 L3.43622081,1.1176395 C3.42927895,1.1523488 3.41539523,1.1870581 3.39456965,1.2217674 C3.39456965,1.2217674 3.39456965,1.22870926 3.38762779,1.22870926 C3.31126733,1.34672088 3.13772082,1.43696507 2.90169757,1.49944181 L2.9849999,0.999627872 C3.29044174,0.909383689 3.49175569,0.770546485 3.51952313,0.590058119 L3.51952313,0.590058119 Z" fill="#F6CD62"></path>
                        <path fill="#E99523" d="M0.0485930215,0.652534861 L0.0485930215,0.63865114 C0.0416511613,0.603941839 0.0416511613,0.569232538 0.0485930215,0.527581377 L0.0694186022,0.430395334 L0.0694186022,0.423453473 L0.0902441829,0.31932557 L0.0902441829,0.29849999 L0.145779065,0 C0.111069764,0.173546506 0.236023248,0.360976731 0.465104635,0.527581377 L0.374860452,1.04127903 C0.194372086,0.916325549 0.0763604624,0.777488345 0.0485930215,0.652534861 L0.0485930215,0.652534861 Z"></path>
                    </g>
                </g>
                <g transform="translate(0.902442, 1.249535)" id="Shape">
                    <path d="M1.89512784,0.0694186022 C0.957976711,-0.0763604624 0.152720925,0.118011624 0.0971860431,0.506755796 C0.0347093011,0.895499969 0.742779044,1.31895344 1.67993017,1.46473251 C2.6170813,1.61051157 3.42233709,1.41613949 3.47787197,1.02739531 C3.54034871,0.63865114 2.83227897,0.215197667 1.89512784,0.0694186022 L1.89512784,0.0694186022 Z" fill="#F6CD62"></path>
                    <path d="M1.88124412,0.173546506 C1.04822089,0.0416511613 0.333209291,0.194372086 0.284616269,0.506755796 C0.236023248,0.819139506 0.874674388,1.18011624 1.70769761,1.31201158 C2.54072084,1.44390693 3.25573244,1.291186 3.30432547,0.978802291 C3.34597663,0.666418581 2.71426735,0.30544185 1.88124412,0.173546506 L1.88124412,0.173546506 Z" fill="#F4AB1D"></path>
                    <path d="M2.33246503,1.11069764 C2.31163945,1.1176395 2.27693015,1.13152322 2.24222085,1.13846508 C2.20751155,1.14540694 2.16586039,1.1523488 2.11726737,1.15929066 C2.06867435,1.16623252 2.01313946,1.16623252 1.95760458,1.16623252 C1.89512784,1.16623252 1.8326511,1.15929066 1.75629064,1.1523488 L1.74240692,1.24953484 L1.58968599,1.2217674 L1.60356971,1.1176395 C1.53415111,1.10375578 1.47167437,1.08293019 1.41613949,1.06210461 C1.3606046,1.04127903 1.31201158,1.02045345 1.27730228,0.992686012 C1.24259298,0.964918571 1.20788368,0.94409299 1.19399996,0.916325549 C1.17317438,0.888558108 1.16623252,0.860790667 1.17317438,0.833023227 C1.18011624,0.798313925 1.19399996,0.770546485 1.22870926,0.749720904 C1.2564767,0.728895323 1.29812786,0.715011603 1.34672088,0.701127882 C1.3953139,0.694186022 1.44390693,0.687244162 1.50638367,0.680302302 L1.68687203,0.680302302 L1.72158133,0.451220914 C1.64522087,0.444279054 1.58274413,0.444279054 1.54109297,0.458162775 C1.49944181,0.465104635 1.46473251,0.478988355 1.44390693,0.485930215 L1.291186,0.395686033 C1.30506972,0.388744172 1.31895344,0.381802312 1.34672088,0.374860452 C1.36754646,0.367918592 1.40225576,0.360976731 1.43696507,0.360976731 C1.47167437,0.354034871 1.51332553,0.354034871 1.56191855,0.354034871 C1.61051157,0.354034871 1.66604645,0.354034871 1.73546506,0.360976731 L1.74934878,0.256848828 L1.9020697,0.284616269 L1.88818598,0.388744172 C1.96454644,0.402627893 2.03396504,0.423453473 2.09644179,0.444279054 C2.15197667,0.465104635 2.20056969,0.485930215 2.23527899,0.513697656 C2.26998829,0.534523237 2.29775573,0.562290678 2.31163945,0.590058119 C2.32552317,0.61782556 2.33246503,0.63865114 2.33246503,0.666418581 C2.32552317,0.701127882 2.31163945,0.728895323 2.27693015,0.749720904 C2.24916271,0.770546485 2.20751155,0.784430205 2.15891853,0.791372065 C2.11032551,0.798313925 2.06173249,0.805255786 1.99925574,0.805255786 L1.81876738,0.805255786 L1.77711622,1.06210461 C1.82570924,1.06904647 1.8673604,1.06904647 1.90901156,1.06904647 C1.95066272,1.06904647 1.98537202,1.06904647 2.02008132,1.06210461 C2.05479063,1.05516275 2.08255807,1.05516275 2.11032551,1.04127903 C2.13809295,1.03433717 2.16586039,1.02739531 2.18668597,1.02045345 L2.33246503,1.11069764 L2.33246503,1.11069764 Z M1.8326511,0.701127882 L1.96454644,0.701127882 C1.99925574,0.701127882 2.02702318,0.694186022 2.04784877,0.687244162 C2.06867435,0.680302302 2.08255807,0.673360441 2.08949993,0.666418581 C2.09644179,0.659476721 2.10338365,0.645593001 2.10338365,0.63170928 C2.11032551,0.603941839 2.08949993,0.583116259 2.05479063,0.555348818 C2.02008132,0.527581377 1.95760458,0.506755796 1.8673604,0.485930215 L1.8326511,0.701127882 L1.8326511,0.701127882 Z M1.65910459,0.791372065 C1.56191855,0.791372065 1.49249995,0.798313925 1.45779065,0.812197646 C1.42308135,0.826081366 1.40225576,0.846906947 1.3953139,0.874674388 C1.38837204,0.909383689 1.40225576,0.93715113 1.44390693,0.964918571 C1.47861623,0.992686012 1.54109297,1.01351159 1.62439529,1.03433717 L1.65910459,0.791372065 L1.65910459,0.791372065 Z" fill="#F6CD62"></path>
                    <g transform="translate(0.000000, 0.416512)">
                        <path d="M0.0485930215,0.340151151 L0.0485930215,0.31932557 L0.104127903,0.0208255807 C0.0277674409,0.402627893 0.721953463,0.860790667 1.65910459,1.03433717 L1.66604645,1.03433717 L1.67298831,1.03433717 C2.61013944,1.18011624 3.41539523,0.985744151 3.47787197,0.596999979 L3.42927895,0.902441829 C3.42927895,0.909383689 3.42233709,0.916325549 3.42233709,0.923267409 L3.40845337,1.02739531 L3.40845337,1.03433717 L3.39456965,1.13152322 C3.38762779,1.16623252 3.37374407,1.20094182 3.35291849,1.23565112 C3.35291849,1.23565112 3.35291849,1.24259298 3.34597663,1.24259298 C3.1585464,1.53415111 2.42965108,1.65910459 1.58968599,1.52720925 L1.57580227,1.52720925 L1.56191855,1.52720925 C0.728895323,1.36754646 0.0833023227,1.00656973 0.00694186022,0.666418581 L0.00694186022,0.652534861 C4.70326902e-16,0.61782556 4.70326902e-16,0.583116259 0.00694186022,0.541465097 L0.0277674409,0.444279054 L0.0277674409,0.437337194 L0.0485930215,0.340151151 L0.0485930215,0.340151151 Z" fill="#F4AB1D"></path>
                        <path d="M3.48481383,0.603941839 L3.43622081,0.909383689 C3.43622081,0.916325549 3.42927895,0.923267409 3.42927895,0.93020927 L3.41539523,1.03433717 L3.41539523,1.04127903 L3.40151151,1.13846508 C3.39456965,1.17317438 3.38068593,1.20788368 3.35986035,1.24259298 C3.35986035,1.24259298 3.35986035,1.24953484 3.35291849,1.24953484 C3.27655802,1.36754646 3.10301152,1.45779065 2.86698827,1.52026739 L2.95029059,1.02045345 C3.25573244,0.93020927 3.45704639,0.791372065 3.48481383,0.603941839 L3.48481383,0.603941839 Z" fill="#F6CD62"></path>
                        <path fill="#E99523" d="M0.0138837204,0.666418581 L0.0138837204,0.652534861 C0.00694186022,0.61782556 0.00694186022,0.583116259 0.0138837204,0.541465097 L0.0347093011,0.444279054 L0.0347093011,0.437337194 L0.0555348818,0.333209291 L0.0555348818,0.31238371 L0.111069764,0.0138837204 C0.0763604624,0.187430226 0.201313946,0.374860452 0.430395334,0.541465097 L0.347093011,1.04127903 C0.159662785,0.93020927 0.0416511613,0.798313925 0.0138837204,0.666418581 L0.0138837204,0.666418581 Z"></path>
                    </g>
                </g>
                <g transform="translate(0.971860, 0.624767)" id="Shape">
                    <path d="M1.936779,0.0555348818 C0.999627872,-0.0902441829 0.194372086,0.104127903 0.138837204,0.492872076 C0.0763604624,0.881616248 0.784430205,1.30506972 1.72158133,1.45084879 C2.65873246,1.59662785 3.46398825,1.40225576 3.51952313,1.01351159 C3.58199987,0.62476742 2.87393013,0.201313946 1.936779,0.0555348818 L1.936779,0.0555348818 Z" fill="#F6CD62"></path>
                    <path d="M1.91595342,0.166604645 C1.08293019,0.0347093011 0.367918592,0.187430226 0.31932557,0.499813936 C0.270732549,0.812197646 0.909383689,1.17317438 1.74240692,1.30506972 C2.57543014,1.43696507 3.29044174,1.28424414 3.33903477,0.971860431 C3.38762779,0.652534861 2.75591851,0.29849999 1.91595342,0.166604645 L1.91595342,0.166604645 Z" fill="#F4AB1D"></path>
                    <path d="M2.3741162,1.09681391 C2.35329061,1.10375578 2.31858131,1.1176395 2.28387201,1.12458136 C2.24916271,1.13152322 2.20751155,1.13846508 2.15891853,1.14540694 C2.11032551,1.1523488 2.05479063,1.1523488 1.99925574,1.1523488 C1.936779,1.1523488 1.87430226,1.14540694 1.7979418,1.13846508 L1.78405808,1.23565112 L1.63133715,1.20788368 L1.64522087,1.10375578 C1.57580227,1.08987205 1.51332553,1.06904647 1.45779065,1.04822089 C1.40225576,1.02739531 1.35366274,1.00656973 1.31895344,0.978802291 C1.28424414,0.957976711 1.24953484,0.93020927 1.23565112,0.902441829 C1.21482554,0.874674388 1.20788368,0.846906947 1.21482554,0.819139506 C1.2217674,0.784430205 1.23565112,0.756662764 1.27036042,0.735837183 C1.29812786,0.715011603 1.33977902,0.701127882 1.38837204,0.687244162 C1.43696507,0.680302302 1.48555809,0.673360441 1.54803483,0.666418581 L1.7285232,0.666418581 L1.7632325,0.437337194 C1.68687203,0.430395334 1.62439529,0.430395334 1.58274413,0.444279054 C1.54109297,0.451220914 1.50638367,0.465104635 1.48555809,0.472046495 L1.33283716,0.381802312 C1.34672088,0.374860452 1.3606046,0.367918592 1.38837204,0.360976731 C1.40919762,0.354034871 1.44390693,0.347093011 1.47861623,0.347093011 C1.50638367,0.347093011 1.54803483,0.347093011 1.59662785,0.347093011 C1.64522087,0.347093011 1.70075575,0.347093011 1.77017436,0.354034871 L1.78405808,0.249906968 L1.936779,0.277674409 L1.92289528,0.381802312 C1.99925574,0.395686033 2.06867435,0.416511613 2.13115109,0.437337194 C2.18668597,0.458162775 2.23527899,0.478988355 2.26998829,0.506755796 C2.30469759,0.527581377 2.33246503,0.555348818 2.34634875,0.583116259 C2.36023248,0.610883699 2.36717434,0.63170928 2.36717434,0.659476721 C2.36023248,0.694186022 2.34634875,0.721953463 2.31163945,0.742779044 C2.28387201,0.763604624 2.24222085,0.777488345 2.19362783,0.784430205 C2.14503481,0.791372065 2.09644179,0.798313925 2.03396504,0.798313925 L1.85347668,0.798313925 L1.81876738,1.04127903 C1.8673604,1.04822089 1.90901156,1.04822089 1.95066272,1.04822089 C1.99231388,1.04822089 2.02702318,1.04822089 2.06173249,1.04127903 C2.09644179,1.03433717 2.12420923,1.03433717 2.15197667,1.02045345 C2.17974411,1.01351159 2.20751155,1.00656973 2.22833713,0.999627872 L2.3741162,1.09681391 L2.3741162,1.09681391 Z M1.87430226,0.687244162 L2.0061976,0.687244162 C2.04090691,0.687244162 2.06867435,0.680302302 2.08949993,0.673360441 C2.11032551,0.666418581 2.12420923,0.659476721 2.13115109,0.652534861 C2.13809295,0.645593001 2.14503481,0.63170928 2.14503481,0.61782556 C2.15197667,0.590058119 2.13115109,0.569232538 2.09644179,0.541465097 C2.06173249,0.513697656 1.99925574,0.492872076 1.90901156,0.472046495 L1.87430226,0.687244162 L1.87430226,0.687244162 Z M1.70075575,0.777488345 C1.60356971,0.777488345 1.53415111,0.784430205 1.49944181,0.798313925 C1.46473251,0.812197646 1.44390693,0.833023227 1.43696507,0.860790667 C1.43002321,0.895499969 1.44390693,0.923267409 1.48555809,0.95103485 C1.52026739,0.978802291 1.58274413,0.999627872 1.66604645,1.02045345 L1.70075575,0.777488345 L1.70075575,0.777488345 Z" fill="#F6CD62"></path>
                    <g transform="translate(0.000000, 0.416512)">
                        <path d="M0.0902441829,0.333209291 L0.0902441829,0.31238371 L0.145779065,0.0138837204 C0.0694186022,0.395686033 0.763604624,0.846906947 1.70075575,1.02739531 L1.70769761,1.02739531 L1.71463947,1.02739531 C2.6517906,1.17317438 3.45704639,0.978802291 3.51952313,0.590058119 L3.47093011,0.895499969 C3.47093011,0.902441829 3.46398825,0.909383689 3.46398825,0.916325549 L3.45010453,1.02045345 L3.45010453,1.02739531 L3.43622081,1.12458136 C3.42927895,1.15929066 3.41539523,1.19399996 3.39456965,1.22870926 C3.39456965,1.22870926 3.39456965,1.23565112 3.38762779,1.23565112 C3.20019756,1.52720925 2.47130224,1.65216273 1.63133715,1.52026739 L1.61745343,1.52026739 L1.60356971,1.52026739 C0.770546485,1.3606046 0.124953484,0.999627872 0.0485930215,0.659476721 L0.0485930215,0.645593001 C0.0416511613,0.610883699 0.0416511613,0.576174398 0.0485930215,0.534523237 L0.0694186022,0.437337194 L0.0694186022,0.430395334 L0.0902441829,0.333209291 L0.0902441829,0.333209291 Z" fill="#F4AB1D"></path>
                        <path d="M3.52646499,0.596999979 L3.47787197,0.902441829 C3.47787197,0.909383689 3.47093011,0.916325549 3.47093011,0.923267409 L3.45704639,1.02739531 L3.45704639,1.03433717 L3.44316267,1.13152322 C3.43622081,1.16623252 3.42233709,1.20094182 3.40151151,1.23565112 C3.40151151,1.23565112 3.40151151,1.24259298 3.39456965,1.24259298 C3.31820919,1.3606046 3.14466268,1.45084879 2.90863943,1.51332553 L2.99194176,1.01351159 C3.29738361,0.916325549 3.49175569,0.777488345 3.52646499,0.596999979 L3.52646499,0.596999979 Z" fill="#F6CD62"></path>
                        <path fill="#E99523" d="M0.0555348818,0.659476721 L0.0555348818,0.645593001 C0.0485930215,0.610883699 0.0485930215,0.576174398 0.0555348818,0.534523237 L0.0763604624,0.437337194 L0.0763604624,0.430395334 L0.0971860431,0.32626743 L0.0971860431,0.30544185 L0.152720925,0.00694186022 C0.118011624,0.180488366 0.242965108,0.367918592 0.472046495,0.534523237 L0.381802312,1.04127903 C0.201313946,0.916325549 0.0833023227,0.784430205 0.0555348818,0.659476721 L0.0555348818,0.659476721 Z"></path>
                    </g>
                </g>
                <g transform="translate(1.110698, 0.000000)" id="Shape">
                    <path d="M1.9020697,0.0763604624 C0.964918571,-0.0694186022 0.159662785,0.124953484 0.104127903,0.513697656 C0.0416511613,0.902441829 0.749720904,1.3258953 1.68687203,1.47167437 C2.62402316,1.61745343 3.42927895,1.42308135 3.48481383,1.03433717 C3.54729057,0.645593001 2.83922083,0.222139527 1.9020697,0.0763604624 L1.9020697,0.0763604624 Z" fill="#F6CD62"></path>
                    <path d="M1.88818598,0.187430226 C1.05516275,0.0555348818 0.340151151,0.208255807 0.291558129,0.520639517 C0.242965108,0.833023227 0.881616248,1.19399996 1.71463947,1.3258953 C2.5476627,1.45779065 3.2626743,1.30506972 3.31126733,0.992686012 C3.35291849,0.673360441 2.72120921,0.31238371 1.88818598,0.187430226 L1.88818598,0.187430226 Z" fill="#F4AB1D"></path>
                    <path d="M2.33940689,1.1176395 C2.31858131,1.12458136 2.28387201,1.13846508 2.24916271,1.14540694 C2.21445341,1.1523488 2.17280225,1.15929066 2.12420923,1.16623252 C2.07561621,1.17317438 2.02008132,1.17317438 1.96454644,1.17317438 C1.9020697,1.17317438 1.83959296,1.16623252 1.7632325,1.15929066 L1.74934878,1.2564767 L1.59662785,1.23565112 L1.61051157,1.13152322 C1.54109297,1.1176395 1.47861623,1.09681391 1.42308135,1.07598833 C1.36754646,1.05516275 1.31895344,1.03433717 1.28424414,1.00656973 C1.24953484,0.978802291 1.21482554,0.957976711 1.20094182,0.93020927 C1.18011624,0.902441829 1.17317438,0.874674388 1.18011624,0.846906947 C1.1870581,0.812197646 1.20094182,0.784430205 1.23565112,0.763604624 C1.26341856,0.742779044 1.30506972,0.728895323 1.35366274,0.715011603 C1.40225576,0.708069743 1.45084879,0.701127882 1.51332553,0.694186022 L1.69381389,0.694186022 L1.7285232,0.465104635 C1.65216273,0.458162775 1.58968599,0.458162775 1.54803483,0.472046495 C1.50638367,0.478988355 1.47167437,0.492872076 1.45084879,0.499813936 L1.29812786,0.409569753 C1.31201158,0.402627893 1.3258953,0.395686033 1.35366274,0.388744172 C1.37448832,0.381802312 1.40919762,0.374860452 1.44390693,0.367918592 C1.47861623,0.360976731 1.52026739,0.360976731 1.56886041,0.360976731 C1.61745343,0.360976731 1.67298831,0.360976731 1.74240692,0.367918592 L1.75629064,0.263790688 L1.90901156,0.291558129 L1.89512784,0.395686033 C1.9714883,0.409569753 2.04090691,0.430395334 2.10338365,0.451220914 C2.15891853,0.472046495 2.20751155,0.492872076 2.24222085,0.520639517 C2.27693015,0.541465097 2.30469759,0.569232538 2.31858131,0.596999979 C2.33246503,0.62476742 2.33940689,0.645593001 2.33940689,0.673360441 C2.33246503,0.708069743 2.31858131,0.735837183 2.28387201,0.756662764 C2.25610457,0.777488345 2.21445341,0.791372065 2.16586039,0.798313925 C2.11726737,0.805255786 2.06867435,0.812197646 2.0061976,0.812197646 L1.82570924,0.812197646 L1.78405808,1.06904647 C1.8326511,1.07598833 1.87430226,1.07598833 1.91595342,1.07598833 C1.95760458,1.07598833 1.99231388,1.07598833 2.02702318,1.06904647 C2.06173249,1.06210461 2.08949993,1.06210461 2.11726737,1.04822089 C2.14503481,1.04127903 2.17280225,1.03433717 2.19362783,1.02739531 L2.33940689,1.1176395 L2.33940689,1.1176395 Z M1.83959296,0.708069743 L1.9714883,0.708069743 C2.0061976,0.708069743 2.03396504,0.701127882 2.05479063,0.694186022 C2.07561621,0.687244162 2.08949993,0.680302302 2.09644179,0.673360441 C2.10338365,0.666418581 2.11032551,0.652534861 2.11032551,0.63865114 C2.11726737,0.610883699 2.09644179,0.590058119 2.06173249,0.562290678 C2.02702318,0.534523237 1.96454644,0.513697656 1.87430226,0.492872076 L1.83959296,0.708069743 L1.83959296,0.708069743 Z M1.66604645,0.798313925 C1.56886041,0.798313925 1.49944181,0.805255786 1.46473251,0.819139506 C1.43002321,0.833023227 1.40919762,0.853848807 1.40225576,0.881616248 C1.3953139,0.916325549 1.40919762,0.94409299 1.45084879,0.971860431 C1.48555809,0.999627872 1.54803483,1.02045345 1.63133715,1.04127903 L1.66604645,0.798313925 L1.66604645,0.798313925 Z" fill="#F6CD62"></path>
                    <g transform="translate(0.000000, 0.416512)">
                        <path d="M0.0555348818,0.354034871 L0.0555348818,0.333209291 L0.111069764,0.0347093011 C0.0347093011,0.416511613 0.735837183,0.867732528 1.66604645,1.04822089 L1.67298831,1.04822089 L1.67993017,1.04822089 C2.6170813,1.19399996 3.42233709,0.999627872 3.48481383,0.610883699 L3.43622081,0.916325549 C3.43622081,0.923267409 3.42927895,0.93020927 3.42927895,0.93715113 L3.42233709,1.04127903 L3.42233709,1.04822089 L3.40151151,1.13846508 C3.39456965,1.17317438 3.38068593,1.20788368 3.35986035,1.24259298 C3.35986035,1.24259298 3.35986035,1.24953484 3.35291849,1.24953484 C3.16548826,1.54109297 2.43659294,1.66604645 1.59662785,1.53415111 L1.58274413,1.53415111 L1.56886041,1.53415111 C0.735837183,1.37448832 0.0902441829,1.01351159 0.0138837204,0.673360441 L0.0138837204,0.659476721 C0.00694186022,0.62476742 0.00694186022,0.583116259 0.0138837204,0.548406957 L0.0347093011,0.451220914 L0.0347093011,0.444279054 L0.0555348818,0.354034871 L0.0555348818,0.354034871 Z" fill="#F4AB1D"></path>
                        <path d="M3.49175569,0.610883699 L3.44316267,0.916325549 C3.44316267,0.923267409 3.43622081,0.93020927 3.43622081,0.93715113 L3.42233709,1.04127903 L3.42233709,1.04822089 L3.40151151,1.13846508 C3.39456965,1.17317438 3.38068593,1.20788368 3.35986035,1.24259298 C3.35986035,1.24259298 3.35986035,1.24953484 3.35291849,1.24953484 C3.27655802,1.36754646 3.10301152,1.45779065 2.86698827,1.52026739 L2.95029059,1.02045345 C3.2626743,0.93715113 3.46398825,0.798313925 3.49175569,0.610883699 L3.49175569,0.610883699 Z" fill="#F6CD62"></path>
                        <path fill="#E99523" d="M0.0208255807,0.673360441 L0.0208255807,0.659476721 C0.0138837204,0.62476742 0.0138837204,0.583116259 0.0208255807,0.548406957 L0.0416511613,0.451220914 L0.0416511613,0.444279054 L0.062476742,0.340151151 L0.062476742,0.31932557 L0.118011624,0.0208255807 C0.0833023227,0.194372086 0.208255807,0.381802312 0.437337194,0.548406957 L0.347093011,1.06210461 C0.166604645,0.93715113 0.0485930215,0.805255786 0.0208255807,0.673360441 L0.0208255807,0.673360441 Z"></path>
                    </g>
                </g>
            </g>
            <g id="Group" transform="translate(13.536627, 1.874302)" sketch:type="MSShapeGroup">
                <path d="M2.2539526,1.72094268 L5.44162982,2.27087685 L5.00734704,4.78818419 L1.81966982,4.23825002 L2.2539526,1.72094268 L2.2539526,1.72094268 Z" id="Rectangle-path" fill="#8BC4E4"></path>
                <path d="M2.17081271,1.0489359 L5.75523946,1.66731681 L5.64548865,2.30348416 L2.0610619,1.68510325 L2.17081271,1.0489359 L2.17081271,1.0489359 Z" id="Rectangle-path" fill="#8BC4E4"></path>
                <path d="M0.358699801,7.17178157 L5.40015498,8.04152724 L5.2420194,8.95815545 L0.200564226,8.08840979 L0.358699801,7.17178157 L0.358699801,7.17178157 Z" id="Rectangle-path" fill="#8BC4E4"></path>
                <path d="M0.159243497,6.47765942 L5.823185,7.45479566 L5.71343419,8.090963 L0.0494926866,7.11382676 L0.159243497,6.47765942 L0.159243497,6.47765942 Z" id="Rectangle-path" fill="#8BC4E4"></path>
                <path d="M1.01414747,4.7896753 L5.58360752,5.57799294 L5.27559718,7.36336581 L0.706137129,6.57504816 L1.01414747,4.7896753 L1.01414747,4.7896753 Z" id="Rectangle-path" fill="#2B84B7"></path>
                <path d="M0.975003705,4.09528796 L5.85912718,4.93789095 L5.74347578,5.60826084 L0.859352314,4.76565785 L0.975003705,4.09528796 L0.975003705,4.09528796 Z" id="Rectangle-path" fill="#2B84B7"></path>
                <path d="M3.51202176,1.27992769 L4.40812845,1.43452292 L3.17254674,8.59653591 L2.27644006,8.44194068 L3.51202176,1.27992769 L3.51202176,1.27992769 Z" id="Rectangle-path" fill="#F6A61C"></path>
                <path d="M2.25243927,1.72361669 L5.44011649,2.27355085 L5.42359487,2.36931798 L2.23591764,1.81938382 L2.25243927,1.72361669 L2.25243927,1.72361669 Z" id="Rectangle-path" opacity="0.2" fill="#010101"></path>
                <path d="M1.01717689,4.79190225 L5.58663695,5.58021989 L5.56303462,5.71703007 L0.99357457,4.92871243 L1.01717689,4.79190225 L1.01717689,4.79190225 Z" id="Rectangle-path" opacity="0.2" fill="#010101"></path>
                <path d="M0.35716565,7.17240218 L5.39862083,8.04214784 L5.3820992,8.13791497 L0.340644023,7.2681693 L0.35716565,7.17240218 L0.35716565,7.17240218 Z" id="Rectangle-path" opacity="0.2" fill="#010101"></path>
                <g transform="translate(2.360232, 0.000000)" id="Shape" fill="#F6A61C">
                    <path d="M1.62439529,1.35366274 L0.971860431,0.124953484 C0.902441829,-0.00694186022 0.715011603,-0.0208255807 0.62476742,0.0971860431 L0.062476742,0.833023227 C-0.0208255807,0.94409299 0.0277674409,1.10375578 0.159662785,1.1523488 L1.57580227,1.65910459 L1.62439529,1.35366274 L1.62439529,1.35366274 Z"></path>
                    <path d="M1.61051157,1.33283716 L2.63790688,0.388744172 C2.74897665,0.284616269 2.92946501,0.333209291 2.97111617,0.478988355 L3.25573244,1.3606046 C3.29738361,1.49249995 3.20019756,1.63133715 3.06136036,1.63133715 L1.56191855,1.63827901 L1.61051157,1.33283716 L1.61051157,1.33283716 Z"></path>
                </g>
            </g>
        </g>
    </g>
</svg>