<?xml version="1.0" encoding="utf-8"?>
<!-- Generator: Adobe Illustrator 19.1.0, SVG Export Plug-In . SVG Version: 6.00 Build 0)  -->
<svg version="1.1" id="Layer_1" xmlns="http://www.w3.org/2000/svg" xmlns:xlink="http://www.w3.org/1999/xlink" x="0px" y="0px"
	 viewBox="0 0 18 18" style="enable-background:new 0 0 18 18;" xml:space="preserve">
<style type="text/css">
	.st0{fill-rule:evenodd;clip-rule:evenodd;fill:#8BC4E4;}
	.st1{fill-rule:evenodd;clip-rule:evenodd;fill:#F6A61C;}
	.st2{fill-rule:evenodd;clip-rule:evenodd;fill:#F1658A;}
	.st3{fill-rule:evenodd;clip-rule:evenodd;fill:#83C882;}
</style>
<path class="st2" d="M15.3,4.7L15.3,4.7C15.2,3,13.4,1.9,11,1.5V0.3c0,0-0.9-0.2-1.9-0.2c-1,0-1.9,0.2-1.9,0.2v1.1
	C4.6,1.8,2.8,3,2.7,4.7h0c0,0-0.2,1.3-0.2,3.4c0,2.1,0.2,3.5,0.2,3.5h0c0,1.2,0.8,2.3,1.9,3c0,0,0.2,0.1,0.5,0.3
	c-0.4,0.7-1.7,2.6-1.8,3.1c0.3,0,1.3,0,1.6,0c0.1,0,0.2-0.1,0.2-0.2c0.1-0.2,1-1.6,1.5-2.4C7.2,15.4,8,15.4,9,15.4
	c1,0,1.9,0,2.5-0.2c0.5,0.8,1.4,2.2,1.5,2.5c0,0.1,0.1,0.1,0.1,0.1c0.3,0,1.3,0,1.6,0c-0.7-1.3-1.5-2.5-1.8-3.1
	c0.3-0.1,0.5-0.2,0.5-0.2c1.1-0.8,1.8-1.8,1.9-3h0c0,0,0.2-1.8,0.2-3.5C15.5,6.2,15.3,4.7,15.3,4.7z M5.5,11.5c-0.5,0-1-0.4-1-1
	c0-0.5,0.4-1,1-1c0.5,0,1,0.4,1,1C6.5,11,6,11.5,5.5,11.5z M12.5,11.5c-0.5,0-1-0.4-1-1c0-0.5,0.4-1,1-1c0.5,0,1,0.4,1,1
	C13.5,11,13.1,11.5,12.5,11.5z M14.3,7.1c0,1.2-0.7,1.2-5.2,1.2c-4.5,0-5.3-0.1-5.3-1.2c0,0,0-1.9,0-2c0-1.4,2.4-2.4,5.3-2.4
	c2.9,0,5.3,0.9,5.3,2.4C14.3,5.1,14.3,7,14.3,7.1z"/>
</svg>
