<?xml version="1.0" encoding="utf-8"?>
<!-- Generator: Adobe Illustrator 19.1.0, SVG Export Plug-In . SVG Version: 6.00 Build 0)  -->
<svg version="1.1" id="Layer_1" xmlns="http://www.w3.org/2000/svg" xmlns:xlink="http://www.w3.org/1999/xlink" x="0px" y="0px"
	 viewBox="0 0 312 320" style="enable-background:new 0 0 312 320;" xml:space="preserve">
<style type="text/css">
	.st0{fill:#D9EBF6;enable-background:new    ;}
</style>
<path class="st0" d="M-1,0v320h313V0H-1z M105.5,25.5c2.8,3.2-4,14.4-9.9,14.7C91.3,40.4,102.6,22.3,105.5,25.5z M115.7,121
	c-3.5,4.1-10.4,4.6-11.3,8c-1.8-1.5-3.5-3.2-4.8-4.9c-5.6-7.4-7.9-1.5-8.6,3c-0.7,4.5-6-1.5-9.2-2.2c-3.3-0.7,0.9-7.8,3.3-9.7
	c1.5-1.3,3.1-4.6,4-9.5c5.8,0.2,12.9-9.2,18.4-3.3C113.5,109,120.1,116.2,115.7,121z M226.8,163.2c-0.5,7.3-7.6,11-12.2,15.9
	c-4.6,4.9-5.5,10.6-1.1,9.9s9.6,0,6.3,3.4s-15.7,9.9-20.5,9.6c-4.7-0.3-14.4,1.8-16.6,3.4c-2.2,1.8-9.2-5.6-11.8-3.2
	c-2.6,2.4-6.3,4.6-11.5,3.6s-7.9,2.4-10.7,1.7s-3,7.8-6.5,7.3c-3.4-0.5-4.6-5.4-10.9-2.4c-6.3,3-8.9,9.6-10.9,6.9
	c-3.3-4.6,14.4-23.2,18.8-25.9s11.5,1.8,16.4-2.4c4.8-4.2,5-6.9-1.3-4.2s-9.8-2.4-15.4-2.4s-4.8-5.4-8.7-2.2
	c-3.9,3.2-13.9-4.2-5.7-6.9c8.3-2.7,14.3-7.3,14.1-11.3c-0.3-3.9-8.3-3.2-8.7-6.3c-0.5-3.3,5.9-6.9,4.4-10.3
	c-1.6-3.4,4.1-5.1,4.6-2.7c0.5,2.4,13.9,3,15.1-0.7c1.1-3.7-0.7-11.1,1.3-15c2-3.9,0.5-4.5-3.9-6.1c-4.4-1.8-6-6-2.4-10.3
	c3.5-4.5,1.1-10.8-3.9-4.9s-20.7,5.9-21.2,2.2c-0.5-3.6,7.6-11.5,5.2-16.6c-2.4-5.2,1.7-11.1-1.1-11.5s-0.7,11.5-8.5,13
	c-7.9,1.5-2.9-12-6.1-10c-3.3,2-10.5,8.8-10.5,4.2s12.6-5.4,12.2-10.3s-8.9-2-7.8-8.8c1.1-6.9,11.2-11.5,5.5-12.3s-15.1-6-10.7-9.9
	c4.4-4,6.8,1.4,8.9,3.6c2.2,2.2,5-0.7,3.7-4.6s6.7-6.6,6.5-11.3s2.4-15.4,9.2-13.9c6.7,1.4,13.1,2.1,15.9-0.3
	c2.8-2.4,3.3-9.8,6.5-6.6c3.3,3.2-2.7,6.3-2.2,9.8c0.4,3.4-7.4,12.1-11.2,13.8c-3.7,1.8,0.7,7.8,5,5.4c4.4-2.4,27.2-2.7,27.2,1.5
	s-6.1,25-11.3,28.9s-8.5,11.1-5.2,10.8s9.6-3,13.3,2.4s8.6,2,9.9,8.4c1.4,6.3,2.4,18.1,9.9,20.1s11.8,17.7,11.2,20.1
	c-0.7,2.5,2.4,8.6,4.8,9.1c2.4,0.5-2.2,4.6,0.2,9c2.3,4.5,5.7,4.9,7.2,1C212.8,150.7,227.2,155.9,226.8,163.2z"/>
</svg>
