<?xml version="1.0" encoding="UTF-8" standalone="no"?>
<svg width="26px" height="6px" viewBox="0 0 26 6" version="1.1" xmlns="http://www.w3.org/2000/svg" xmlns:xlink="http://www.w3.org/1999/xlink" xmlns:sketch="http://www.bohemiancoding.com/sketch/ns">
    <!-- Generator: Sketch 3.4 (15588) - http://www.bohemiancoding.com/sketch -->
    <title>Shape</title>
    <desc>Created with Sketch.</desc>
    <defs></defs>
    <g id="Page-1" stroke="none" stroke-width="1" fill="none" fill-rule="evenodd" sketch:type="MSPage">
        <path d="M5.93127753,3.08370044 L5.93127753,3.08370044 C8.1339207,6.33259912 12.0986784,5.17621145 13.0348018,3.08370044 L13.0348018,3.08370044 C15.2374449,6.3876652 19.2022026,5.17621145 20.138326,3.08370044 L20.138326,3.08370044 C21.6801762,5.39647577 24.1030837,5.50660793 25.7,4.62555066 C25.3696035,4.24008811 25.0942731,3.79955947 24.9290749,3.35903084 C23.2770925,4.07488987 21.2396476,3.30396476 20.138326,-8.8817842e-16 L20.138326,-8.8817842e-16 L20.138326,-8.8817842e-16 C19.477533,3.96475771 14.8519824,5.50660793 13.0348018,-8.8817842e-16 L13.0348018,-8.8817842e-16 L13.0348018,-8.8817842e-16 C12.3740088,3.96475771 7.74845815,5.50660793 5.93127753,-8.8817842e-16 L5.93127753,-8.8817842e-16 L5.93127753,-8.8817842e-16 C5.54581498,2.53303965 3.45330396,4.12995595 1.58105727,3.41409692 C1.36079295,3.85462555 1.03039648,4.29515419 0.7,4.68061674 C2.73744493,5.72687225 5.2154185,4.68061674 5.93127753,3.08370044 L5.93127753,3.08370044 Z" id="Shape" opacity="0.8" fill="#F3F3F3" sketch:type="MSShapeGroup"></path>
    </g>
</svg>