<?xml version="1.0" encoding="UTF-8" standalone="no"?>
<svg width="41px" height="6px" viewBox="0 0 41 6" version="1.1" xmlns="http://www.w3.org/2000/svg" xmlns:xlink="http://www.w3.org/1999/xlink" xmlns:sketch="http://www.bohemiancoding.com/sketch/ns">
    <!-- Generator: Sketch 3.4 (15588) - http://www.bohemiancoding.com/sketch -->
    <title>Shape</title>
    <desc>Created with Sketch.</desc>
    <defs></defs>
    <g id="Page-1" stroke="none" stroke-width="1" fill="none" fill-rule="evenodd" sketch:type="MSPage">
        <path d="M39.8584853,3.42215989 C38.1754558,4.15147265 36.0997195,3.36605891 34.9776999,-3.10862447e-15 L34.9776999,-3.10862447e-15 L34.9776999,-3.10862447e-15 C34.3044881,4.03927069 29.5920056,5.61009818 27.7406732,-3.10862447e-15 L27.7406732,-3.10862447e-15 L27.7406732,-3.10862447e-15 C27.0674614,4.03927069 22.354979,5.61009818 20.5036466,-3.10862447e-15 L20.5036466,-3.10862447e-15 L20.5036466,-3.10862447e-15 C19.8304348,4.03927069 15.1179523,5.61009818 13.2666199,-3.10862447e-15 L13.2666199,-3.10862447e-15 L13.2666199,-3.10862447e-15 C12.5934081,4.03927069 7.88092567,5.61009818 6.02959327,-3.10862447e-15 L6.02959327,-3.10862447e-15 L6.02959327,-3.10862447e-15 C5.6368864,2.58064516 3.50504909,4.20757363 1.59761571,3.47826087 C1.37321178,3.92706872 1.03660589,4.37587658 0.7,4.76858345 C2.83183731,5.8345021 5.35638149,4.71248247 6.08569425,3.14165498 L6.08569425,3.14165498 C8.32973352,6.50771388 12.3690042,5.27349229 13.3227209,3.14165498 L13.3227209,3.14165498 C15.5667602,6.50771388 19.6060309,5.27349229 20.5597475,3.14165498 L20.5597475,3.14165498 C22.8037868,6.50771388 26.8430575,5.27349229 27.7967742,3.14165498 L27.7967742,3.14165498 C30.0408135,6.50771388 34.0800842,5.27349229 35.0338008,3.14165498 L35.0338008,3.14165498 C36.6046283,5.49789621 39.0730715,5.61009818 40.7,4.71248247 C40.3072931,4.3197756 40.0267882,3.87096774 39.8584853,3.42215989 L39.8584853,3.42215989 Z" id="Shape" opacity="0.8" fill="#F3F3F3" sketch:type="MSShapeGroup"></path>
    </g>
</svg>