<?xml version="1.0" encoding="utf-8"?>
<!-- Generator: Adobe Illustrator 19.1.0, SVG Export Plug-In . SVG Version: 6.00 Build 0)  -->
<svg version="1.1" id="Layer_1" xmlns="http://www.w3.org/2000/svg" xmlns:xlink="http://www.w3.org/1999/xlink" x="0px" y="0px"
	 viewBox="0 0 80.5 110" style="enable-background:new 0 0 80.5 110;" xml:space="preserve">
<style type="text/css">
	.st0{fill:#974628;}
	.st1{fill:#3D6F35;}
	.st2{fill:#6E963E;}
	.st3{fill:#2B84B7;}
	.st4{fill:#60A2BF;}
	.st5{fill:#FCC8AF;}
	.st6{fill:#F1B18C;}
	.st7{fill:#3B2416;}
	.st8{fill:#8BC4E4;}
	.st9{fill:#1C5678;}
	.st10{fill:none;}
	.st11{fill:#EAEAEA;}
	.st12{fill:#CCCCCC;}
	.st13{fill:#692711;}
	.st14{fill:#F59099;}
	.st15{fill:#F79968;}
	.st16{fill:#010203;}
	.st17{fill:#FFFFFF;}
	.st18{fill:#F6CD62;}
	.st19{fill:#F4AB1D;}
	.st20{fill:#E99523;}
	.st21{fill:#6B9F41;}
	.st22{fill:#FEC637;}
	.st23{fill:#F6A61C;}
	.st24{opacity:0.2;fill:#010101;}
</style>
<rect x="34.7" y="72.2" class="st0" width="10.8" height="34.8"/>
<rect x="19.5" y="50" class="st1" width="41" height="29.3"/>
<path class="st2" d="M74.4,75.8l-4.7-4.7l-27.3-8.5l0.2-1.5l-2.5,0.8L37.5,61l0.2,1.5l-27.3,8.5l-4.7,4.7C3.4,77.6,2,80.3,2,83.4
	c0,5.3,4.3,9.5,9.5,9.5c5.3,0,9.5-4.3,9.5-9.5c0,5.3,4.3,9.5,9.5,9.5c4.9,0,8.9-3.7,9.5-8.4c0.5,4.8,4.6,8.4,9.5,8.4
	c5.3,0,9.5-4.3,9.5-9.5c0,5.3,4.3,9.5,9.5,9.5c5.3,0,9.5-4.3,9.5-9.5C78.1,80.3,76.7,77.6,74.4,75.8z"/>
<polygon class="st1" points="40.1,41.6 40.1,41.5 40.1,41.5 40,41.5 40,41.6 8.3,73.3 71.8,73.3 "/>
<path class="st2" d="M70.3,50.3L40.1,20.2V20l-0.1,0.1L40,20v0.1L9.8,50.3c-2,1.5-3.3,3.9-3.3,6.6c0,4.6,3.8,8.4,8.4,8.4
	c4.6,0,8.4-3.8,8.4-8.4c0,4.6,3.8,8.4,8.4,8.4c4.3,0,7.8-3.2,8.3-7.4c0.5,4.2,4,7.4,8.3,7.4c4.6,0,8.4-3.8,8.4-8.4
	c0,4.6,3.8,8.4,8.4,8.4c4.6,0,8.4-3.8,8.4-8.4C73.5,54.2,72.3,51.8,70.3,50.3z"/>
<polygon class="st1" points="40.1,20.2 40.1,20 40.1,20.1 40,20 40,20.2 14,46.1 66.1,46.1 "/>
<path class="st2" d="M64,28.4L40.1,4.6V4.4l-0.1,0.1L40,4.4v0.1L16.1,28.4c-1.6,1.2-2.6,3.1-2.6,5.2c0,3.7,3,6.6,6.6,6.6
	c3.7,0,6.6-3,6.6-6.6c0,3.7,3,6.6,6.6,6.6c3.4,0,6.1-2.5,6.6-5.7c0.4,3.2,3.2,5.7,6.6,5.7c3.7,0,6.6-3,6.6-6.6c0,3.7,3,6.6,6.6,6.6
	c3.7,0,6.6-3,6.6-6.6C66.5,31.5,65.5,29.6,64,28.4z"/>
</svg>
