<?xml version="1.0" encoding="utf-8"?>
<!-- Generator: Adobe Illustrator 16.0.0, SVG Export Plug-In . SVG Version: 6.00 Build 0)  -->
<!DOCTYPE svg PUBLIC "-//W3C//DTD SVG 1.1//EN" "http://www.w3.org/Graphics/SVG/1.1/DTD/svg11.dtd">
<svg version="1.1" id="Layer_1" xmlns="http://www.w3.org/2000/svg" xmlns:xlink="http://www.w3.org/1999/xlink" x="0px" y="0px"
	 width="30px" height="30px" viewBox="0 0 30 30" enable-background="new 0 0 30 30" xml:space="preserve">
<path fill="#C7C8CA" stroke="#FFFFFF" stroke-width="2" stroke-miterlimit="10" d="M1.375,15v-3.633l9.992-9.992H15L1.375,15z
	 M10.458,1.375H6.825l-5.45,5.45v3.633L10.458,1.375z M19.542,1.375h-3.634L1.375,15.908v3.634L19.542,1.375z M24.083,1.375H20.45
	L1.375,20.45v3.633L24.083,1.375z M24.992,1.375L1.375,24.992v3.633l27.25-27.25H24.992z M5.917,1.375H2.284L1.375,2.284v3.633
	L5.917,1.375z M5.917,28.625L28.625,5.917V2.284L2.284,28.625H5.917z M10.458,28.625l18.167-18.167V6.825l-21.8,21.8H10.458z
	 M15,28.625L28.625,15v-3.633L11.367,28.625H15z M19.542,28.625l9.083-9.083v-3.634L15.908,28.625H19.542z M24.083,28.625
	l4.542-4.542V20.45l-8.175,8.175H24.083z M28.625,28.625v-3.633l-3.633,3.633H28.625z"/>
</svg>
