<?xml version="1.0" encoding="UTF-8" standalone="no"?>
<svg width="20px" height="20px" viewBox="0 0 20 20" version="1.1" xmlns="http://www.w3.org/2000/svg" xmlns:xlink="http://www.w3.org/1999/xlink">
    <!-- Generator: Sketch 41 (35326) - http://www.bohemiancoding.com/sketch -->
    <title>github</title>
    <desc>Created with Sketch.</desc>
    <defs></defs>
    <g id="Page-1" stroke="none" stroke-width="1" fill="none" fill-rule="evenodd">
        <g id="github" fill="#FFFFFF">
            <path d="M18.6350575,4.99080774 C17.7419564,3.46058426 16.5305219,2.24910421 15.0004351,1.35609428 C13.4701205,0.46303881 11.7994732,0.0166249425 9.98730895,0.0166249425 C8.17537241,0.0166249425 6.50417853,0.463175453 4.9741828,1.35609428 C3.44395932,2.24905866 2.23257036,3.46058426 1.33946934,4.99080774 C0.446504963,6.52098567 0,8.19195181 0,10.0036606 C0,12.1799339 0.63493616,14.1368946 1.90512732,15.8750437 C3.17518183,17.6133295 4.81590423,18.8161555 6.8271579,19.4836583 C7.06127352,19.5271109 7.23458286,19.4965483 7.34726808,19.3927449 C7.45999886,19.2888049 7.51629592,19.1586293 7.51629592,19.0027648 C7.51629592,18.976757 7.51406408,18.742778 7.50973704,18.3005545 C7.50527336,17.858331 7.50317816,17.4725413 7.50317816,17.1433674 L7.20406584,17.1951097 C7.01335725,17.2300449 6.77277384,17.2448479 6.4823156,17.2406575 C6.191994,17.2366037 5.89060429,17.2061778 5.57855639,17.1496075 C5.26637186,17.0935381 4.97600471,16.9634992 4.70722721,16.759764 C4.43858636,16.5560287 4.24787777,16.2893464 4.135147,15.960127 L4.00510807,15.660878 C3.91843063,15.461652 3.78196945,15.2403353 3.59554236,14.9977478 C3.40911526,14.7549325 3.22059297,14.5903228 3.02988438,14.5036454 L2.93883436,14.4384665 C2.8781647,14.3951506 2.82186764,14.3429072 2.76980652,14.2822831 C2.71779094,14.221659 2.67884758,14.1609894 2.6528398,14.1002286 C2.62678646,14.0394223 2.64837611,13.9895475 2.71783649,13.950422 C2.78729687,13.9112964 2.91282657,13.892303 3.09497217,13.892303 L3.35495895,13.9311552 C3.52835937,13.9659082 3.7428439,14.0697116 3.99868583,14.2432031 C4.25439111,14.416558 4.46459415,14.6419285 4.6293405,14.9192234 C4.82883981,15.2747694 5.06919548,15.5456877 5.35109074,15.7321148 C5.63275826,15.9185419 5.91674872,16.011596 6.20278882,16.011596 C6.48882893,16.011596 6.73588013,15.9899152 6.94403352,15.9467815 C7.15195917,15.90342 7.34704034,15.8382411 7.52918595,15.7516092 C7.60720931,15.1705105 7.81964419,14.7240967 8.1663084,14.4120488 C7.672206,14.3601243 7.22797843,14.2819188 6.83339794,14.1779332 C6.4390452,14.0738109 6.03152914,13.9048286 5.61112306,13.6705308 C5.19048924,13.4365518 4.84154764,13.1460025 4.56420716,12.7993838 C4.28682113,12.452583 4.05917329,11.9972873 3.88158247,11.4339067 C3.70390055,10.8702984 3.61503681,10.2201492 3.61503681,9.48327713 C3.61503681,8.43408385 3.95755618,7.54125611 4.64245826,6.80429291 C4.32161964,6.01549632 4.35190892,5.13123157 4.73341719,4.15158975 C4.98484098,4.0734753 5.35769517,4.1320953 5.85179757,4.32708538 C6.34599107,4.52216655 6.70782269,4.68928139 6.93765683,4.82783776 C7.16749097,4.96634858 7.35164067,5.08372523 7.49037923,5.1789201 C8.29680281,4.9535952 9.12900644,4.84090997 9.98721786,4.84090997 C10.8454293,4.84090997 11.6778151,4.9535952 12.4842842,5.1789201 L12.9784322,4.8669633 C13.3163512,4.65880992 13.7153954,4.46805578 14.1746082,4.29465535 C14.6340943,4.12134602 14.9854499,4.07361194 15.2283107,4.15172639 C15.6182908,5.13141376 15.6530438,6.01563296 15.3321141,6.80442955 C16.0169706,7.54139275 16.3596266,8.43444823 16.3596266,9.48341378 C16.3596266,10.2202859 16.2704441,10.8724847 16.0930354,11.44042 C15.9153991,12.0084465 15.6857927,12.4632867 15.4041252,12.8058972 C15.1221388,13.1484621 14.7709654,13.436734 14.3505593,13.6706674 C13.9300621,13.9047831 13.5224094,14.0737654 13.1280567,14.1778876 C12.7335217,14.2820099 12.2892941,14.360261 11.7951917,14.4122765 C12.2458416,14.8022567 12.471212,15.417835 12.471212,16.2587383 L12.471212,19.0024004 C12.471212,19.1582649 12.5254139,19.2883949 12.6339087,19.3923805 C12.7422669,19.4961839 12.9133899,19.5267465 13.1475056,19.4832484 C15.1590325,18.8158366 16.7997549,17.6129651 18.0697639,15.8746793 C19.3396362,14.1365302 19.9748001,12.1795695 19.9748001,10.0032962 C19.9743446,8.19181516 19.5276119,6.52098567 18.6350575,4.99080774 Z" id="Shape"></path>
        </g>
    </g>
</svg>