<?xml version="1.0" encoding="UTF-8" standalone="no"?>
<svg width="50px" height="50px" viewBox="0 0 50 50" version="1.1" xmlns="http://www.w3.org/2000/svg" xmlns:xlink="http://www.w3.org/1999/xlink" xmlns:sketch="http://www.bohemiancoding.com/sketch/ns">
    <!-- Generator: Sketch 3.0.2 (7799) - http://www.bohemiancoding.com/sketch -->
    <title>Slice 1</title>
    <description>Created with Sketch.</description>
    <defs></defs>
    <g id="Page-2" stroke="none" stroke-width="1" fill="none" fill-rule="evenodd" sketch:type="MSPage">
        <g id="Hilary_Kitz_Twitter" sketch:type="MSLayerGroup" transform="translate(1.000000, 1.000000)" stroke="#FFFFFF">
            <circle id="Oval-3" sketch:type="MSShapeGroup" cx="24" cy="24" r="24"></circle>
            <path d="M36.0010561,15.487513 C35.304847,16.558331 34.4507108,17.471152 33.4386474,18.225976 C33.4486393,18.428416 33.4536353,18.657225 33.4536353,18.912403 C33.4536353,20.330225 33.25373,21.749762 32.8539196,23.171014 C32.4541091,24.59228 31.8433929,25.952681 31.0217709,27.252217 C30.2001489,28.551753 29.221446,29.703029 28.0856621,30.706045 C26.9498781,31.709061 25.5846128,32.508811 23.989866,33.105295 C22.3951191,33.701779 20.6859802,34.000021 18.8624492,34.000021 C16.0165245,34.000021 13.3957081,33.20557 11,31.616668 C11.4252099,31.665598 11.8330219,31.690063 12.2234362,31.690063 C14.6009748,31.690063 16.7244991,30.932824 18.5940089,29.418346 C17.4854657,29.397332 16.4926821,29.044469 15.615658,28.359757 C14.7386339,27.675059 14.1350867,26.800143 13.8050162,25.735009 C14.1312686,25.799269 14.4532697,25.831399 14.7710195,25.831399 C15.2283983,25.831399 15.6784525,25.769715 16.121182,25.646347 C14.93816,25.401347 13.9567425,24.792067 13.1769293,23.818507 C12.3971432,22.844961 12.0072502,21.7213 12.0072502,20.447524 L12.0072502,20.381878 C12.7333943,20.797622 13.5079407,21.018766 14.3308895,21.04531 C13.6300772,20.562198 13.0744381,19.932205 12.6639724,19.155331 C12.2534796,18.378457 12.0482331,17.537743 12.0482331,16.633189 C12.0482331,15.679187 12.2794205,14.790831 12.7417953,13.968121 C14.0283103,15.600619 15.587192,16.905363 17.4184403,17.882353 C19.2497157,18.859357 21.2143244,19.401955 23.3122665,19.510147 C23.2227864,19.124545 23.1779651,18.72215 23.1778026,18.302962 C23.1778026,16.839318 23.6787097,15.58958 24.680524,14.553748 C25.6823517,13.517916 26.8909965,13 28.3064582,13 C29.788397,13 31.0366504,13.557977 32.0512185,14.673931 C33.2104116,14.436505 34.2957961,14.007062 35.3073721,13.385602 C34.9176483,14.653862 34.1666802,15.632238 33.0544679,16.32073 C34.0766992,16.195122 35.0588817,15.917383 36.0010154,15.487513 L36.0010561,15.487513 Z" id="Shape" sketch:type="MSShapeGroup"></path>
        </g>
    </g>
</svg>