<?xml version="1.0" encoding="UTF-8" standalone="no"?>
<svg width="40px" height="40px" viewBox="0 0 40 40" version="1.1" xmlns="http://www.w3.org/2000/svg" xmlns:xlink="http://www.w3.org/1999/xlink">
    <!-- Generator: Sketch 41 (35326) - http://www.bohemiancoding.com/sketch -->
    <title>Combined Shape</title>
    <desc>Created with Sketch.</desc>
    <defs></defs>
    <g id="Page-1" stroke="none" stroke-width="1" fill="none" fill-rule="evenodd">
        <path d="M20,40 C31.045695,40 40,31.045695 40,20 C40,8.954305 31.045695,0 20,0 C8.954305,0 0,8.954305 0,20 C0,31.045695 8.954305,40 20,40 Z M12.0869565,12.4347826 C13.2395508,12.4347826 14.173913,11.5004203 14.173913,10.3478261 C14.173913,9.19523183 13.2395508,8.26086957 12.0869565,8.26086957 C10.9343623,8.26086957 10,9.19523183 10,10.3478261 C10,11.5004203 10.9343623,12.4347826 12.0869565,12.4347826 Z M10.226635,13.940928 L10.226635,28.3043478 L14.1717136,28.3043478 L14.1717136,13.940928 L10.226635,13.940928 Z M17.2833248,13.940928 L17.2833248,28.3043478 L21.2284034,28.3043478 L21.2284034,20.7753599 C21.2284034,19.3121544 21.4691804,18.2610701 21.9507417,17.6220753 C22.432303,16.9830805 23.210198,16.6635879 24.2844501,16.6635879 C25.2290511,16.6635879 25.8865576,16.9552985 26.2569894,17.5387285 C26.6274212,18.1221586 26.8126343,19.0065511 26.8126343,20.1919328 L26.8126343,28.3043478 L30.7577128,28.3043478 L30.7577128,19.4695944 C30.7577128,18.5805582 30.6789973,17.7702509 30.5215638,17.0386482 C30.3641303,16.3070454 30.0909409,15.6865815 29.7019876,15.1772379 C29.3130342,14.6678942 28.7805466,14.269686 28.1045086,13.9826014 C27.4284706,13.6955168 26.5625994,13.5519766 25.5068688,13.5519766 C24.6733974,13.5519766 23.8584597,13.74182 23.0620314,14.1215126 C22.2656031,14.5012052 21.6173573,15.1077781 21.1172744,15.9412495 L21.0339277,15.9412495 L21.0339277,13.940928 L17.2833248,13.940928 Z" id="Combined-Shape" fill="#FFFFFF"></path>
    </g>
</svg>