<?xml version="1.0" encoding="UTF-8" standalone="no"?>
<svg width="265px" height="373px" viewBox="0 0 265 373" version="1.1" xmlns="http://www.w3.org/2000/svg" xmlns:xlink="http://www.w3.org/1999/xlink" xmlns:sketch="http://www.bohemiancoding.com/sketch/ns">
    <!-- Generator: Sketch 3.0.2 (7799) - http://www.bohemiancoding.com/sketch -->
    <title>Slice 1</title>
    <description>Created with Sketch.</description>
    <defs></defs>
    <g id="Page-1" stroke="none" stroke-width="1" fill="none" fill-rule="evenodd" sketch:type="MSPage">
        <g id="Cord" sketch:type="MSLayerGroup" transform="translate(38.000000, 18.000000)" stroke="#FFFFFF">
            <g id="Ripples" transform="translate(13.500000, 174.500000) rotate(-270.000000) translate(-13.500000, -174.500000) translate(-161.000000, 161.000000)" sketch:type="MSShapeGroup">
                <g id="Group" transform="translate(-0.000000, -0.000000)">
                    <path d="M-0.45703125,22.9375 C13.4209259,22.2215521 36.4781264,30.348823 50,23.59375 C59.9208139,18.6376452 66.2536228,8.5978452 74.9375,2.80859375 C79.4256943,-0.183535794 92.5664062,-2.84183904 92.5664062,3.15625" id="Path"></path>
                    <path d="M18.5429688,25.9375 C21.613002,25.7791205 30.4411902,25.7158732 34.2070312,25.9374998 C47.4645175,26.7177269 58.4693881,28.8544894 69,23.59375 C78.9208139,18.6376452 85.2536228,8.5978452 93.9375,2.80859375 C98.4256943,-0.183535794 111.566406,-2.84183904 111.566406,3.15625" id="Path-2"></path>
                    <path d="M38.5429688,25.9375 C41.613002,25.7791205 50.4411902,25.7158732 54.2070312,25.9374998 C67.4645175,26.7177269 78.4693881,28.8544894 89,23.59375 C98.9208139,18.6376452 105.253623,8.5978452 113.9375,2.80859375 C118.425694,-0.183535794 131.566406,-2.84183904 131.566406,3.15625" id="Path-3"></path>
                    <path d="M38.5429688,25.9375 C41.613002,25.7791205 50.4411902,25.7158732 54.2070312,25.9374998 C67.4645175,26.7177269 78.4693881,28.8544894 89,23.59375 C98.9208139,18.6376452 105.253623,8.5978452 113.9375,2.80859375 C118.425694,-0.183535794 131.566406,-2.84183904 131.566406,3.15625" id="Path-5"></path>
                    <path d="M58.5429688,25.9375 C61.613002,25.7791205 70.4411902,25.7158732 74.2070312,25.9374998 C87.4645175,26.7177269 98.4693881,28.8544894 109,23.59375 C118.920814,18.6376452 125.253623,8.5978452 133.9375,2.80859375 C138.425694,-0.183535794 151.566406,-2.84183904 151.566406,3.15625" id="Path-4"></path>
                    <path d="M78.5429688,25.9375 C81.613002,25.7791205 90.4411902,25.7158732 94.2070312,25.9374998 C107.464518,26.7177269 118.469388,28.8544894 129,23.59375 C138.920814,18.6376452 145.253623,8.5978452 153.9375,2.80859375 C158.425694,-0.183535794 171.566406,-2.84183904 171.566406,3.15625" id="Path-9"></path>
                    <path d="M98.5429688,25.9375 C101.613002,25.7791205 110.44119,25.7158732 114.207031,25.9374998 C127.464518,26.7177269 138.469388,28.8544894 149,23.59375 C158.920814,18.6376452 165.253623,8.5978452 173.9375,2.80859375 C178.425694,-0.183535794 191.566406,-2.84183904 191.566406,3.15625" id="Path-6"></path>
                    <path d="M98.5429688,25.9375 C101.613002,25.7791205 110.44119,25.7158732 114.207031,25.9374998 C127.464518,26.7177269 138.469388,28.8544894 149,23.59375 C158.920814,18.6376452 165.253623,8.5978452 173.9375,2.80859375 C178.425694,-0.183535794 191.566406,-2.84183904 191.566406,3.15625" id="Path-7"></path>
                    <path d="M118.542969,25.9375 C121.613002,25.7791205 130.44119,25.7158732 134.207031,25.9374998 C147.464518,26.7177269 158.469388,28.8544894 169,23.59375 C178.920814,18.6376452 185.253623,8.5978452 193.9375,2.80859375 C198.425694,-0.183535794 211.566406,-2.84183904 211.566406,3.15625" id="Path-8"></path>
                </g>
                <g id="Group-2" transform="translate(141.000000, 0.000000)">
                    <path d="M-0.45703125,25.9375 C13.4209259,25.2215521 32.4781264,30.348823 46,23.59375 C55.9208139,18.6376452 62.2536228,8.5978452 70.9375,2.80859375 C75.4256943,-0.183535794 88.5664062,-2.84183904 88.5664062,3.15625" id="Path"></path>
                    <path d="M14.5429688,25.9375 C17.613002,25.7791205 26.4411902,25.7158732 30.2070312,25.9374998 C43.4645175,26.7177269 54.4693881,28.8544894 65,23.59375 C74.9208139,18.6376452 81.2536228,8.5978452 89.9375,2.80859375 C94.4256943,-0.183535794 107.566406,-2.84183904 107.566406,3.15625" id="Path-2"></path>
                    <path d="M34.5429688,25.9375 C37.613002,25.7791205 46.4411902,25.7158732 50.2070312,25.9374998 C63.4645175,26.7177269 74.4693881,28.8544894 85,23.59375 C94.9208139,18.6376452 101.253623,8.5978452 109.9375,2.80859375 C114.425694,-0.183535794 127.566406,-2.84183904 127.566406,3.15625" id="Path-3"></path>
                    <path d="M34.5429688,25.9375 C37.613002,25.7791205 46.4411902,25.7158732 50.2070312,25.9374998 C63.4645175,26.7177269 74.4693881,28.8544894 85,23.59375 C94.9208139,18.6376452 101.253623,8.5978452 109.9375,2.80859375 C114.425694,-0.183535794 127.566406,-2.84183904 127.566406,3.15625" id="Path-5"></path>
                    <path d="M54.5429688,25.9375 C57.613002,25.7791205 66.4411902,25.7158732 70.2070312,25.9374998 C83.4645175,26.7177269 94.4693881,28.8544894 105,23.59375 C114.920814,18.6376452 121.253623,8.5978452 129.9375,2.80859375 C134.425694,-0.183535794 147.566406,-2.84183904 147.566406,3.15625" id="Path-4"></path>
                    <path d="M74.5429688,25.9375 C77.613002,25.7791205 86.4411902,25.7158732 90.2070312,25.9374998 C103.464518,26.7177269 114.469388,28.8544894 125,23.59375 C134.920814,18.6376452 141.253623,8.5978452 149.9375,2.80859375 C154.425694,-0.183535794 167.566406,-2.84183904 167.566406,3.15625" id="Path-9"></path>
                    <path d="M94.5429688,25.9375 C97.613002,25.7791205 106.44119,25.7158732 110.207031,25.9374998 C123.464518,26.7177269 134.469388,28.8544894 145,23.59375 C154.920814,18.6376452 161.253623,8.5978452 169.9375,2.80859375 C174.425694,-0.183535794 187.566406,-2.84183904 187.566406,3.15625" id="Path-6"></path>
                    <path d="M94.5429688,25.9375 C97.613002,25.7791205 106.44119,25.7158732 110.207031,25.9374998 C123.464518,26.7177269 134.469388,28.8544894 145,23.59375 C154.920814,18.6376452 161.253623,8.5978452 169.9375,2.80859375 C174.425694,-0.183535794 187.566406,-2.84183904 187.566406,3.15625" id="Path-7"></path>
                    <path d="M114.542969,25.9375 C117.613002,25.7791205 126.44119,25.7158732 130.207031,25.9374998 C143.464518,26.7177269 154.469388,28.8544894 165,23.59375 C174.920814,18.6376452 181.253623,8.5978452 189.9375,2.80859375 C194.425694,-0.183535794 207.566406,-2.84183904 207.566406,3.15625" id="Path-8"></path>
                </g>
            </g>
            <g id="Ripples-2" transform="translate(13.500000, 174.500000) scale(-1, 1) rotate(-270.000000) translate(-13.500000, -174.500000) translate(-161.000000, 161.000000)" sketch:type="MSShapeGroup">
                <g id="Group" transform="translate(-0.000000, -0.000000)">
                    <path d="M-0.45703125,22.9375 C13.4209259,22.2215521 36.4781264,30.348823 50,23.59375 C59.9208139,18.6376452 66.2536228,8.5978452 74.9375,2.80859375 C79.4256943,-0.183535794 92.5664062,-2.84183904 92.5664062,3.15625" id="Path"></path>
                    <path d="M18.5429688,25.9375 C21.613002,25.7791205 30.4411902,25.7158732 34.2070312,25.9374998 C47.4645175,26.7177269 58.4693881,28.8544894 69,23.59375 C78.9208139,18.6376452 85.2536228,8.5978452 93.9375,2.80859375 C98.4256943,-0.183535794 111.566406,-2.84183904 111.566406,3.15625" id="Path-2"></path>
                    <path d="M38.5429688,25.9375 C41.613002,25.7791205 50.4411902,25.7158732 54.2070312,25.9374998 C67.4645175,26.7177269 78.4693881,28.8544894 89,23.59375 C98.9208139,18.6376452 105.253623,8.5978452 113.9375,2.80859375 C118.425694,-0.183535794 131.566406,-2.84183904 131.566406,3.15625" id="Path-3"></path>
                    <path d="M38.5429688,25.9375 C41.613002,25.7791205 50.4411902,25.7158732 54.2070312,25.9374998 C67.4645175,26.7177269 78.4693881,28.8544894 89,23.59375 C98.9208139,18.6376452 105.253623,8.5978452 113.9375,2.80859375 C118.425694,-0.183535794 131.566406,-2.84183904 131.566406,3.15625" id="Path-5"></path>
                    <path d="M58.5429688,25.9375 C61.613002,25.7791205 70.4411902,25.7158732 74.2070312,25.9374998 C87.4645175,26.7177269 98.4693881,28.8544894 109,23.59375 C118.920814,18.6376452 125.253623,8.5978452 133.9375,2.80859375 C138.425694,-0.183535794 151.566406,-2.84183904 151.566406,3.15625" id="Path-4"></path>
                    <path d="M78.5429688,25.9375 C81.613002,25.7791205 90.4411902,25.7158732 94.2070312,25.9374998 C107.464518,26.7177269 118.469388,28.8544894 129,23.59375 C138.920814,18.6376452 145.253623,8.5978452 153.9375,2.80859375 C158.425694,-0.183535794 171.566406,-2.84183904 171.566406,3.15625" id="Path-9"></path>
                    <path d="M98.5429688,25.9375 C101.613002,25.7791205 110.44119,25.7158732 114.207031,25.9374998 C127.464518,26.7177269 138.469388,28.8544894 149,23.59375 C158.920814,18.6376452 165.253623,8.5978452 173.9375,2.80859375 C178.425694,-0.183535794 191.566406,-2.84183904 191.566406,3.15625" id="Path-6"></path>
                    <path d="M98.5429688,25.9375 C101.613002,25.7791205 110.44119,25.7158732 114.207031,25.9374998 C127.464518,26.7177269 138.469388,28.8544894 149,23.59375 C158.920814,18.6376452 165.253623,8.5978452 173.9375,2.80859375 C178.425694,-0.183535794 191.566406,-2.84183904 191.566406,3.15625" id="Path-7"></path>
                    <path d="M118.542969,25.9375 C121.613002,25.7791205 130.44119,25.7158732 134.207031,25.9374998 C147.464518,26.7177269 158.469388,28.8544894 169,23.59375 C178.920814,18.6376452 185.253623,8.5978452 193.9375,2.80859375 C198.425694,-0.183535794 211.566406,-2.84183904 211.566406,3.15625" id="Path-8"></path>
                </g>
                <g id="Group-2" transform="translate(141.000000, 0.000000)">
                    <path d="M-0.45703125,25.9375 C13.4209259,25.2215521 32.4781264,30.348823 46,23.59375 C55.9208139,18.6376452 62.2536228,8.5978452 70.9375,2.80859375 C75.4256943,-0.183535794 88.5664062,-2.84183904 88.5664062,3.15625" id="Path"></path>
                    <path d="M14.5429688,25.9375 C17.613002,25.7791205 26.4411902,25.7158732 30.2070312,25.9374998 C43.4645175,26.7177269 54.4693881,28.8544894 65,23.59375 C74.9208139,18.6376452 81.2536228,8.5978452 89.9375,2.80859375 C94.4256943,-0.183535794 107.566406,-2.84183904 107.566406,3.15625" id="Path-2"></path>
                    <path d="M34.5429688,25.9375 C37.613002,25.7791205 46.4411902,25.7158732 50.2070312,25.9374998 C63.4645175,26.7177269 74.4693881,28.8544894 85,23.59375 C94.9208139,18.6376452 101.253623,8.5978452 109.9375,2.80859375 C114.425694,-0.183535794 127.566406,-2.84183904 127.566406,3.15625" id="Path-3"></path>
                    <path d="M34.5429688,25.9375 C37.613002,25.7791205 46.4411902,25.7158732 50.2070312,25.9374998 C63.4645175,26.7177269 74.4693881,28.8544894 85,23.59375 C94.9208139,18.6376452 101.253623,8.5978452 109.9375,2.80859375 C114.425694,-0.183535794 127.566406,-2.84183904 127.566406,3.15625" id="Path-5"></path>
                    <path d="M54.5429688,25.9375 C57.613002,25.7791205 66.4411902,25.7158732 70.2070312,25.9374998 C83.4645175,26.7177269 94.4693881,28.8544894 105,23.59375 C114.920814,18.6376452 121.253623,8.5978452 129.9375,2.80859375 C134.425694,-0.183535794 147.566406,-2.84183904 147.566406,3.15625" id="Path-4"></path>
                    <path d="M74.5429688,25.9375 C77.613002,25.7791205 86.4411902,25.7158732 90.2070312,25.9374998 C103.464518,26.7177269 114.469388,28.8544894 125,23.59375 C134.920814,18.6376452 141.253623,8.5978452 149.9375,2.80859375 C154.425694,-0.183535794 167.566406,-2.84183904 167.566406,3.15625" id="Path-9"></path>
                    <path d="M94.5429688,25.9375 C97.613002,25.7791205 106.44119,25.7158732 110.207031,25.9374998 C123.464518,26.7177269 134.469388,28.8544894 145,23.59375 C154.920814,18.6376452 161.253623,8.5978452 169.9375,2.80859375 C174.425694,-0.183535794 187.566406,-2.84183904 187.566406,3.15625" id="Path-6"></path>
                    <path d="M94.5429688,25.9375 C97.613002,25.7791205 106.44119,25.7158732 110.207031,25.9374998 C123.464518,26.7177269 134.469388,28.8544894 145,23.59375 C154.920814,18.6376452 161.253623,8.5978452 169.9375,2.80859375 C174.425694,-0.183535794 187.566406,-2.84183904 187.566406,3.15625" id="Path-7"></path>
                    <path d="M114.542969,25.9375 C117.613002,25.7791205 126.44119,25.7158732 130.207031,25.9374998 C143.464518,26.7177269 154.469388,28.8544894 165,23.59375 C174.920814,18.6376452 181.253623,8.5978452 189.9375,2.80859375 C194.425694,-0.183535794 207.566406,-2.84183904 207.566406,3.15625" id="Path-8"></path>
                </g>
            </g>
        </g>
        <g id="CordwithPetals" sketch:type="MSLayerGroup" transform="translate(110.000000, 17.000000)" stroke="#FFFFFF">
            <g id="Ripples-4" transform="translate(20.500000, 174.500000) rotate(-270.000000) translate(-20.500000, -174.500000) translate(-154.000000, 161.000000)" sketch:type="MSShapeGroup">
                <g id="Group">
                    <path d="M-0.45703125,22.9375 C13.4209259,22.2215521 36.4781264,30.348823 50,23.59375 C59.9208139,18.6376452 66.2536228,8.5978452 74.9375,2.80859375 C79.4256943,-0.183535794 92.5664062,-2.84183904 92.5664062,3.15625" id="Path"></path>
                    <path d="M18.5429688,25.9375 C21.613002,25.7791205 30.4411902,25.7158732 34.2070312,25.9374998 C47.4645175,26.7177269 58.4693881,28.8544894 69,23.59375 C78.9208139,18.6376452 85.2536228,8.5978452 93.9375,2.80859375 C98.4256943,-0.183535794 111.566406,-2.84183904 111.566406,3.15625" id="Path-2"></path>
                    <path d="M38.5429688,25.9375 C41.613002,25.7791205 50.4411902,25.7158732 54.2070312,25.9374998 C67.4645175,26.7177269 78.4693881,28.8544894 89,23.59375 C98.9208139,18.6376452 105.253623,8.5978452 113.9375,2.80859375 C118.425694,-0.183535794 131.566406,-2.84183904 131.566406,3.15625" id="Path-3"></path>
                    <path d="M38.5429688,25.9375 C41.613002,25.7791205 50.4411902,25.7158732 54.2070312,25.9374998 C67.4645175,26.7177269 78.4693881,28.8544894 89,23.59375 C98.9208139,18.6376452 105.253623,8.5978452 113.9375,2.80859375 C118.425694,-0.183535794 131.566406,-2.84183904 131.566406,3.15625" id="Path-5"></path>
                    <path d="M58.5429688,25.9375 C61.613002,25.7791205 70.4411902,25.7158732 74.2070312,25.9374998 C87.4645175,26.7177269 98.4693881,28.8544894 109,23.59375 C118.920814,18.6376452 125.253623,8.5978452 133.9375,2.80859375 C138.425694,-0.183535794 151.566406,-2.84183904 151.566406,3.15625" id="Path-4"></path>
                    <path d="M78.5429688,25.9375 C81.613002,25.7791205 90.4411902,25.7158732 94.2070312,25.9374998 C107.464518,26.7177269 118.469388,28.8544894 129,23.59375 C138.920814,18.6376452 145.253623,8.5978452 153.9375,2.80859375 C158.425694,-0.183535794 171.566406,-2.84183904 171.566406,3.15625" id="Path-9"></path>
                    <path d="M98.5429688,25.9375 C101.613002,25.7791205 110.44119,25.7158732 114.207031,25.9374998 C127.464518,26.7177269 138.469388,28.8544894 149,23.59375 C158.920814,18.6376452 165.253623,8.5978452 173.9375,2.80859375 C178.425694,-0.183535794 191.566406,-2.84183904 191.566406,3.15625" id="Path-6"></path>
                    <path d="M98.5429688,25.9375 C101.613002,25.7791205 110.44119,25.7158732 114.207031,25.9374998 C127.464518,26.7177269 138.469388,28.8544894 149,23.59375 C158.920814,18.6376452 165.253623,8.5978452 173.9375,2.80859375 C178.425694,-0.183535794 191.566406,-2.84183904 191.566406,3.15625" id="Path-7"></path>
                    <path d="M118.542969,25.9375 C121.613002,25.7791205 130.44119,25.7158732 134.207031,25.9374998 C147.464518,26.7177269 158.469388,28.8544894 169,23.59375 C178.920814,18.6376452 185.253623,8.5978452 193.9375,2.80859375 C198.425694,-0.183535794 211.566406,-2.84183904 211.566406,3.15625" id="Path-8"></path>
                </g>
                <g id="Group-2" transform="translate(141.000000, 0.000000)">
                    <path d="M-0.45703125,25.9375 C13.4209259,25.2215521 32.4781264,30.348823 46,23.59375 C55.9208139,18.6376452 62.2536228,8.5978452 70.9375,2.80859375 C75.4256943,-0.183535794 88.5664062,-2.84183904 88.5664062,3.15625" id="Path"></path>
                    <path d="M14.5429688,25.9375 C17.613002,25.7791205 26.4411902,25.7158732 30.2070312,25.9374998 C43.4645175,26.7177269 54.4693881,28.8544894 65,23.59375 C74.9208139,18.6376452 81.2536228,8.5978452 89.9375,2.80859375 C94.4256943,-0.183535794 107.566406,-2.84183904 107.566406,3.15625" id="Path-2"></path>
                    <path d="M34.5429688,25.9375 C37.613002,25.7791205 46.4411902,25.7158732 50.2070312,25.9374998 C63.4645175,26.7177269 74.4693881,28.8544894 85,23.59375 C94.9208139,18.6376452 101.253623,8.5978452 109.9375,2.80859375 C114.425694,-0.183535794 127.566406,-2.84183904 127.566406,3.15625" id="Path-3"></path>
                    <path d="M34.5429688,25.9375 C37.613002,25.7791205 46.4411902,25.7158732 50.2070312,25.9374998 C63.4645175,26.7177269 74.4693881,28.8544894 85,23.59375 C94.9208139,18.6376452 101.253623,8.5978452 109.9375,2.80859375 C114.425694,-0.183535794 127.566406,-2.84183904 127.566406,3.15625" id="Path-5"></path>
                    <path d="M54.5429688,25.9375 C57.613002,25.7791205 66.4411902,25.7158732 70.2070312,25.9374998 C83.4645175,26.7177269 94.4693881,28.8544894 105,23.59375 C114.920814,18.6376452 121.253623,8.5978452 129.9375,2.80859375 C134.425694,-0.183535794 147.566406,-2.84183904 147.566406,3.15625" id="Path-4"></path>
                    <path d="M74.5429688,25.9375 C77.613002,25.7791205 86.4411902,25.7158732 90.2070312,25.9374998 C103.464518,26.7177269 114.469388,28.8544894 125,23.59375 C134.920814,18.6376452 141.253623,8.5978452 149.9375,2.80859375 C154.425694,-0.183535794 167.566406,-2.84183904 167.566406,3.15625" id="Path-9"></path>
                    <path d="M94.5429688,25.9375 C97.613002,25.7791205 106.44119,25.7158732 110.207031,25.9374998 C123.464518,26.7177269 134.469388,28.8544894 145,23.59375 C154.920814,18.6376452 161.253623,8.5978452 169.9375,2.80859375 C174.425694,-0.183535794 187.566406,-2.84183904 187.566406,3.15625" id="Path-6"></path>
                    <path d="M94.5429688,25.9375 C97.613002,25.7791205 106.44119,25.7158732 110.207031,25.9374998 C123.464518,26.7177269 134.469388,28.8544894 145,23.59375 C154.920814,18.6376452 161.253623,8.5978452 169.9375,2.80859375 C174.425694,-0.183535794 187.566406,-2.84183904 187.566406,3.15625" id="Path-7"></path>
                    <path d="M114.542969,25.9375 C117.613002,25.7791205 126.44119,25.7158732 130.207031,25.9374998 C143.464518,26.7177269 154.469388,28.8544894 165,23.59375 C174.920814,18.6376452 181.253623,8.5978452 189.9375,2.80859375 C194.425694,-0.183535794 207.566406,-2.84183904 207.566406,3.15625" id="Path-8"></path>
                </g>
            </g>
            <g id="Ripples-3" transform="translate(13.500000, 174.500000) scale(-1, 1) rotate(-270.000000) translate(-13.500000, -174.500000) translate(-161.000000, 161.000000)" sketch:type="MSShapeGroup">
                <g id="Group" transform="translate(0.000000, 0.000000)">
                    <path d="M-0.45703125,22.9375 C13.4209259,22.2215521 36.4781264,30.348823 50,23.59375 C59.9208139,18.6376452 66.2536228,8.5978452 74.9375,2.80859375 C79.4256943,-0.183535794 92.5664062,-2.84183904 92.5664062,3.15625" id="Path"></path>
                    <path d="M18.5429688,25.9375 C21.613002,25.7791205 30.4411902,25.7158732 34.2070312,25.9374998 C47.4645175,26.7177269 58.4693881,28.8544894 69,23.59375 C78.9208139,18.6376452 85.2536228,8.5978452 93.9375,2.80859375 C98.4256943,-0.183535794 111.566406,-2.84183904 111.566406,3.15625" id="Path-2"></path>
                    <path d="M38.5429688,25.9375 C41.613002,25.7791205 50.4411902,25.7158732 54.2070312,25.9374998 C67.4645175,26.7177269 78.4693881,28.8544894 89,23.59375 C98.9208139,18.6376452 105.253623,8.5978452 113.9375,2.80859375 C118.425694,-0.183535794 131.566406,-2.84183904 131.566406,3.15625" id="Path-3"></path>
                    <path d="M38.5429688,25.9375 C41.613002,25.7791205 50.4411902,25.7158732 54.2070312,25.9374998 C67.4645175,26.7177269 78.4693881,28.8544894 89,23.59375 C98.9208139,18.6376452 105.253623,8.5978452 113.9375,2.80859375 C118.425694,-0.183535794 131.566406,-2.84183904 131.566406,3.15625" id="Path-5"></path>
                    <path d="M58.5429688,25.9375 C61.613002,25.7791205 70.4411902,25.7158732 74.2070312,25.9374998 C87.4645175,26.7177269 98.4693881,28.8544894 109,23.59375 C118.920814,18.6376452 125.253623,8.5978452 133.9375,2.80859375 C138.425694,-0.183535794 151.566406,-2.84183904 151.566406,3.15625" id="Path-4"></path>
                    <path d="M78.5429688,25.9375 C81.613002,25.7791205 90.4411902,25.7158732 94.2070312,25.9374998 C107.464518,26.7177269 118.469388,28.8544894 129,23.59375 C138.920814,18.6376452 145.253623,8.5978452 153.9375,2.80859375 C158.425694,-0.183535794 171.566406,-2.84183904 171.566406,3.15625" id="Path-9"></path>
                    <path d="M98.5429688,25.9375 C101.613002,25.7791205 110.44119,25.7158732 114.207031,25.9374998 C127.464518,26.7177269 138.469388,28.8544894 149,23.59375 C158.920814,18.6376452 165.253623,8.5978452 173.9375,2.80859375 C178.425694,-0.183535794 191.566406,-2.84183904 191.566406,3.15625" id="Path-6"></path>
                    <path d="M98.5429688,25.9375 C101.613002,25.7791205 110.44119,25.7158732 114.207031,25.9374998 C127.464518,26.7177269 138.469388,28.8544894 149,23.59375 C158.920814,18.6376452 165.253623,8.5978452 173.9375,2.80859375 C178.425694,-0.183535794 191.566406,-2.84183904 191.566406,3.15625" id="Path-7"></path>
                    <path d="M118.542969,25.9375 C121.613002,25.7791205 130.44119,25.7158732 134.207031,25.9374998 C147.464518,26.7177269 158.469388,28.8544894 169,23.59375 C178.920814,18.6376452 185.253623,8.5978452 193.9375,2.80859375 C198.425694,-0.183535794 211.566406,-2.84183904 211.566406,3.15625" id="Path-8"></path>
                </g>
                <g id="Group-2" transform="translate(141.000000, 0.000000)">
                    <path d="M-0.45703125,25.9375 C13.4209259,25.2215521 32.4781264,30.348823 46,23.59375 C55.9208139,18.6376452 62.2536228,8.5978452 70.9375,2.80859375 C75.4256943,-0.183535794 88.5664062,-2.84183904 88.5664062,3.15625" id="Path"></path>
                    <path d="M14.5429688,25.9375 C17.613002,25.7791205 26.4411902,25.7158732 30.2070312,25.9374998 C43.4645175,26.7177269 54.4693881,28.8544894 65,23.59375 C74.9208139,18.6376452 81.2536228,8.5978452 89.9375,2.80859375 C94.4256943,-0.183535794 107.566406,-2.84183904 107.566406,3.15625" id="Path-2"></path>
                    <path d="M34.5429688,25.9375 C37.613002,25.7791205 46.4411902,25.7158732 50.2070312,25.9374998 C63.4645175,26.7177269 74.4693881,28.8544894 85,23.59375 C94.9208139,18.6376452 101.253623,8.5978452 109.9375,2.80859375 C114.425694,-0.183535794 127.566406,-2.84183904 127.566406,3.15625" id="Path-3"></path>
                    <path d="M34.5429688,25.9375 C37.613002,25.7791205 46.4411902,25.7158732 50.2070312,25.9374998 C63.4645175,26.7177269 74.4693881,28.8544894 85,23.59375 C94.9208139,18.6376452 101.253623,8.5978452 109.9375,2.80859375 C114.425694,-0.183535794 127.566406,-2.84183904 127.566406,3.15625" id="Path-5"></path>
                    <path d="M54.5429688,25.9375 C57.613002,25.7791205 66.4411902,25.7158732 70.2070312,25.9374998 C83.4645175,26.7177269 94.4693881,28.8544894 105,23.59375 C114.920814,18.6376452 121.253623,8.5978452 129.9375,2.80859375 C134.425694,-0.183535794 147.566406,-2.84183904 147.566406,3.15625" id="Path-4"></path>
                    <path d="M74.5429688,25.9375 C77.613002,25.7791205 86.4411902,25.7158732 90.2070312,25.9374998 C103.464518,26.7177269 114.469388,28.8544894 125,23.59375 C134.920814,18.6376452 141.253623,8.5978452 149.9375,2.80859375 C154.425694,-0.183535794 167.566406,-2.84183904 167.566406,3.15625" id="Path-9"></path>
                    <path d="M94.5429688,25.9375 C97.613002,25.7791205 106.44119,25.7158732 110.207031,25.9374998 C123.464518,26.7177269 134.469388,28.8544894 145,23.59375 C154.920814,18.6376452 161.253623,8.5978452 169.9375,2.80859375 C174.425694,-0.183535794 187.566406,-2.84183904 187.566406,3.15625" id="Path-6"></path>
                    <path d="M94.5429688,25.9375 C97.613002,25.7791205 106.44119,25.7158732 110.207031,25.9374998 C123.464518,26.7177269 134.469388,28.8544894 145,23.59375 C154.920814,18.6376452 161.253623,8.5978452 169.9375,2.80859375 C174.425694,-0.183535794 187.566406,-2.84183904 187.566406,3.15625" id="Path-7"></path>
                    <path d="M114.542969,25.9375 C117.613002,25.7791205 126.44119,25.7158732 130.207031,25.9374998 C143.464518,26.7177269 154.469388,28.8544894 165,23.59375 C174.920814,18.6376452 181.253623,8.5978452 189.9375,2.80859375 C194.425694,-0.183535794 207.566406,-2.84183904 207.566406,3.15625" id="Path-8"></path>
                </g>
            </g>
        </g>
        <g id="Labia" sketch:type="MSLayerGroup" transform="translate(178.000000, 17.000000)" stroke="#FFFFFF">
            <g id="Ripples-4" transform="translate(41.500000, 174.500000) rotate(-270.000000) translate(-41.500000, -174.500000) translate(-133.000000, 161.000000)" sketch:type="MSShapeGroup">
                <g id="Group">
                    <path d="M-0.45703125,22.9375 C13.4209259,22.2215521 36.4781264,30.348823 50,23.59375 C59.9208139,18.6376452 66.2536228,8.5978452 74.9375,2.80859375 C79.4256943,-0.183535794 92.5664062,-2.84183904 92.5664062,3.15625" id="Path"></path>
                    <path d="M18.5429688,25.9375 C21.613002,25.7791205 30.4411902,25.7158732 34.2070312,25.9374998 C47.4645175,26.7177269 58.4693881,28.8544894 69,23.59375 C78.9208139,18.6376452 85.2536228,8.5978452 93.9375,2.80859375 C98.4256943,-0.183535794 111.566406,-2.84183904 111.566406,3.15625" id="Path-2"></path>
                    <path d="M38.5429688,25.9375 C41.613002,25.7791205 50.4411902,25.7158732 54.2070312,25.9374998 C67.4645175,26.7177269 78.4693881,28.8544894 89,23.59375 C98.9208139,18.6376452 105.253623,8.5978452 113.9375,2.80859375 C118.425694,-0.183535794 131.566406,-2.84183904 131.566406,3.15625" id="Path-3"></path>
                    <path d="M38.5429688,25.9375 C41.613002,25.7791205 50.4411902,25.7158732 54.2070312,25.9374998 C67.4645175,26.7177269 78.4693881,28.8544894 89,23.59375 C98.9208139,18.6376452 105.253623,8.5978452 113.9375,2.80859375 C118.425694,-0.183535794 131.566406,-2.84183904 131.566406,3.15625" id="Path-5"></path>
                    <path d="M58.5429688,25.9375 C61.613002,25.7791205 70.4411902,25.7158732 74.2070312,25.9374998 C87.4645175,26.7177269 98.4693881,28.8544894 109,23.59375 C118.920814,18.6376452 125.253623,8.5978452 133.9375,2.80859375 C138.425694,-0.183535794 151.566406,-2.84183904 151.566406,3.15625" id="Path-4"></path>
                    <path d="M78.5429688,25.9375 C81.613002,25.7791205 90.4411902,25.7158732 94.2070312,25.9374998 C107.464518,26.7177269 118.469388,28.8544894 129,23.59375 C138.920814,18.6376452 145.253623,8.5978452 153.9375,2.80859375 C158.425694,-0.183535794 171.566406,-2.84183904 171.566406,3.15625" id="Path-9"></path>
                    <path d="M98.5429688,25.9375 C101.613002,25.7791205 110.44119,25.7158732 114.207031,25.9374998 C127.464518,26.7177269 138.469388,28.8544894 149,23.59375 C158.920814,18.6376452 165.253623,8.5978452 173.9375,2.80859375 C178.425694,-0.183535794 191.566406,-2.84183904 191.566406,3.15625" id="Path-6"></path>
                    <path d="M98.5429688,25.9375 C101.613002,25.7791205 110.44119,25.7158732 114.207031,25.9374998 C127.464518,26.7177269 138.469388,28.8544894 149,23.59375 C158.920814,18.6376452 165.253623,8.5978452 173.9375,2.80859375 C178.425694,-0.183535794 191.566406,-2.84183904 191.566406,3.15625" id="Path-7"></path>
                    <path d="M118.542969,25.9375 C121.613002,25.7791205 130.44119,25.7158732 134.207031,25.9374998 C147.464518,26.7177269 158.469388,28.8544894 169,23.59375 C178.920814,18.6376452 185.253623,8.5978452 193.9375,2.80859375 C198.425694,-0.183535794 211.566406,-2.84183904 211.566406,3.15625" id="Path-8"></path>
                </g>
                <g id="Group-2" transform="translate(141.000000, 0.000000)">
                    <path d="M-0.45703125,25.9375 C13.4209259,25.2215521 32.4781264,30.348823 46,23.59375 C55.9208139,18.6376452 62.2536228,8.5978452 70.9375,2.80859375 C75.4256943,-0.183535794 88.5664062,-2.84183904 88.5664062,3.15625" id="Path"></path>
                    <path d="M14.5429688,25.9375 C17.613002,25.7791205 26.4411902,25.7158732 30.2070312,25.9374998 C43.4645175,26.7177269 54.4693881,28.8544894 65,23.59375 C74.9208139,18.6376452 81.2536228,8.5978452 89.9375,2.80859375 C94.4256943,-0.183535794 107.566406,-2.84183904 107.566406,3.15625" id="Path-2"></path>
                    <path d="M34.5429688,25.9375 C37.613002,25.7791205 46.4411902,25.7158732 50.2070312,25.9374998 C63.4645175,26.7177269 74.4693881,28.8544894 85,23.59375 C94.9208139,18.6376452 101.253623,8.5978452 109.9375,2.80859375 C114.425694,-0.183535794 127.566406,-2.84183904 127.566406,3.15625" id="Path-3"></path>
                    <path d="M34.5429688,25.9375 C37.613002,25.7791205 46.4411902,25.7158732 50.2070312,25.9374998 C63.4645175,26.7177269 74.4693881,28.8544894 85,23.59375 C94.9208139,18.6376452 101.253623,8.5978452 109.9375,2.80859375 C114.425694,-0.183535794 127.566406,-2.84183904 127.566406,3.15625" id="Path-5"></path>
                    <path d="M54.5429688,25.9375 C57.613002,25.7791205 66.4411902,25.7158732 70.2070312,25.9374998 C83.4645175,26.7177269 94.4693881,28.8544894 105,23.59375 C114.920814,18.6376452 121.253623,8.5978452 129.9375,2.80859375 C134.425694,-0.183535794 147.566406,-2.84183904 147.566406,3.15625" id="Path-4"></path>
                    <path d="M74.5429688,25.9375 C77.613002,25.7791205 86.4411902,25.7158732 90.2070312,25.9374998 C103.464518,26.7177269 114.469388,28.8544894 125,23.59375 C134.920814,18.6376452 141.253623,8.5978452 149.9375,2.80859375 C154.425694,-0.183535794 167.566406,-2.84183904 167.566406,3.15625" id="Path-9"></path>
                    <path d="M94.5429688,25.9375 C97.613002,25.7791205 106.44119,25.7158732 110.207031,25.9374998 C123.464518,26.7177269 134.469388,28.8544894 145,23.59375 C154.920814,18.6376452 161.253623,8.5978452 169.9375,2.80859375 C174.425694,-0.183535794 187.566406,-2.84183904 187.566406,3.15625" id="Path-6"></path>
                    <path d="M94.5429688,25.9375 C97.613002,25.7791205 106.44119,25.7158732 110.207031,25.9374998 C123.464518,26.7177269 134.469388,28.8544894 145,23.59375 C154.920814,18.6376452 161.253623,8.5978452 169.9375,2.80859375 C174.425694,-0.183535794 187.566406,-2.84183904 187.566406,3.15625" id="Path-7"></path>
                    <path d="M114.542969,25.9375 C117.613002,25.7791205 126.44119,25.7158732 130.207031,25.9374998 C143.464518,26.7177269 154.469388,28.8544894 165,23.59375 C174.920814,18.6376452 181.253623,8.5978452 189.9375,2.80859375 C194.425694,-0.183535794 207.566406,-2.84183904 207.566406,3.15625" id="Path-8"></path>
                </g>
            </g>
            <g id="Ripples-3" transform="translate(13.500000, 174.500000) scale(-1, 1) rotate(-270.000000) translate(-13.500000, -174.500000) translate(-161.000000, 161.000000)" sketch:type="MSShapeGroup">
                <g id="Group" transform="translate(0.000000, 0.000000)">
                    <path d="M-0.45703125,22.9375 C13.4209259,22.2215521 36.4781264,30.348823 50,23.59375 C59.9208139,18.6376452 66.2536228,8.5978452 74.9375,2.80859375 C79.4256943,-0.183535794 92.5664062,-2.84183904 92.5664062,3.15625" id="Path"></path>
                    <path d="M18.5429688,25.9375 C21.613002,25.7791205 30.4411902,25.7158732 34.2070312,25.9374998 C47.4645175,26.7177269 58.4693881,28.8544894 69,23.59375 C78.9208139,18.6376452 85.2536228,8.5978452 93.9375,2.80859375 C98.4256943,-0.183535794 111.566406,-2.84183904 111.566406,3.15625" id="Path-2"></path>
                    <path d="M38.5429688,25.9375 C41.613002,25.7791205 50.4411902,25.7158732 54.2070312,25.9374998 C67.4645175,26.7177269 78.4693881,28.8544894 89,23.59375 C98.9208139,18.6376452 105.253623,8.5978452 113.9375,2.80859375 C118.425694,-0.183535794 131.566406,-2.84183904 131.566406,3.15625" id="Path-3"></path>
                    <path d="M38.5429688,25.9375 C41.613002,25.7791205 50.4411902,25.7158732 54.2070312,25.9374998 C67.4645175,26.7177269 78.4693881,28.8544894 89,23.59375 C98.9208139,18.6376452 105.253623,8.5978452 113.9375,2.80859375 C118.425694,-0.183535794 131.566406,-2.84183904 131.566406,3.15625" id="Path-5"></path>
                    <path d="M58.5429688,25.9375 C61.613002,25.7791205 70.4411902,25.7158732 74.2070312,25.9374998 C87.4645175,26.7177269 98.4693881,28.8544894 109,23.59375 C118.920814,18.6376452 125.253623,8.5978452 133.9375,2.80859375 C138.425694,-0.183535794 151.566406,-2.84183904 151.566406,3.15625" id="Path-4"></path>
                    <path d="M78.5429688,25.9375 C81.613002,25.7791205 90.4411902,25.7158732 94.2070312,25.9374998 C107.464518,26.7177269 118.469388,28.8544894 129,23.59375 C138.920814,18.6376452 145.253623,8.5978452 153.9375,2.80859375 C158.425694,-0.183535794 171.566406,-2.84183904 171.566406,3.15625" id="Path-9"></path>
                    <path d="M98.5429688,25.9375 C101.613002,25.7791205 110.44119,25.7158732 114.207031,25.9374998 C127.464518,26.7177269 138.469388,28.8544894 149,23.59375 C158.920814,18.6376452 165.253623,8.5978452 173.9375,2.80859375 C178.425694,-0.183535794 191.566406,-2.84183904 191.566406,3.15625" id="Path-6"></path>
                    <path d="M98.5429688,25.9375 C101.613002,25.7791205 110.44119,25.7158732 114.207031,25.9374998 C127.464518,26.7177269 138.469388,28.8544894 149,23.59375 C158.920814,18.6376452 165.253623,8.5978452 173.9375,2.80859375 C178.425694,-0.183535794 191.566406,-2.84183904 191.566406,3.15625" id="Path-7"></path>
                    <path d="M118.542969,25.9375 C121.613002,25.7791205 130.44119,25.7158732 134.207031,25.9374998 C147.464518,26.7177269 158.469388,28.8544894 169,23.59375 C178.920814,18.6376452 185.253623,8.5978452 193.9375,2.80859375 C198.425694,-0.183535794 211.566406,-2.84183904 211.566406,3.15625" id="Path-8"></path>
                </g>
                <g id="Group-2" transform="translate(141.000000, 0.000000)">
                    <path d="M-0.45703125,25.9375 C13.4209259,25.2215521 32.4781264,30.348823 46,23.59375 C55.9208139,18.6376452 62.2536228,8.5978452 70.9375,2.80859375 C75.4256943,-0.183535794 88.5664062,-2.84183904 88.5664062,3.15625" id="Path"></path>
                    <path d="M14.5429688,25.9375 C17.613002,25.7791205 26.4411902,25.7158732 30.2070312,25.9374998 C43.4645175,26.7177269 54.4693881,28.8544894 65,23.59375 C74.9208139,18.6376452 81.2536228,8.5978452 89.9375,2.80859375 C94.4256943,-0.183535794 107.566406,-2.84183904 107.566406,3.15625" id="Path-2"></path>
                    <path d="M34.5429688,25.9375 C37.613002,25.7791205 46.4411902,25.7158732 50.2070312,25.9374998 C63.4645175,26.7177269 74.4693881,28.8544894 85,23.59375 C94.9208139,18.6376452 101.253623,8.5978452 109.9375,2.80859375 C114.425694,-0.183535794 127.566406,-2.84183904 127.566406,3.15625" id="Path-3"></path>
                    <path d="M34.5429688,25.9375 C37.613002,25.7791205 46.4411902,25.7158732 50.2070312,25.9374998 C63.4645175,26.7177269 74.4693881,28.8544894 85,23.59375 C94.9208139,18.6376452 101.253623,8.5978452 109.9375,2.80859375 C114.425694,-0.183535794 127.566406,-2.84183904 127.566406,3.15625" id="Path-5"></path>
                    <path d="M54.5429688,25.9375 C57.613002,25.7791205 66.4411902,25.7158732 70.2070312,25.9374998 C83.4645175,26.7177269 94.4693881,28.8544894 105,23.59375 C114.920814,18.6376452 121.253623,8.5978452 129.9375,2.80859375 C134.425694,-0.183535794 147.566406,-2.84183904 147.566406,3.15625" id="Path-4"></path>
                    <path d="M74.5429688,25.9375 C77.613002,25.7791205 86.4411902,25.7158732 90.2070312,25.9374998 C103.464518,26.7177269 114.469388,28.8544894 125,23.59375 C134.920814,18.6376452 141.253623,8.5978452 149.9375,2.80859375 C154.425694,-0.183535794 167.566406,-2.84183904 167.566406,3.15625" id="Path-9"></path>
                    <path d="M94.5429688,25.9375 C97.613002,25.7791205 106.44119,25.7158732 110.207031,25.9374998 C123.464518,26.7177269 134.469388,28.8544894 145,23.59375 C154.920814,18.6376452 161.253623,8.5978452 169.9375,2.80859375 C174.425694,-0.183535794 187.566406,-2.84183904 187.566406,3.15625" id="Path-6"></path>
                    <path d="M94.5429688,25.9375 C97.613002,25.7791205 106.44119,25.7158732 110.207031,25.9374998 C123.464518,26.7177269 134.469388,28.8544894 145,23.59375 C154.920814,18.6376452 161.253623,8.5978452 169.9375,2.80859375 C174.425694,-0.183535794 187.566406,-2.84183904 187.566406,3.15625" id="Path-7"></path>
                    <path d="M114.542969,25.9375 C117.613002,25.7791205 126.44119,25.7158732 130.207031,25.9374998 C143.464518,26.7177269 154.469388,28.8544894 165,23.59375 C174.920814,18.6376452 181.253623,8.5978452 189.9375,2.80859375 C194.425694,-0.183535794 207.566406,-2.84183904 207.566406,3.15625" id="Path-8"></path>
                </g>
            </g>
        </g>
        <circle id="Oval-1" fill="#FFFFFF" sketch:type="MSShapeGroup" cx="63" cy="13" r="5"></circle>
        <circle id="Oval-2" fill="#FFFFFF" sketch:type="MSShapeGroup" cx="42" cy="13" r="5"></circle>
        <circle id="Oval-3" fill="#FFFFFF" sketch:type="MSShapeGroup" cx="132" cy="18" r="5"></circle>
        <circle id="Oval-5" fill="#FFFFFF" sketch:type="MSShapeGroup" cx="200" cy="18" r="5"></circle>
        <circle id="Oval-6" fill="#FFFFFF" sketch:type="MSShapeGroup" cx="211" cy="18" r="5"></circle>
        <circle id="Oval-4" fill="#FFFFFF" sketch:type="MSShapeGroup" cx="122" cy="18" r="5"></circle>
    </g>
</svg>